<svg version="1.2" xmlns="http://www.w3.org/2000/svg" viewBox="0 0 147 147" width="147" height="147">
	<title>advisory-call</title>
	<defs>
		<linearGradient id="g1" x2="1" gradientUnits="userSpaceOnUse" gradientTransform="matrix(51.833,74.026,-74.026,51.833,41.062,40.656)">
			<stop offset="0" stop-color="#9359f2"/>
			<stop offset="1" stop-color="#5b1fec"/>
		</linearGradient>
	</defs>
	<style>
		.s0 { fill: url(#g1) } 
		.s1 { fill: none;stroke: #9292af;stroke-width: .5 } 
		.s2 { fill: #ffffff } 
		.s3 { opacity: .1;fill: none;stroke: #6428ed;stroke-width: .5 } 
		.s4 { opacity: .3;fill: none;stroke: #6428ed;stroke-width: .5 } 
		.s5 { opacity: .6;fill: none;stroke: #6428ed;stroke-width: .5 } 
		.s6 { fill: none;stroke: #6428ed;stroke-width: .5 } 
	</style>
	<g>
		<path fill-rule="evenodd" class="s0" d="m57.3 40.7h32.4c9 0 16.2 7.2 16.2 16.2v32.4c0 9-7.2 16.2-16.2 16.2h-32.4c-9 0-16.2-7.2-16.2-16.2v-32.4c0-9 7.2-16.2 16.2-16.2z"/>
		<path fill-rule="evenodd" class="s1" d="m57.3 40.9h32.4c8.8 0 16 7.2 16 16v32.4c0 8.8-7.2 16-16 16h-32.4c-8.8 0-16-7.2-16-16v-32.4c0-8.8 7.2-16 16-16z"/>
		<path class="s2" d="m87.3 88.7q-5.4 0-10.7-2.4-5.3-2.3-9.6-6.7-4.4-4.3-6.7-9.6-2.4-5.3-2.4-10.7 0-0.8 0.5-1.3 0.5-0.5 1.3-0.5h7.1q0.6 0 1 0.4 0.5 0.4 0.6 1l1.1 6q0.1 0.7 0 1.2-0.1 0.5-0.5 0.8l-4.2 4.3q0.9 1.6 2.1 3.1 1.1 1.5 2.6 2.9 1.3 1.3 2.8 2.5 1.5 1.1 3.1 2.1l4.1-4.1q0.4-0.4 1-0.6 0.6-0.2 1.3-0.1l5.9 1.2q0.6 0.2 1 0.6 0.4 0.5 0.4 1.1v7q0 0.8-0.5 1.3-0.5 0.5-1.3 0.5z"/>
	</g>
	<path fill-rule="evenodd" class="s3" d="m57.3 0.4h32.4c31.2 0 56.5 25.3 56.5 56.5v32.4c0 31.2-25.3 56.5-56.5 56.5h-32.4c-31.2 0-56.5-25.3-56.5-56.5v-32.4c0-31.2 25.3-56.5 56.5-56.5z"/>
	<path fill-rule="evenodd" class="s4" d="m57.3 10.5h32.4c25.6 0 46.4 20.8 46.4 46.4v32.4c0 25.6-20.8 46.4-46.4 46.4h-32.4c-25.6 0-46.4-20.8-46.4-46.4v-32.4c0-25.6 20.8-46.4 46.4-46.4z"/>
	<path fill-rule="evenodd" class="s5" d="m57.3 20.6h32.4c20 0 36.3 16.3 36.3 36.3v32.4c0 20-16.3 36.3-36.3 36.3h-32.4c-20 0-36.3-16.3-36.3-36.3v-32.4c0-20 16.3-36.3 36.3-36.3z"/>
	<path fill-rule="evenodd" class="s6" d="m57.3 30.8h32.4c14.4 0 26.1 11.7 26.1 26.1v32.4c0 14.4-11.7 26.1-26.1 26.1h-32.4c-14.4 0-26.1-11.7-26.1-26.1v-32.4c0-14.4 11.7-26.1 26.1-26.1z"/>
</svg>