<svg width="142" height="142" viewBox="0 0 142 142" fill="none" xmlns="http://www.w3.org/2000/svg">
<g filter="url(#filter0_dii_5706_3248)">
<rect x="39.1875" y="39.1914" width="62.7083" height="62.7083" rx="15.6771" fill="url(#paint0_linear_5706_3248)"/>
<rect x="39.4325" y="39.4364" width="62.2184" height="62.2184" rx="15.4321" stroke="#E05AD7" stroke-width="0.489909"/>
<path d="M71 72.4062C71 72.7792 70.8518 73.1369 70.5881 73.4006C70.3244 73.6643 69.9667 73.8125 69.5938 73.8125H61.1562C60.7833 73.8125 60.4256 73.6643 60.1619 73.4006C59.8982 73.1369 59.75 72.7792 59.75 72.4062C59.75 72.0333 59.8982 71.6756 60.1619 71.4119C60.4256 71.1482 60.7833 71 61.1562 71H69.5938C69.9667 71 70.3244 71.1482 70.5881 71.4119C70.8518 71.6756 71 72.0333 71 72.4062ZM69.5938 65.375H61.1562C60.7833 65.375 60.4256 65.5232 60.1619 65.7869C59.8982 66.0506 59.75 66.4083 59.75 66.7812C59.75 67.1542 59.8982 67.5119 60.1619 67.7756C60.4256 68.0393 60.7833 68.1875 61.1562 68.1875H69.5938C69.9667 68.1875 70.3244 68.0393 70.5881 67.7756C70.8518 67.5119 71 67.1542 71 66.7812C71 66.4083 70.8518 66.0506 70.5881 65.7869C70.3244 65.5232 69.9667 65.375 69.5938 65.375ZM89.2812 76.8834V87.875C89.2835 88.1229 89.2201 88.367 89.0976 88.5826C88.9751 88.7981 88.7978 88.9774 88.5836 89.1023C88.3695 89.2273 88.1261 89.2934 87.8782 89.2939C87.6302 89.2944 87.3866 89.2294 87.1719 89.1055L82.9531 86.6902L78.7344 89.1055C78.5197 89.2294 78.276 89.2944 78.0281 89.2939C77.7802 89.2934 77.5368 89.2273 77.3226 89.1023C77.1085 88.9774 76.9311 88.7981 76.8086 88.5826C76.6861 88.367 76.6228 88.1229 76.625 87.875V83.6562H55.5312C54.7853 83.6562 54.07 83.3599 53.5425 82.8325C53.0151 82.305 52.7188 81.5897 52.7188 80.8438V58.3438C52.7188 57.5978 53.0151 56.8825 53.5425 56.355C54.07 55.8276 54.7853 55.5312 55.5312 55.5312H86.4688C87.2147 55.5312 87.93 55.8276 88.4575 56.355C88.9849 56.8825 89.2812 57.5978 89.2812 58.3438V63.7104C90.1702 64.5616 90.8776 65.5841 91.3609 66.716C91.8442 67.848 92.0934 69.0661 92.0934 70.2969C92.0934 71.5277 91.8442 72.7458 91.3609 73.8777C90.8776 75.0097 90.1702 76.0321 89.2812 76.8834ZM76.625 80.8438V76.8834C75.0926 75.4055 74.1241 73.439 73.8867 71.3233C73.6493 69.2076 74.1578 67.0753 75.3246 65.2945C76.4914 63.5138 78.2432 62.1961 80.2777 61.569C82.3122 60.9418 84.5019 61.0445 86.4688 61.8594V58.3438H55.5312V80.8438H76.625ZM86.4688 78.7344C85.3551 79.1997 84.1601 79.4393 82.9531 79.4393C81.7462 79.4393 80.5512 79.1997 79.4375 78.7344V85.4527L82.25 83.8426C82.4625 83.7211 82.7031 83.6572 82.9479 83.6572C83.1926 83.6572 83.4332 83.7211 83.6457 83.8426L86.4582 85.4527L86.4688 78.7344ZM89.2812 70.2969C89.2812 69.0453 88.9101 67.8218 88.2148 66.7812C87.5194 65.7405 86.5311 64.9294 85.3748 64.4504C84.2185 63.9715 82.9461 63.8462 81.7186 64.0903C80.491 64.3345 79.3635 64.9372 78.4785 65.8222C77.5935 66.7072 76.9908 67.8348 76.7466 69.0623C76.5024 70.2899 76.6277 71.5622 77.1067 72.7185C77.5857 73.8749 78.3968 74.8632 79.4374 75.5585C80.4781 76.2539 81.7015 76.625 82.9531 76.625C83.7841 76.625 84.607 76.4613 85.3748 76.1433C86.1426 75.8253 86.8402 75.3592 87.4278 74.7715C88.0154 74.1839 88.4815 73.4863 88.7995 72.7185C89.1176 71.9508 89.2812 71.1279 89.2812 70.2969Z" fill="white"/>
</g>
<rect opacity="0.1" x="0.244954" y="0.244954" width="140.604" height="140.604" rx="54.6248" stroke="#C74AC3" stroke-width="0.489909"/>
<rect opacity="0.3" x="10.0418" y="10.0418" width="121.007" height="121.007" rx="44.8267" stroke="#C74AC3" stroke-width="0.489909"/>
<rect opacity="0.6" x="19.8387" y="19.8387" width="101.411" height="101.411" rx="35.0285" stroke="#C74AC3" stroke-width="0.489909"/>
<rect x="29.6356" y="29.6395" width="81.8148" height="81.8148" rx="25.2303" stroke="#C74AC3" stroke-width="0.489909"/>
<defs>
<filter id="filter0_dii_5706_3248" x="29.8792" y="38.7015" width="81.3275" height="84.7529" filterUnits="userSpaceOnUse" color-interpolation-filters="sRGB">
<feFlood flood-opacity="0" result="BackgroundImageFix"/>
<feColorMatrix in="SourceAlpha" type="matrix" values="0 0 0 0 0 0 0 0 0 0 0 0 0 0 0 0 0 0 127 0" result="hardAlpha"/>
<feMorphology radius="0.489909" operator="erode" in="SourceAlpha" result="effect1_dropShadow_5706_3248"/>
<feOffset dy="12.2477"/>
<feGaussianBlur stdDeviation="4.89909"/>
<feComposite in2="hardAlpha" operator="out"/>
<feColorMatrix type="matrix" values="0 0 0 0 0 0 0 0 0 0 0 0 0 0 0 0 0 0 0.2 0"/>
<feBlend mode="normal" in2="BackgroundImageFix" result="effect1_dropShadow_5706_3248"/>
<feBlend mode="normal" in="SourceGraphic" in2="effect1_dropShadow_5706_3248" result="shape"/>
<feColorMatrix in="SourceAlpha" type="matrix" values="0 0 0 0 0 0 0 0 0 0 0 0 0 0 0 0 0 0 127 0" result="hardAlpha"/>
<feMorphology radius="0.489909" operator="erode" in="SourceAlpha" result="effect2_innerShadow_5706_3248"/>
<feOffset dy="0.489909"/>
<feGaussianBlur stdDeviation="0.244954"/>
<feComposite in2="hardAlpha" operator="arithmetic" k2="-1" k3="1"/>
<feColorMatrix type="matrix" values="0 0 0 0 0.8 0 0 0 0 0.780392 0 0 0 0 0.780392 0 0 0 0.2 0"/>
<feBlend mode="normal" in2="shape" result="effect2_innerShadow_5706_3248"/>
<feColorMatrix in="SourceAlpha" type="matrix" values="0 0 0 0 0 0 0 0 0 0 0 0 0 0 0 0 0 0 127 0" result="hardAlpha"/>
<feMorphology radius="0.489909" operator="erode" in="SourceAlpha" result="effect3_innerShadow_5706_3248"/>
<feOffset dy="-0.489909"/>
<feGaussianBlur stdDeviation="0.244954"/>
<feComposite in2="hardAlpha" operator="arithmetic" k2="-1" k3="1"/>
<feColorMatrix type="matrix" values="0 0 0 0 0.8 0 0 0 0 0.780392 0 0 0 0 0.780392 0 0 0 0.2 0"/>
<feBlend mode="normal" in2="effect2_innerShadow_5706_3248" result="effect3_innerShadow_5706_3248"/>
</filter>
<linearGradient id="paint0_linear_5706_3248" x1="39.1875" y1="39.1914" x2="89.2812" y2="110.733" gradientUnits="userSpaceOnUse">
<stop stop-color="#EDA6E8"/>
<stop offset="1" stop-color="#C42EB5"/>
</linearGradient>
</defs>
</svg>
