<svg width="142" height="142" viewBox="0 0 142 142" fill="none" xmlns="http://www.w3.org/2000/svg">
<g filter="url(#filter0_dii_5706_3163)">
<rect x="39.1875" y="39.1914" width="62.7083" height="62.7083" rx="15.6771" fill="url(#paint0_linear_5706_3163)"/>
<rect x="39.4325" y="39.4364" width="62.2184" height="62.2184" rx="15.4321" stroke="#5A74E0" stroke-width="0.489909"/>
<path d="M66.8334 75.508L77.3069 68.7904L66.8334 62.0729V75.508ZM64.9554 85.6923V81.9363H56.7223C55.8572 81.9363 55.1354 81.6471 54.557 81.0687C53.9786 80.4903 53.6888 79.7679 53.6875 78.9015V58.6794C53.6875 57.8142 53.9773 57.0925 54.557 56.514C55.1367 55.9356 55.8578 55.6458 56.7204 55.6445H84.4583C85.3221 55.6445 86.0433 55.9344 86.6217 56.514C87.2001 57.0937 87.49 57.8155 87.4912 58.6794V78.9034C87.4912 79.7672 87.2014 80.489 86.6217 81.0687C86.042 81.6483 85.3209 81.9376 84.4583 81.9363H76.2233V85.6923H64.9554ZM56.7223 80.0583H84.4583C84.7462 80.0583 85.011 79.9381 85.2527 79.6978C85.4943 79.4574 85.6145 79.1919 85.6132 78.9015V58.6794C85.6132 58.3901 85.493 58.1247 85.2527 57.8831C85.0123 57.6415 84.7475 57.5213 84.4583 57.5225H56.7204C56.4325 57.5225 56.1677 57.6427 55.9261 57.8831C55.6844 58.1235 55.5642 58.3889 55.5655 58.6794V78.9034C55.5655 79.1913 55.6857 79.4561 55.9261 79.6978C56.1664 79.9394 56.4312 80.0596 56.7204 80.0583" fill="white"/>
</g>
<rect opacity="0.1" x="0.244954" y="0.244954" width="140.604" height="140.604" rx="54.6248" stroke="#4A5EC7" stroke-width="0.489909"/>
<rect opacity="0.3" x="10.0418" y="10.0418" width="121.007" height="121.007" rx="44.8267" stroke="#4A5EC7" stroke-width="0.489909"/>
<rect opacity="0.6" x="19.8387" y="19.8387" width="101.411" height="101.411" rx="35.0285" stroke="#4A5EC7" stroke-width="0.489909"/>
<rect x="29.6356" y="29.6395" width="81.8148" height="81.8148" rx="25.2303" stroke="#4A5EC7" stroke-width="0.489909"/>
<defs>
<filter id="filter0_dii_5706_3163" x="29.8792" y="38.7015" width="81.3275" height="84.7529" filterUnits="userSpaceOnUse" color-interpolation-filters="sRGB">
<feFlood flood-opacity="0" result="BackgroundImageFix"/>
<feColorMatrix in="SourceAlpha" type="matrix" values="0 0 0 0 0 0 0 0 0 0 0 0 0 0 0 0 0 0 127 0" result="hardAlpha"/>
<feMorphology radius="0.489909" operator="erode" in="SourceAlpha" result="effect1_dropShadow_5706_3163"/>
<feOffset dy="12.2477"/>
<feGaussianBlur stdDeviation="4.89909"/>
<feComposite in2="hardAlpha" operator="out"/>
<feColorMatrix type="matrix" values="0 0 0 0 0 0 0 0 0 0 0 0 0 0 0 0 0 0 0.2 0"/>
<feBlend mode="normal" in2="BackgroundImageFix" result="effect1_dropShadow_5706_3163"/>
<feBlend mode="normal" in="SourceGraphic" in2="effect1_dropShadow_5706_3163" result="shape"/>
<feColorMatrix in="SourceAlpha" type="matrix" values="0 0 0 0 0 0 0 0 0 0 0 0 0 0 0 0 0 0 127 0" result="hardAlpha"/>
<feMorphology radius="0.489909" operator="erode" in="SourceAlpha" result="effect2_innerShadow_5706_3163"/>
<feOffset dy="0.489909"/>
<feGaussianBlur stdDeviation="0.244954"/>
<feComposite in2="hardAlpha" operator="arithmetic" k2="-1" k3="1"/>
<feColorMatrix type="matrix" values="0 0 0 0 0.8 0 0 0 0 0.780392 0 0 0 0 0.780392 0 0 0 0.2 0"/>
<feBlend mode="normal" in2="shape" result="effect2_innerShadow_5706_3163"/>
<feColorMatrix in="SourceAlpha" type="matrix" values="0 0 0 0 0 0 0 0 0 0 0 0 0 0 0 0 0 0 127 0" result="hardAlpha"/>
<feMorphology radius="0.489909" operator="erode" in="SourceAlpha" result="effect3_innerShadow_5706_3163"/>
<feOffset dy="-0.489909"/>
<feGaussianBlur stdDeviation="0.244954"/>
<feComposite in2="hardAlpha" operator="arithmetic" k2="-1" k3="1"/>
<feColorMatrix type="matrix" values="0 0 0 0 0.8 0 0 0 0 0.780392 0 0 0 0 0.780392 0 0 0 0.2 0"/>
<feBlend mode="normal" in2="effect2_innerShadow_5706_3163" result="effect3_innerShadow_5706_3163"/>
</filter>
<linearGradient id="paint0_linear_5706_3163" x1="39.1875" y1="39.1914" x2="89.2812" y2="110.733" gradientUnits="userSpaceOnUse">
<stop stop-color="#A6B4ED"/>
<stop offset="1" stop-color="#2E38C4"/>
</linearGradient>
</defs>
</svg>
