<svg width="142" height="142" viewBox="0 0 142 142" fill="none" xmlns="http://www.w3.org/2000/svg">
<g filter="url(#filter0_dii_5706_3129)">
<rect x="39.1875" y="39.1914" width="62.7083" height="62.7083" rx="15.6771" fill="url(#paint0_linear_5706_3129)"/>
<rect x="39.4325" y="39.4364" width="62.2184" height="62.2184" rx="15.4321" stroke="#E05AD7" stroke-width="0.489909"/>
<path d="M57.9219 85.8203V68.6641L52.6719 72.6953L50.4219 69.6953L71.0469 53.9453L78.5469 59.6641V55.8203H84.1719V63.9766L91.6719 69.6953L89.4219 72.6953L84.1719 68.6641V85.8203H72.9219V74.5703H69.1719V85.8203H57.9219ZM61.6719 82.0703H65.4219V70.8203H76.6719V82.0703H80.4219V65.8047L71.0469 58.6797L61.6719 65.8047V82.0703ZM67.2969 67.1172H74.7969C74.7969 66.1172 74.4219 65.2969 73.6719 64.6562C72.9219 64.0156 72.0469 63.6953 71.0469 63.6953C70.0469 63.6953 69.1719 64.0156 68.4219 64.6562C67.6719 65.2969 67.2969 66.1172 67.2969 67.1172Z" fill="white"/>
</g>
<rect opacity="0.1" x="0.244954" y="0.244954" width="140.604" height="140.604" rx="54.6248" stroke="#C74AC3" stroke-width="0.489909"/>
<rect opacity="0.3" x="10.0418" y="10.0418" width="121.007" height="121.007" rx="44.8267" stroke="#C74AC3" stroke-width="0.489909"/>
<rect opacity="0.6" x="19.8387" y="19.8387" width="101.411" height="101.411" rx="35.0285" stroke="#C74AC3" stroke-width="0.489909"/>
<rect x="29.6356" y="29.6395" width="81.8148" height="81.8148" rx="25.2303" stroke="#C74AC3" stroke-width="0.489909"/>
<defs>
<filter id="filter0_dii_5706_3129" x="29.8792" y="38.7015" width="81.3275" height="84.7529" filterUnits="userSpaceOnUse" color-interpolation-filters="sRGB">
<feFlood flood-opacity="0" result="BackgroundImageFix"/>
<feColorMatrix in="SourceAlpha" type="matrix" values="0 0 0 0 0 0 0 0 0 0 0 0 0 0 0 0 0 0 127 0" result="hardAlpha"/>
<feMorphology radius="0.489909" operator="erode" in="SourceAlpha" result="effect1_dropShadow_5706_3129"/>
<feOffset dy="12.2477"/>
<feGaussianBlur stdDeviation="4.89909"/>
<feComposite in2="hardAlpha" operator="out"/>
<feColorMatrix type="matrix" values="0 0 0 0 0 0 0 0 0 0 0 0 0 0 0 0 0 0 0.2 0"/>
<feBlend mode="normal" in2="BackgroundImageFix" result="effect1_dropShadow_5706_3129"/>
<feBlend mode="normal" in="SourceGraphic" in2="effect1_dropShadow_5706_3129" result="shape"/>
<feColorMatrix in="SourceAlpha" type="matrix" values="0 0 0 0 0 0 0 0 0 0 0 0 0 0 0 0 0 0 127 0" result="hardAlpha"/>
<feMorphology radius="0.489909" operator="erode" in="SourceAlpha" result="effect2_innerShadow_5706_3129"/>
<feOffset dy="0.489909"/>
<feGaussianBlur stdDeviation="0.244954"/>
<feComposite in2="hardAlpha" operator="arithmetic" k2="-1" k3="1"/>
<feColorMatrix type="matrix" values="0 0 0 0 0.8 0 0 0 0 0.780392 0 0 0 0 0.780392 0 0 0 0.2 0"/>
<feBlend mode="normal" in2="shape" result="effect2_innerShadow_5706_3129"/>
<feColorMatrix in="SourceAlpha" type="matrix" values="0 0 0 0 0 0 0 0 0 0 0 0 0 0 0 0 0 0 127 0" result="hardAlpha"/>
<feMorphology radius="0.489909" operator="erode" in="SourceAlpha" result="effect3_innerShadow_5706_3129"/>
<feOffset dy="-0.489909"/>
<feGaussianBlur stdDeviation="0.244954"/>
<feComposite in2="hardAlpha" operator="arithmetic" k2="-1" k3="1"/>
<feColorMatrix type="matrix" values="0 0 0 0 0.8 0 0 0 0 0.780392 0 0 0 0 0.780392 0 0 0 0.2 0"/>
<feBlend mode="normal" in2="effect2_innerShadow_5706_3129" result="effect3_innerShadow_5706_3129"/>
</filter>
<linearGradient id="paint0_linear_5706_3129" x1="39.1875" y1="39.1914" x2="89.2812" y2="110.733" gradientUnits="userSpaceOnUse">
<stop stop-color="#EDA6E8"/>
<stop offset="1" stop-color="#C42EB5"/>
</linearGradient>
</defs>
</svg>
