<svg width="142" height="142" viewBox="0 0 142 142" fill="none" xmlns="http://www.w3.org/2000/svg">
<g filter="url(#filter0_dii_5706_3146)">
<rect x="39.1875" y="39.1914" width="62.7083" height="62.7083" rx="15.6771" fill="url(#paint0_linear_5706_3146)"/>
<rect x="39.4325" y="39.4364" width="62.2184" height="62.2184" rx="15.4321" stroke="#5ACEE0" stroke-width="0.489909"/>
<path d="M74.7969 66.7891V63.6016C75.8281 63.1641 76.8828 62.8359 77.9609 62.6172C79.0391 62.3984 80.1719 62.2891 81.3594 62.2891C82.1719 62.2891 82.9688 62.3516 83.75 62.4766C84.5312 62.6016 85.2969 62.7578 86.0469 62.9453V65.9453C85.2969 65.6641 84.5391 65.4531 83.7734 65.3125C83.0078 65.1719 82.2031 65.1016 81.3594 65.1016C80.1719 65.1016 79.0312 65.25 77.9375 65.5469C76.8438 65.8438 75.7969 66.2578 74.7969 66.7891ZM74.7969 77.1016V73.9141C75.8281 73.4766 76.8828 73.1484 77.9609 72.9297C79.0391 72.7109 80.1719 72.6016 81.3594 72.6016C82.1719 72.6016 82.9688 72.6641 83.75 72.7891C84.5312 72.9141 85.2969 73.0703 86.0469 73.2578V76.2578C85.2969 75.9766 84.5391 75.7656 83.7734 75.625C83.0078 75.4844 82.2031 75.4141 81.3594 75.4141C80.1719 75.4141 79.0312 75.5547 77.9375 75.8359C76.8438 76.1172 75.7969 76.5391 74.7969 77.1016ZM74.7969 71.9453V68.7578C75.8281 68.3203 76.8828 67.9922 77.9609 67.7734C79.0391 67.5547 80.1719 67.4453 81.3594 67.4453C82.1719 67.4453 82.9688 67.5078 83.75 67.6328C84.5312 67.7578 85.2969 67.9141 86.0469 68.1016V71.1016C85.2969 70.8203 84.5391 70.6094 83.7734 70.4688C83.0078 70.3281 82.2031 70.2578 81.3594 70.2578C80.1719 70.2578 79.0312 70.4062 77.9375 70.7031C76.8438 71 75.7969 71.4141 74.7969 71.9453ZM60.7344 78.2266C62.2031 78.2266 63.6328 78.3906 65.0234 78.7188C66.4141 79.0469 67.7969 79.5391 69.1719 80.1953V61.7266C67.8906 60.9766 66.5312 60.4141 65.0938 60.0391C63.6562 59.6641 62.2031 59.4766 60.7344 59.4766C59.6094 59.4766 58.4922 59.5859 57.3828 59.8047C56.2734 60.0234 55.2031 60.3516 54.1719 60.7891V79.3516C55.2656 78.9766 56.3516 78.6953 57.4297 78.5078C58.5078 78.3203 59.6094 78.2266 60.7344 78.2266ZM72.9219 80.1953C74.2969 79.5391 75.6797 79.0469 77.0703 78.7188C78.4609 78.3906 79.8906 78.2266 81.3594 78.2266C82.4844 78.2266 83.5859 78.3203 84.6641 78.5078C85.7422 78.6953 86.8281 78.9766 87.9219 79.3516V60.7891C86.8906 60.3516 85.8203 60.0234 84.7109 59.8047C83.6016 59.5859 82.4844 59.4766 81.3594 59.4766C79.8906 59.4766 78.4375 59.6641 77 60.0391C75.5625 60.4141 74.2031 60.9766 72.9219 61.7266V80.1953ZM71.0469 85.7266C69.5469 84.5391 67.9219 83.6172 66.1719 82.9609C64.4219 82.3047 62.6094 81.9766 60.7344 81.9766C59.4219 81.9766 58.1328 82.1484 56.8672 82.4922C55.6016 82.8359 54.3906 83.3203 53.2344 83.9453C52.5781 84.2891 51.9453 84.2734 51.3359 83.8984C50.7266 83.5234 50.4219 82.9766 50.4219 82.2578V59.6641C50.4219 59.3203 50.5078 58.9922 50.6797 58.6797C50.8516 58.3672 51.1094 58.1328 51.4531 57.9766C52.8906 57.2266 54.3906 56.6641 55.9531 56.2891C57.5156 55.9141 59.1094 55.7266 60.7344 55.7266C62.5469 55.7266 64.3203 55.9609 66.0547 56.4297C67.7891 56.8984 69.4531 57.6016 71.0469 58.5391C72.6406 57.6016 74.3047 56.8984 76.0391 56.4297C77.7734 55.9609 79.5469 55.7266 81.3594 55.7266C82.9844 55.7266 84.5781 55.9141 86.1406 56.2891C87.7031 56.6641 89.2031 57.2266 90.6406 57.9766C90.9844 58.1328 91.2422 58.3672 91.4141 58.6797C91.5859 58.9922 91.6719 59.3203 91.6719 59.6641V82.2578C91.6719 82.9766 91.3672 83.5234 90.7578 83.8984C90.1484 84.2734 89.5156 84.2891 88.8594 83.9453C87.7031 83.3203 86.4922 82.8359 85.2266 82.4922C83.9609 82.1484 82.6719 81.9766 81.3594 81.9766C79.4844 81.9766 77.6719 82.3047 75.9219 82.9609C74.1719 83.6172 72.5469 84.5391 71.0469 85.7266Z" fill="white"/>
</g>
<rect opacity="0.1" x="0.244954" y="0.244954" width="140.604" height="140.604" rx="54.6248" stroke="#4ABAC7" stroke-width="0.489909"/>
<rect opacity="0.3" x="10.0418" y="10.0418" width="121.007" height="121.007" rx="44.8267" stroke="#4ABAC7" stroke-width="0.489909"/>
<rect opacity="0.6" x="19.8387" y="19.8387" width="101.411" height="101.411" rx="35.0285" stroke="#4ABAC7" stroke-width="0.489909"/>
<rect x="29.6356" y="29.6395" width="81.8148" height="81.8148" rx="25.2303" stroke="#4ABAC7" stroke-width="0.489909"/>
<defs>
<filter id="filter0_dii_5706_3146" x="29.8792" y="38.7015" width="81.3275" height="84.7529" filterUnits="userSpaceOnUse" color-interpolation-filters="sRGB">
<feFlood flood-opacity="0" result="BackgroundImageFix"/>
<feColorMatrix in="SourceAlpha" type="matrix" values="0 0 0 0 0 0 0 0 0 0 0 0 0 0 0 0 0 0 127 0" result="hardAlpha"/>
<feMorphology radius="0.489909" operator="erode" in="SourceAlpha" result="effect1_dropShadow_5706_3146"/>
<feOffset dy="12.2477"/>
<feGaussianBlur stdDeviation="4.89909"/>
<feComposite in2="hardAlpha" operator="out"/>
<feColorMatrix type="matrix" values="0 0 0 0 0 0 0 0 0 0 0 0 0 0 0 0 0 0 0.2 0"/>
<feBlend mode="normal" in2="BackgroundImageFix" result="effect1_dropShadow_5706_3146"/>
<feBlend mode="normal" in="SourceGraphic" in2="effect1_dropShadow_5706_3146" result="shape"/>
<feColorMatrix in="SourceAlpha" type="matrix" values="0 0 0 0 0 0 0 0 0 0 0 0 0 0 0 0 0 0 127 0" result="hardAlpha"/>
<feMorphology radius="0.489909" operator="erode" in="SourceAlpha" result="effect2_innerShadow_5706_3146"/>
<feOffset dy="0.489909"/>
<feGaussianBlur stdDeviation="0.244954"/>
<feComposite in2="hardAlpha" operator="arithmetic" k2="-1" k3="1"/>
<feColorMatrix type="matrix" values="0 0 0 0 0.8 0 0 0 0 0.780392 0 0 0 0 0.780392 0 0 0 0.2 0"/>
<feBlend mode="normal" in2="shape" result="effect2_innerShadow_5706_3146"/>
<feColorMatrix in="SourceAlpha" type="matrix" values="0 0 0 0 0 0 0 0 0 0 0 0 0 0 0 0 0 0 127 0" result="hardAlpha"/>
<feMorphology radius="0.489909" operator="erode" in="SourceAlpha" result="effect3_innerShadow_5706_3146"/>
<feOffset dy="-0.489909"/>
<feGaussianBlur stdDeviation="0.244954"/>
<feComposite in2="hardAlpha" operator="arithmetic" k2="-1" k3="1"/>
<feColorMatrix type="matrix" values="0 0 0 0 0.8 0 0 0 0 0.780392 0 0 0 0 0.780392 0 0 0 0.2 0"/>
<feBlend mode="normal" in2="effect2_innerShadow_5706_3146" result="effect3_innerShadow_5706_3146"/>
</filter>
<linearGradient id="paint0_linear_5706_3146" x1="39.1875" y1="39.1914" x2="89.2812" y2="110.733" gradientUnits="userSpaceOnUse">
<stop stop-color="#A6E3ED"/>
<stop offset="1" stop-color="#2EB0C4"/>
</linearGradient>
</defs>
</svg>
