<svg width="28" height="23" viewBox="0 0 28 23" fill="none" xmlns="http://www.w3.org/2000/svg">
<path d="M22.05 11.6C22.05 5.65 17.15 0.75 11.2 0.75C5.20625 0.75 0.35 5.65 0.35 11.6C0.35 17.5938 5.20625 22.45 11.2 22.45C17.15 22.45 22.05 17.5938 22.05 11.6ZM9.93125 17.375C9.66875 17.6375 9.1875 17.6375 8.925 17.375L4.375 12.825C4.1125 12.5625 4.1125 12.0813 4.375 11.8188L5.38125 10.8563C5.64375 10.55 6.08125 10.55 6.34375 10.8563L9.45 13.9188L16.0125 7.35625C16.275 7.05 16.7125 7.05 16.975 7.35625L17.9812 8.31875C18.2437 8.58125 18.2437 9.0625 17.9812 9.325L9.93125 17.375Z" fill="#bf1922"/>
</svg>
