<svg class="img-fluid" id="outputsvg" xmlns="http://www.w3.org/2000/svg" style="transform: none; transform-origin: 50% 50%; cursor: move; max-height: 313.96px;" width="1024" height="934" viewBox="0 0 10240 9340"><g id="l28TQG3oQtFT6lpvzxq7hlA" fill="rgb(29,22,14)" style="transform: none;"><g style="transform: none;"><path id="ptJnJO1Ki" d="M2229 9156 c-106 -28 -201 -114 -240 -215 -12 -31 -47 -146 -78 -256 -51 -176 -60 -200 -79 -203 -12 -2 -22 -9 -22 -16 0 -9 -28 -15 -96 -19 -53 -4 -102 -11 -108 -17 -9 -6 -16 -6 -24 2 -9 9 -12 6 -12 -16 0 -16 17 -52 44 -89 60 -85 94 -156 116 -241 l18 -71 74 3 c127 4 480 39 998 97 74 8 243 27 375 40 132 14 321 34 420 45 99 11 315 33 480 50 165 17 365 37 445 46 l145 16 37 -41 c21 -22 38 -45 38 -51 0 -5 -18 -10 -39 -10 -36 0 -40 -2 -46 -32 -3 -18 -18 -85 -32 -148 -13 -63 -37 -182 -53 -265 -15 -82 -51 -274 -79 -425 -28 -151 -71 -378 -95 -505 -42 -215 -93 -496 -167 -920 -18 -99 -33 -205 -33 -235 l-1 -55 34 -5 34 -5 -27 -32 c-44 -52 -7 -49 -1116 -93 -146 -6 -564 -24 -930 -40 -366 -16 -791 -34 -945 -40 -154 -5 -342 -12 -417 -15 -130 -5 -138 -4 -148 15 -11 20 12 118 107 455 34 123 223 836 284 1070 27 105 49 210 49 234 l0 44 -57 -7 c-63 -7 -74 -13 -54 -26 12 -7 8 -27 -18 -112 -18 -56 -36 -114 -40 -128 -4 -14 -17 -29 -29 -35 -15 -7 -24 -24 -32 -60 -6 -27 -34 -133 -61 -235 -78 -281 -198 -731 -220 -820 -7 -25 -17 -50 -25 -56 -10 -8 -10 -20 -2 -53 9 -37 7 -58 -12 -137 -29 -119 -23 -170 25 -219 19 -18 47 -35 62 -37 21 -2 29 -10 35 -35 9 -33 38 -47 38 -18 0 12 13 15 58 15 116 0 624 21 1331 55 173 9 316 13 319 11 2 -3 24 -49 47 -103 24 -54 86 -188 140 -298 54 -110 133 -274 177 -365 170 -352 183 -374 278 -489 114 -137 257 -217 917 -516 95 -42 180 -86 189 -96 16 -18 15 -20 -11 -46 -88 -87 -211 -272 -265 -398 -77 -179 -132 -405 -149 -610 -6 -66 -13 -226 -17 -355 -5 -200 -10 -249 -30 -327 -33 -131 -47 -255 -41 -356 l6 -89 -34 -29 c-48 -42 -59 -85 -52 -197 5 -75 13 -109 40 -170 30 -70 35 -77 59 -74 22 2 33 -6 59 -45 134 -194 441 -405 734 -502 361 -120 766 -101 1057 48 101 52 176 110 213 165 22 34 43 51 80 66 143 58 272 209 320 372 13 47 19 55 35 51 15 -4 20 0 20 13 0 11 3 29 6 42 4 15 2 22 -8 22 -11 0 -13 30 -13 162 0 90 -4 187 -8 216 -8 46 -7 52 8 52 15 0 16 7 10 58 -3 31 -15 99 -26 150 l-20 93 23 47 c20 41 23 65 26 192 3 122 0 160 -17 235 -50 210 -181 375 -334 420 l-42 12 -3 115 -3 115 40 26 c55 36 111 105 186 227 35 58 70 113 77 122 8 9 204 80 468 168 250 83 464 155 475 160 11 4 66 24 122 44 89 32 107 36 140 27 55 -14 260 -31 388 -31 l110 0 0 -207 c1 -199 2 -211 28 -289 61 -183 174 -291 339 -326 44 -9 68 -9 112 1 118 26 133 107 70 368 -33 131 -37 167 -42 310 -5 182 3 258 48 437 17 66 30 134 30 152 0 18 5 45 10 59 17 44 38 159 70 380 81 553 100 646 262 1240 116 427 134 507 149 673 21 242 -7 521 -65 642 l-21 45 -74 3 -73 3 5 -43 c2 -24 18 -81 34 -128 43 -120 57 -231 50 -391 -7 -169 -35 -314 -132 -674 -168 -620 -195 -740 -255 -1155 -46 -318 -59 -390 -107 -610 -81 -377 -86 -410 -80 -635 6 -204 21 -309 66 -455 25 -78 14 -84 -74 -41 -99 49 -164 139 -195 271 -14 57 -15 211 -2 315 l7 60 65 10 c36 5 71 14 78 18 7 5 12 30 12 63 0 36 -4 54 -12 55 -7 1 -157 2 -333 3 -352 2 -454 13 -527 62 -56 36 -73 67 -58 103 23 57 35 61 145 51 55 -5 184 -12 286 -15 222 -9 229 -7 229 63 0 26 -4 52 -8 59 -5 7 -81 15 -222 22 -118 6 -255 16 -305 21 -81 9 -93 13 -117 40 -37 40 -37 83 0 119 27 28 27 28 211 34 101 4 228 7 281 7 61 0 100 4 108 12 7 7 12 33 12 58 0 25 -5 51 -12 58 -9 9 -90 12 -305 12 l-293 0 -19 31 c-24 40 -13 79 33 113 39 30 50 32 290 56 109 11 205 25 212 31 17 14 18 57 4 95 l-11 27 -172 -7 c-95 -4 -198 -11 -230 -15 -52 -6 -59 -5 -69 12 -27 52 89 121 288 170 71 18 135 36 142 40 17 11 15 78 -4 105 -10 14 -25 22 -45 22 -36 0 -37 17 -9 96 37 106 133 190 244 214 27 6 56 15 63 22 16 13 17 90 1 106 -7 7 -40 12 -80 12 -62 0 -68 2 -73 23 -2 12 -16 141 -30 287 -14 146 -33 315 -42 375 -12 74 -17 173 -17 300 -1 206 11 275 60 364 26 48 32 122 11 139 -6 6 -28 12 -46 14 l-35 3 57 61 c31 34 90 84 131 112 74 52 228 132 253 132 20 0 16 70 -7 108 -27 44 -68 43 -168 -5 -158 -75 -310 -195 -388 -308 -20 -30 -44 -55 -51 -55 -8 0 -49 -35 -91 -78 -81 -82 -129 -160 -167 -272 l-22 -64 -7 169 c-3 94 -9 270 -12 391 l-6 221 143 7 c79 4 245 14 369 22 124 7 253 14 288 14 60 0 62 1 62 25 0 14 -9 58 -20 98 -11 39 -23 109 -27 155 -3 45 -9 85 -13 87 -8 5 -220 52 -775 171 -564 120 -783 168 -1105 239 -309 67 -632 137 -855 185 -49 10 -223 48 -385 84 -162 36 -392 86 -510 110 -118 25 -298 63 -400 85 -102 22 -261 56 -355 76 -275 58 -709 153 -870 190 -334 77 -434 89 -536 61z m2733 -870 c165 -59 378 -142 578 -223 295 -121 330 -136 326 -140 -1 -2 -156 56 -342 128 -186 72 -401 153 -478 181 -127 45 -218 88 -189 88 6 0 53 -15 105 -34z m51 -192 c51 -19 112 -42 137 -51 58 -19 303 -115 913 -355 53 -21 74 -34 65 -39 -7 -5 -82 -9 -166 -9 l-154 0 -68 40 c-38 22 -79 44 -92 49 -20 8 -17 10 20 10 41 1 42 2 42 36 0 42 10 36 -210 120 -290 110 -370 140 -482 181 -60 21 -108 42 -108 46 0 12 3 11 103 -28z m-3 -255 l95 -26 -73 -13 c-57 -11 -83 -11 -126 -1 -48 11 -53 14 -49 34 10 46 12 49 35 41 13 -4 66 -20 118 -35z m307 -14 c63 -26 53 -30 -44 -19 -48 6 -53 9 -53 31 0 28 2 27 97 -12z m-430 -163 c8 -5 -2 -26 -30 -66 -39 -56 -73 -85 -63 -54 3 7 10 39 16 71 11 52 14 57 38 57 15 0 32 -4 39 -8z m243 -22 c0 -17 -70 -182 -113 -265 -31 -59 -66 -105 -134 -175 -86 -88 -93 -98 -93 -136 0 -52 13 -64 71 -64 41 0 54 5 96 41 108 93 178 201 284 437 39 87 74 161 78 165 5 5 18 7 30 5 20 -3 20 -6 -19 -122 -74 -219 -174 -396 -267 -474 -36 -31 -43 -42 -43 -73 0 -63 6 -69 70 -69 56 0 57 1 112 58 72 76 132 166 183 276 45 96 125 320 125 349 0 9 5 17 10 17 15 0 12 -28 -10 -116 -37 -147 -101 -285 -180 -389 -45 -59 -51 -72 -48 -109 3 -39 5 -41 37 -44 l34 -3 -54 -36 c-63 -43 -153 -73 -217 -73 -97 0 -392 56 -392 74 0 6 11 74 23 152 l23 141 85 84 c53 52 116 130 167 206 45 67 89 129 98 137 17 18 44 21 44 6z m1954 -347 c11 -414 27 -834 35 -908 8 -68 7 -72 -29 -144 l-37 -75 -7 125 c-4 68 -14 218 -22 333 -14 208 -14 209 -48 270 -75 133 -264 403 -339 484 -26 26 -38 32 -73 32 -51 0 -74 -20 -74 -63 1 -40 2 -42 127 -208 140 -186 263 -385 263 -423 0 -17 7 -143 15 -281 8 -137 15 -315 17 -395 2 -131 1 -151 -20 -203 -40 -103 -52 -226 -52 -538 0 -208 3 -288 12 -297 16 -16 105 -16 115 1 4 6 8 122 9 257 1 259 13 386 46 485 11 33 62 139 113 235 51 96 112 214 136 261 l42 86 57 -71 c64 -80 137 -150 197 -190 46 -31 41 -6 68 -306 l18 -185 -49 -51 c-84 -88 -134 -206 -134 -319 l0 -50 -122 -39 c-109 -35 -127 -44 -169 -86 -55 -55 -75 -119 -64 -205 6 -48 4 -58 -18 -87 -14 -18 -30 -51 -36 -73 -16 -57 -14 -158 4 -203 14 -34 14 -44 0 -97 -22 -85 -20 -179 6 -231 17 -36 19 -49 10 -81 -17 -58 -14 -186 5 -233 9 -23 15 -42 13 -44 -2 -1 -211 -72 -464 -156 -253 -84 -468 -157 -477 -161 -14 -8 -18 -3 -23 28 -36 212 -146 542 -269 812 -79 172 -86 181 -144 181 -46 0 -50 -2 -127 -81 -102 -103 -254 -218 -348 -264 -41 -19 -80 -35 -86 -35 -7 0 -58 33 -114 73 -56 40 -129 90 -162 112 -34 21 -72 54 -87 74 l-26 36 68 -3 c91 -5 110 12 110 97 0 80 -19 103 -91 109 -45 3 -59 0 -81 -18 -16 -12 -29 -31 -29 -43 -2 -41 -28 167 -44 351 -18 217 -20 774 -5 1119 15 317 39 725 43 729 2 2 44 -4 93 -13 54 -10 148 -16 239 -17 125 -1 158 2 200 18 152 58 289 193 416 408 25 42 30 45 77 51 68 8 147 43 177 79 21 25 25 40 25 99 0 43 -6 81 -15 99 l-16 30 84 0 c78 0 507 20 847 39 80 4 159 9 176 10 l31 1 7 -247z m-1273 91 c11 -14 10 -18 -6 -30 -25 -19 -39 -18 -31 2 3 9 6 22 6 30 0 19 14 18 31 -2z m1684 -739 c9 -27 28 -68 40 -90 16 -28 25 -64 29 -120 4 -44 9 -100 13 -125 6 -42 5 -44 -11 -30 -67 55 -157 211 -177 308 -13 62 1 137 43 234 l22 52 12 -89 c6 -50 19 -112 29 -140z m-2935 -600 c-12 -259 -12 -987 0 -1165 24 -344 53 -529 91 -582 10 -15 19 -31 19 -36 0 -8 -91 -63 -178 -106 l-52 -26 -149 120 c-141 113 -152 120 -194 120 -65 0 -71 -12 -63 -123 15 -202 56 -452 86 -532 6 -15 8 -30 5 -33 -7 -7 -327 139 -566 259 -172 87 -206 108 -272 169 -111 103 -170 199 -322 520 -48 102 -143 299 -211 439 -68 140 -124 255 -124 256 0 1 80 5 178 9 97 3 233 9 302 13 l124 6 -23 -34 c-35 -53 -126 -246 -150 -321 -15 -45 -21 -85 -19 -125 l3 -58 60 0 60 0 30 85 c17 47 45 114 63 150 31 64 32 64 28 25 -12 -102 -27 -377 -24 -435 l3 -65 50 -3 c28 -1 56 2 64 7 10 7 19 66 32 223 10 117 22 256 28 308 5 52 13 128 17 168 3 39 10 74 14 77 5 3 183 14 395 25 432 22 440 24 506 97 64 71 104 211 160 560 18 112 34 202 35 200 1 -1 -2 -88 -6 -192z m1185 -1865 c114 -264 217 -589 240 -756 8 -61 2 -75 -89 -209 l-60 -90 -7 45 c-26 169 -202 438 -484 738 -27 29 -51 56 -52 60 -1 4 33 24 76 44 85 41 180 110 274 198 34 32 63 57 64 56 1 -1 18 -40 38 -86z m-828 -120 c277 -205 562 -530 712 -812 l51 -95 1 -289 c1 -159 4 -300 8 -314 6 -22 14 -26 61 -31 131 -14 235 -120 297 -302 31 -91 41 -232 22 -297 l-14 -45 -3 50 c-3 45 -8 54 -53 96 -46 42 -49 48 -39 73 5 15 10 64 10 108 0 69 -4 88 -25 124 -31 53 -50 64 -112 64 -59 0 -73 -12 -73 -63 0 -30 8 -48 31 -75 25 -28 29 -40 24 -61 -4 -14 -9 -59 -12 -98 -4 -63 -1 -80 22 -130 14 -32 36 -69 48 -82 l22 -25 -31 25 c-45 35 -64 63 -98 148 l-32 76 -86 3 c-115 4 -118 0 -118 -127 0 -178 -31 -269 -122 -362 -80 -82 -91 -125 -87 -335 l4 -166 -28 -24 c-50 -43 -118 -34 -518 66 -134 34 -286 70 -338 81 -116 24 -255 25 -372 2 -69 -13 -91 -14 -102 -5 -32 27 -73 278 -60 369 3 24 6 43 7 43 0 0 23 -7 50 -15 29 -9 89 -15 147 -15 121 0 192 23 240 77 50 58 59 90 59 216 0 103 -4 131 -46 293 -67 258 -70 272 -58 292 21 33 79 38 173 14 157 -40 191 -30 191 57 0 36 -4 44 -32 61 -49 30 -156 50 -265 50 -119 0 -176 -22 -206 -80 -26 -50 -18 -201 18 -335 48 -177 74 -289 80 -335 12 -91 -58 -156 -165 -154 -58 2 -160 35 -180 60 -10 11 -11 62 -6 212 16 453 51 628 176 887 170 349 356 505 604 505 195 0 381 -94 579 -292 93 -93 100 -98 140 -98 55 0 67 13 67 71 0 43 -5 55 -48 106 -128 153 -306 279 -530 374 -70 30 -122 44 -205 56 -62 9 -113 17 -114 18 -2 1 12 46 31 101 38 113 91 223 148 306 l39 58 27 -17 c15 -9 55 -38 89 -63z m-589 -57 c38 -27 56 -33 100 -33 29 0 63 5 74 11 18 10 20 9 13 -7 -41 -103 -62 -169 -89 -288 -40 -170 -54 -184 -92 -99 -44 99 -82 223 -108 354 -35 169 -35 168 15 127 22 -18 62 -48 87 -65z m1702 -2148 c0 -13 -56 -25 -84 -18 -29 7 -27 8 24 14 30 3 56 6 58 7 1 1 2 0 2 -3z"></path><path id="pKYAbTWUT" d="M4477 3160 c-32 -5 -70 -15 -85 -22 -24 -12 -27 -19 -30 -71 -3 -53 -1 -58 23 -69 20 -9 39 -9 83 0 32 7 86 15 122 18 36 4 71 11 78 17 6 5 12 29 12 53 0 35 -5 47 -24 59 -30 20 -105 26 -179 15z"></path><path id="pD7AM3WNO" d="M4342 2950 c-24 -5 -60 -17 -80 -27 -33 -16 -37 -23 -40 -60 -5 -65 10 -83 66 -83 26 1 74 7 107 15 118 29 243 15 364 -41 77 -35 112 -41 155 -24 24 9 26 15 26 65 0 55 0 56 -47 86 -91 57 -160 72 -343 75 -91 2 -185 -1 -208 -6z"></path><path id="potqCZ19l" d="M4020 2140 c-26 -26 -34 -60 -28 -122 7 -68 31 -88 104 -88 34 0 64 6 79 16 23 15 25 23 25 89 0 63 -3 76 -25 99 -20 22 -32 26 -80 26 -41 0 -60 -5 -75 -20z"></path><path id="p1EDxrpzQ3" d="M4825 2139 c-36 -22 -44 -43 -45 -110 0 -96 17 -114 104 -114 88 0 108 19 114 108 4 56 1 67 -20 92 -20 23 -34 29 -79 32 -31 2 -62 -2 -74 -8z"></path><path id="pigN00PoH" d="M5045 1809 c-102 -39 -205 -48 -291 -25 -73 19 -155 21 -172 4 -19 -19 -15 -102 6 -120 44 -39 121 -53 282 -53 169 1 218 12 308 69 41 26 42 28 42 81 0 43 -4 56 -19 65 -31 16 -71 11 -156 -21z"></path><path id="p17ocYRK1m" d="M2613 7056 c-67 -32 -139 -106 -172 -176 -19 -42 -26 -76 -29 -145 -5 -105 7 -156 47 -212 44 -60 89 -78 196 -78 106 1 149 19 222 91 66 67 95 138 101 248 5 105 -6 157 -47 213 -40 55 -89 77 -186 81 -69 2 -87 -1 -132 -22z"></path></g></g><g id="l41EZPhUcvkANH5EqH0fugR" fill="rgb(104,27,5)" style="transform: none;"><g style="transform: none;"><path id="pnPOR1g7z" d="M2257 9213 c-18 -17 -5 -33 28 -33 28 0 35 4 35 20 0 15 -7 20 -28 20 -16 0 -32 -3 -35 -7z"></path><path id="p1AmI315Xv" d="M2920 9080 c0 -16 7 -20 35 -20 37 0 49 22 19 34 -32 12 -54 6 -54 -14z"></path><path id="p1BkgUbKPW" d="M3190 9020 c0 -16 7 -20 35 -20 37 0 49 22 19 34 -32 12 -54 6 -54 -14z"></path><path id="pRWdi8JFO" d="M1964 8979 c-8 -17 -22 -49 -29 -70 -14 -38 -14 -39 10 -39 22 0 25 5 25 35 0 24 5 35 15 35 10 0 15 11 15 35 0 43 -14 45 -36 4z"></path><path id="pjV0DhOnX" d="M3330 8990 c0 -16 7 -20 35 -20 37 0 49 22 19 34 -32 12 -54 6 -54 -14z"></path><path id="pOV8mCtQx" d="M3560 8944 c0 -21 5 -24 36 -24 28 0 35 4 32 17 -2 10 -16 20 -36 24 -29 6 -32 4 -32 -17z"></path><path id="p63BTSD8c" d="M4040 8840 c0 -16 7 -20 35 -20 37 0 49 22 19 34 -32 12 -54 6 -54 -14z"></path><path id="pvQ53qtpO" d="M1901 8808 c-6 -24 -19 -73 -30 -110 l-20 -68 25 0 c21 0 24 5 24 35 0 19 3 35 8 35 11 0 32 75 32 115 0 50 -25 45 -39 -7z"></path><path id="pngHdOVbn" d="M4460 8750 c0 -16 7 -20 35 -20 40 0 49 24 13 34 -38 10 -48 7 -48 -14z"></path><path id="pdJNyazV2" d="M4640 8710 c0 -16 7 -20 35 -20 37 0 49 22 19 34 -32 12 -54 6 -54 -14z"></path><path id="p10m1UUBo2" d="M4960 8640 c0 -16 7 -20 35 -20 37 0 49 22 19 34 -32 12 -54 6 -54 -14z"></path><path id="pAoTpY4lD" d="M1836 8578 c-10 -38 -7 -48 14 -48 16 0 20 7 20 35 0 40 -24 49 -34 13z"></path><path id="p16Fnc0tbI" d="M5410 8540 c0 -16 7 -20 35 -20 37 0 49 22 19 34 -32 12 -54 6 -54 -14z"></path><path id="pVuM4LPm1" d="M5970 8420 c0 -17 7 -20 40 -20 45 0 57 23 18 34 -42 11 -58 7 -58 -14z"></path><path id="pn17Lm4KC" d="M6700 8264 c0 -21 4 -24 40 -24 27 0 40 4 40 14 0 8 -18 18 -40 24 -38 9 -40 9 -40 -14z"></path><path id="pXZRpEl2C" d="M7300 8129 c0 -28 2 -29 45 -29 38 0 45 3 45 20 0 11 -3 20 -7 20 -5 0 -25 4 -45 9 -37 9 -38 8 -38 -20z"></path><path id="p9yhQGfFz" d="M7400 8110 c0 -16 7 -20 35 -20 37 0 49 22 19 34 -32 12 -54 6 -54 -14z"></path><path id="p1HBxrG7qf" d="M8280 7255 c0 -33 2 -35 35 -35 33 0 35 2 35 35 0 33 -2 35 -35 35 -33 0 -35 -2 -35 -35z"></path><path id="p7AHf1YCy" d="M9370 7221 c0 -45 3 -51 21 -51 18 0 20 5 17 47 -2 36 -7 49 -20 51 -15 3 -18 -4 -18 -47z"></path><path id="pNY1SfuDG" d="M900 7206 c0 -17 22 -26 61 -26 22 0 29 5 29 20 0 17 -7 20 -45 20 -32 0 -45 -4 -45 -14z"></path><path id="pC12HZAAq" d="M8520 7136 c0 -33 2 -35 50 -45 28 -6 64 -11 80 -11 27 0 30 3 30 33 0 32 -1 33 -58 45 -94 19 -102 18 -102 -22z"></path><path id="p15O28dihm" d="M865 6880 c-33 -10 -132 -39 -220 -65 -234 -68 -289 -85 -302 -93 -8 -5 -3 -39 22 -127 37 -136 88 -330 169 -650 31 -121 61 -228 67 -238 5 -10 7 -22 4 -27 -3 -5 -1 -11 4 -15 19 -11 29 16 101 290 58 218 117 437 174 645 31 113 59 226 62 253 8 55 8 54 -81 27z"></path><path id="pJXj4ITC" d="M9130 6415 c0 -45 24 -47 39 -4 14 41 15 39 -14 39 -22 0 -25 -4 -25 -35z"></path><path id="p15yP7okLp" d="M9070 6240 c0 -16 -4 -30 -10 -30 -5 0 -10 -16 -10 -35 0 -54 25 -44 46 18 9 28 19 58 22 65 2 7 -5 12 -22 12 -22 0 -26 -4 -26 -30z"></path><path id="p1CJUiWHZ2" d="M9020 6080 c0 -16 -4 -30 -10 -30 -5 0 -10 -13 -10 -30 0 -16 -4 -30 -10 -30 -5 0 -10 -18 -10 -40 0 -45 23 -57 34 -17 3 12 17 57 30 100 l24 77 -24 0 c-20 0 -24 -5 -24 -30z"></path><path id="pKzkR2EYs" d="M2180 5339 c-117 -7 -342 -17 -845 -39 -116 -5 -303 -12 -416 -16 l-206 -7 4 -36 c2 -20 12 -65 23 -101 10 -36 53 -195 96 -355 75 -285 76 -291 65 -347 -8 -41 -9 -64 -1 -77 5 -11 10 -29 10 -40 0 -27 20 -38 35 -18 13 19 23 -16 190 -658 46 -181 107 -415 135 -520 93 -353 160 -617 160 -631 0 -8 -6 -11 -15 -8 -10 4 -15 0 -15 -15 0 -15 10 -23 43 -32 58 -15 176 -70 234 -109 108 -73 213 -194 213 -245 0 -15 11 -41 24 -58 36 -48 65 -110 72 -156 l7 -41 51 -2 51 -2 -48 -3 -48 -4 6 -77 c8 -92 -11 -197 -56 -310 -29 -73 -106 -203 -128 -216 -6 -4 -11 -18 -11 -31 0 -18 4 -23 15 -19 9 4 15 0 15 -8 0 -14 67 -273 159 -613 22 -82 45 -169 51 -192 13 -52 14 -52 140 -14 52 16 331 99 620 186 289 86 612 183 718 215 107 32 195 60 197 62 2 2 -12 36 -32 76 -38 79 -60 189 -49 247 8 39 60 105 83 105 11 0 14 7 9 24 -3 13 -9 69 -12 124 l-7 100 -141 27 c-151 28 -172 33 -164 40 3 3 58 -6 123 -20 66 -14 136 -25 156 -25 36 0 37 1 44 48 4 26 18 88 31 139 21 80 24 123 29 320 6 289 21 458 51 603 67 318 184 551 388 774 20 22 36 45 36 51 0 28 -70 71 -245 151 -644 291 -781 368 -895 505 -95 115 -108 137 -278 489 -44 91 -123 255 -177 365 -54 110 -117 245 -141 300 l-43 100 -93 1 c-51 0 -149 -3 -218 -7z m-10 -3529 c20 -6 21 -8 5 -8 -11 0 -31 4 -45 8 -20 6 -21 8 -5 8 11 0 31 -4 45 -8z m391 -81 c57 -12 106 -23 109 -26 8 -8 -94 8 -171 27 -103 25 -63 24 62 -1z m184 -39 l30 -8 -30 0 c-16 0 -39 3 -50 8 l-20 9 20 -1 c11 0 34 -4 50 -8z m135 -29 c41 -11 66 -20 55 -20 -24 -1 -167 37 -145 38 8 0 49 -8 90 -18z m235 -51 c46 -13 56 -18 29 -14 -46 6 -137 32 -114 33 8 0 47 -8 85 -19z m195 -40 l25 -8 -25 0 c-14 0 -34 3 -45 8 l-20 9 20 -1 c11 0 31 -4 45 -8z"></path><path id="p6gGaQWyi" d="M8670 5005 c0 -24 5 -35 14 -35 17 0 21 5 30 43 6 24 4 27 -19 27 -22 0 -25 -4 -25 -35z"></path><path id="piNRn6MyL" d="M8625 4350 c-3 -5 -9 -41 -12 -80 -6 -67 -5 -70 16 -70 16 0 21 6 21 28 0 15 3 51 6 80 6 43 4 52 -9 52 -9 0 -19 -4 -22 -10z"></path><path id="pGxhgj8Or" d="M852 4250 l-20 -80 24 0 c21 0 24 5 24 40 0 22 5 40 10 40 6 0 10 18 10 40 0 70 -25 49 -48 -40z"></path><path id="pMOlJIJFd" d="M8411 4203 c-36 -165 -36 -183 0 -183 12 0 19 -7 19 -18 0 -33 42 -62 88 -62 23 0 42 3 42 8 0 4 -32 39 -70 77 -75 74 -78 84 -52 148 25 59 26 77 4 77 -16 0 -22 -10 -31 -47z"></path><path id="p14giZhNDs" d="M8613 4118 c7 -99 26 -168 44 -168 13 0 14 10 9 58 -4 31 -9 85 -13 120 -5 54 -8 62 -26 62 -19 0 -20 -5 -14 -72z"></path><path id="p11FzB4aNh" d="M8655 3923 c4 -10 10 -26 12 -35 10 -33 33 -20 33 17 0 31 -3 35 -26 35 -21 0 -25 -3 -19 -17z"></path><path id="p1DRctnpXt" d="M770 3927 c0 -1 -4 -17 -9 -35 -9 -30 -8 -32 15 -32 21 0 24 5 24 35 0 24 -5 35 -15 35 -8 0 -15 -1 -15 -3z"></path><path id="pbZXWyCBo" d="M730 3767 c0 -1 -4 -17 -9 -35 -9 -30 -8 -32 15 -32 21 0 24 5 24 35 0 24 -5 35 -15 35 -8 0 -15 -1 -15 -3z"></path><path id="pZVcfZmPQ" d="M9080 3506 c0 -8 14 -19 31 -25 41 -14 39 -15 39 14 0 22 -4 25 -35 25 -23 0 -35 -5 -35 -14z"></path><path id="pm3oxpTxK" d="M576 3168 c-10 -38 -7 -48 14 -48 16 0 20 7 20 35 0 40 -24 49 -34 13z"></path><path id="pg8neQm4f" d="M546 3048 c-10 -38 -7 -48 14 -48 16 0 20 7 20 35 0 40 -24 49 -34 13z"></path><path id="pWNaON7Vl" d="M501 2873 c-15 -53 -14 -63 8 -63 20 0 31 25 31 73 0 41 -27 34 -39 -10z"></path><path id="p17fLDchXZ" d="M8460 2214 c0 -21 3 -25 18 -19 9 4 25 10 35 12 32 10 19 33 -18 33 -31 0 -35 -3 -35 -26z"></path><path id="pJDnlyd3M" d="M7610 1934 c0 -20 4 -25 16 -20 9 3 27 9 40 12 40 10 29 34 -16 34 -36 0 -40 -2 -40 -26z"></path><path id="ptpao196d" d="M6800 1675 c0 -23 3 -25 28 -19 37 9 42 13 42 30 0 9 -11 14 -35 14 -31 0 -35 -3 -35 -25z"></path><path id="phnQ0J9DC" d="M6270 1504 c0 -20 4 -25 16 -20 9 3 27 9 40 12 40 10 29 34 -16 34 -36 0 -40 -2 -40 -26z"></path><path id="pfXkxEJdt" d="M1560 1015 c0 -29 2 -30 40 -10 40 21 38 35 -5 35 -31 0 -35 -3 -35 -25z"></path><path id="p1D9I1HRXv" d="M1388 983 c-34 -5 -40 -43 -7 -43 41 0 109 23 109 36 0 14 -39 17 -102 7z"></path><path id="paLNiI96q" d="M1100 966 c0 -15 21 -26 51 -26 12 0 19 7 19 20 0 16 -7 20 -35 20 -23 0 -35 -5 -35 -14z"></path><path id="pwe7RVMHP" d="M8590 564 c0 -20 4 -25 16 -20 9 3 27 9 40 12 40 10 29 34 -16 34 -36 0 -40 -2 -40 -26z"></path></g></g><g id="lOpgUrFXIisRS72pEfjFIF" fill="rgb(132,37,8)" style="transform: none;"><g style="transform: none;"><path id="pN9Bzy5WN" d="M2225 9205 c-143 -43 -248 -158 -299 -330 -10 -33 -22 -73 -27 -90 -6 -16 -12 -38 -14 -48 -2 -9 -6 -21 -9 -25 -3 -5 -7 -19 -10 -33 -3 -13 -17 -66 -31 -118 -27 -95 -27 -121 -1 -121 14 0 26 29 40 91 3 15 15 29 26 32 13 3 20 13 20 29 0 13 4 28 9 34 18 18 23 72 8 85 -13 13 -12 59 3 59 4 0 15 34 25 76 10 41 24 81 31 89 8 7 14 16 14 20 0 4 7 13 15 22 9 8 19 28 22 44 3 16 10 29 15 29 11 0 72 42 76 53 4 9 48 32 80 41 15 5 22 3 22 -6 0 -12 11 -12 59 -4 66 11 159 -4 441 -70 151 -35 573 -127 865 -189 94 -20 253 -54 355 -76 102 -22 282 -60 400 -85 118 -24 348 -74 510 -110 162 -36 336 -74 385 -84 223 -48 546 -118 855 -185 322 -71 541 -119 1105 -239 581 -125 767 -166 777 -172 4 -3 8 -12 8 -20 0 -8 7 -14 15 -14 11 0 15 12 15 50 0 28 5 50 10 50 6 0 10 10 10 22 0 27 36 131 61 176 11 18 19 39 19 47 0 8 5 15 10 15 6 0 10 7 10 15 0 8 5 15 10 15 6 0 10 6 10 14 0 8 7 16 15 20 10 3 15 19 15 47 0 38 -2 40 -17 28 -56 -46 -154 -242 -169 -341 -8 -49 17 -50 -311 21 -127 28 -247 54 -265 58 -18 4 -49 7 -68 6 -19 0 -38 4 -41 10 -6 8 -385 95 -554 127 -27 5 -183 39 -345 75 -162 36 -326 72 -365 80 -38 7 -184 38 -322 69 -139 30 -265 57 -280 60 -16 3 -117 25 -226 50 -110 25 -211 47 -225 50 -15 2 -85 18 -157 34 -71 17 -143 33 -160 36 -16 2 -82 16 -145 30 -63 14 -187 41 -275 60 -88 19 -171 37 -185 40 -14 2 -122 25 -240 51 -118 26 -226 48 -240 50 -14 3 -63 13 -110 24 -47 10 -98 21 -115 24 -16 3 -50 10 -75 15 -25 6 -56 13 -70 16 -14 2 -74 16 -135 30 -60 14 -121 27 -135 30 -14 3 -148 32 -299 66 -287 63 -360 71 -446 45z"></path><path id="pVMikCppc" d="M1050 8638 c0 -20 6 -27 28 -31 15 -4 50 -11 77 -17 28 -6 67 -14 88 -17 20 -3 37 -9 37 -14 0 -10 77 -49 97 -49 7 0 13 -4 13 -10 0 -5 6 -10 14 -10 8 0 16 -7 20 -15 3 -8 12 -15 21 -15 8 0 15 -4 15 -10 0 -5 20 -10 45 -10 25 0 45 5 45 10 0 16 -118 98 -194 135 -78 37 -161 61 -248 71 -57 7 -58 6 -58 -18z"></path><path id="p498uevr3" d="M8662 8649 c-35 -4 -87 -16 -115 -25 -107 -35 -267 -125 -267 -151 0 -20 58 -15 89 6 15 11 53 31 84 45 31 14 57 29 57 34 0 6 17 12 38 15 20 3 64 11 97 18 94 20 178 15 310 -20 22 -6 57 -11 78 -11 29 0 37 4 37 19 0 24 -105 58 -221 71 -93 11 -98 11 -187 -1z"></path><path id="pmd3iZFDy" d="M868 8643 c-10 -2 -18 -13 -18 -24 0 -16 7 -19 40 -19 36 0 40 3 40 25 0 25 -16 30 -62 18z"></path><path id="psYeFqt9c" d="M778 8614 c-44 -23 -36 -46 15 -42 38 3 42 6 45 31 4 32 -16 35 -60 11z"></path><path id="prVXT1eTv" d="M693 8574 c-44 -22 -43 -44 2 -44 32 0 35 2 35 30 0 17 -1 30 -2 30 -2 0 -18 -8 -35 -16z"></path><path id="p12LiNYMUr" d="M9190 8487 c0 -42 26 -67 68 -67 29 0 32 -3 32 -30 0 -29 2 -30 45 -30 l46 0 -23 31 c-28 37 -138 129 -155 129 -8 0 -13 -13 -13 -33z"></path><path id="pyT7FGN5E" d="M4620 8339 c-36 -5 -84 -11 -107 -14 -34 -5 -43 -10 -43 -26 0 -10 -7 -19 -15 -19 -8 0 -15 9 -15 20 0 16 -5 19 -23 15 -13 -4 -45 -8 -73 -9 -104 -7 -463 -43 -659 -66 -44 -6 -105 -12 -135 -15 -64 -6 -254 -26 -575 -60 -484 -52 -601 -65 -635 -70 -43 -6 -446 -43 -515 -47 -40 -2 -50 1 -53 15 -5 25 -31 21 -36 -5 -3 -13 -7 -63 -10 -113 -6 -107 -45 -266 -81 -333 -38 -71 -134 -186 -204 -248 -65 -56 -141 -97 -271 -144 -41 -15 -76 -33 -78 -40 -3 -8 0 -10 7 -6 17 11 14 -5 -33 -189 -36 -139 -265 -1005 -283 -1067 -4 -15 1 -18 28 -18 31 0 35 4 47 40 6 22 12 53 12 69 0 31 14 41 60 41 44 0 60 10 60 38 0 20 3 23 12 14 7 -7 20 -12 31 -12 10 0 25 -7 33 -15 10 -9 34 -15 65 -15 48 0 49 1 49 30 0 17 5 30 10 30 6 0 10 15 10 33 l0 34 -85 13 c-81 13 -86 12 -99 -6 -12 -15 -18 -17 -37 -7 -13 6 -31 14 -39 16 -8 3 -3 6 12 6 14 1 28 5 30 10 5 14 168 25 168 12 0 -14 132 -15 145 -2 6 6 31 6 63 0 80 -15 93 -10 108 36 l12 40 1 -37 c1 -36 3 -38 35 -38 19 0 36 4 38 8 2 5 18 12 36 15 30 6 32 5 32 -23 0 -27 -3 -30 -30 -30 -28 0 -30 -3 -30 -35 0 -22 6 -38 15 -41 8 -4 15 -17 15 -30 0 -21 4 -24 40 -24 38 0 40 2 40 31 0 26 3 30 23 27 15 -2 25 -13 31 -35 l10 -31 228 0 c126 0 232 -3 235 -6 4 -3 -8 -6 -25 -6 -22 0 -32 -5 -32 -15 0 -11 -12 -15 -45 -15 -45 0 -45 0 -45 -35 0 -24 5 -35 15 -35 8 0 15 -9 15 -20 0 -16 7 -20 35 -20 28 0 35 4 35 20 0 18 7 20 60 20 52 0 60 -2 60 -19 0 -20 -3 -19 180 -34 22 -2 25 -7 28 -44 3 -42 4 -43 38 -43 30 0 34 3 34 25 0 23 4 25 45 25 33 0 45 4 45 15 0 8 7 15 15 15 10 0 15 -11 15 -35 0 -34 1 -35 40 -35 38 0 40 2 40 29 0 39 11 42 170 46 l130 3 0 -29 c0 -26 3 -29 35 -29 31 0 35 3 35 25 0 25 0 25 103 27 56 1 152 2 212 3 106 0 110 1 113 23 4 28 32 29 32 1 0 -19 5 -21 73 -17 l72 3 3 -32 c3 -30 6 -33 38 -33 30 0 34 3 34 25 0 27 7 29 91 25 26 -1 50 3 53 9 4 6 20 11 36 11 19 0 30 6 33 18 4 13 5 12 6 -4 1 -24 19 -34 62 -34 27 0 29 -2 29 -40 0 -33 -4 -42 -25 -52 -19 -9 -25 -19 -25 -45 0 -18 5 -33 10 -33 6 0 10 -18 10 -40 0 -33 -3 -40 -20 -40 -17 0 -20 -7 -20 -45 0 -34 5 -47 20 -55 11 -6 20 -17 20 -25 0 -31 153 -12 194 23 26 24 59 93 49 103 -4 4 -26 9 -48 11 -35 3 -40 6 -43 31 -3 23 -8 27 -33 27 -28 0 -29 1 -29 52 0 40 3 49 12 40 7 -7 20 -12 30 -12 10 0 18 -7 18 -15 0 -8 6 -15 14 -15 16 0 17 2 51 210 33 201 95 546 151 835 24 127 59 318 79 425 20 107 44 240 55 295 11 55 36 183 55 285 20 102 42 210 50 240 7 30 16 72 19 93 7 35 27 50 40 28 3 -4 -5 -62 -19 -127 -24 -120 -70 -361 -165 -879 -28 -154 -62 -336 -75 -405 -13 -69 -29 -154 -35 -190 -12 -72 -33 -185 -57 -300 -23 -118 -83 -499 -83 -531 0 -22 5 -29 19 -29 11 0 22 3 24 8 6 9 63 320 122 662 65 378 224 1221 295 1570 42 207 46 249 25 291 -20 40 -84 110 -100 108 -5 -1 -39 -5 -75 -10z m-1786 -1314 c45 -22 92 -82 107 -139 6 -23 9 -69 5 -104 -15 -166 -146 -304 -291 -306 -107 -1 -180 58 -209 172 -26 97 13 218 99 306 88 91 193 117 289 71z m751 -975 c-3 -5 -23 -10 -43 -10 -28 0 -33 3 -22 10 20 13 73 13 65 0z m405 -6 c0 -2 -13 -4 -30 -4 -16 0 -30 4 -30 8 0 5 14 7 30 4 17 -2 30 -6 30 -8z"></path><path id="p14TORir6K" d="M4828 8343 c-41 -5 -43 -6 -28 -33 14 -27 67 -54 182 -95 171 -62 927 -354 1013 -392 44 -20 121 -53 170 -73 50 -21 107 -45 128 -54 l37 -16 0 32 c0 38 -11 46 -189 133 -294 144 -1206 509 -1259 503 -10 -1 -34 -3 -54 -5z"></path><path id="pgv7uxTSa" d="M9403 8293 c-7 -2 -13 -20 -13 -39 0 -33 1 -34 40 -34 l40 0 -20 40 c-20 40 -24 43 -47 33z"></path><path id="pMfRJ8kaR" d="M4885 8157 c-16 -70 -20 -66 110 -114 313 -114 667 -251 679 -263 17 -17 -49 -12 -136 11 -44 11 -157 51 -252 88 -153 61 -387 141 -414 141 -15 0 -23 -43 -9 -52 7 -4 57 -21 112 -38 143 -44 215 -71 215 -81 0 -16 -48 -9 -167 25 -180 51 -181 52 -188 24 -25 -111 -25 -108 3 -119 15 -6 48 -13 75 -16 26 -3 47 -10 47 -14 0 -14 24 -11 61 8 61 32 292 23 454 -16 112 -27 155 -44 235 -91 l70 -41 192 2 c213 1 273 7 273 28 0 16 -52 39 -425 186 -480 189 -540 213 -640 249 -52 19 -139 50 -192 70 l-98 36 -5 -23z"></path><path id="pES8rd7qG" d="M9491 8041 c-11 -7 -12 -24 -6 -77 7 -70 15 -84 49 -84 17 0 18 6 12 63 -12 108 -19 120 -55 98z"></path><path id="pQEez0F4j" d="M9480 7770 c0 -39 -51 -193 -67 -203 -7 -4 -13 -13 -13 -20 0 -7 -9 -23 -20 -37 -11 -14 -20 -32 -20 -41 0 -9 -7 -19 -15 -23 -9 -3 -15 -18 -15 -35 0 -21 -6 -32 -21 -36 -12 -4 -46 -29 -76 -57 -107 -96 -241 -165 -370 -188 -40 -7 -73 -15 -73 -18 0 -3 11 -28 24 -56 77 -163 95 -520 40 -791 -9 -44 -58 -233 -109 -420 -171 -627 -197 -747 -270 -1260 -34 -239 -69 -429 -110 -600 -49 -201 -56 -257 -55 -443 0 -184 4 -217 49 -406 38 -158 39 -198 6 -241 -34 -46 -94 -60 -166 -39 -151 44 -251 149 -305 318 -31 97 -40 243 -26 391 5 55 9 101 8 101 0 1 -89 4 -196 8 -107 4 -220 11 -250 16 -148 25 -150 25 -261 -15 -57 -20 -113 -41 -124 -45 -11 -5 -225 -77 -475 -160 -264 -88 -460 -159 -468 -168 -7 -9 -42 -64 -77 -122 -75 -122 -131 -191 -186 -227 l-40 -26 3 -145 3 -145 42 -12 c151 -45 283 -210 332 -415 37 -154 25 -333 -27 -407 -14 -20 -17 -34 -11 -50 8 -21 43 -186 54 -256 6 -36 8 -38 33 -32 15 4 41 12 57 19 17 7 136 46 265 86 129 40 246 77 260 82 14 6 32 12 40 13 8 1 143 44 300 94 157 51 328 106 380 123 52 17 99 34 104 39 6 5 19 9 31 9 12 0 88 23 169 50 81 28 151 50 154 50 3 0 -14 -13 -39 -28 -77 -50 -198 -182 -240 -264 l-19 -38 28 0 c20 0 32 8 45 29 9 16 17 36 17 45 0 9 6 16 13 16 20 0 47 33 47 58 0 15 6 22 19 22 10 0 41 18 67 40 27 22 52 40 56 40 5 0 8 9 8 21 0 12 8 23 20 26 11 3 20 8 20 12 0 13 146 61 187 61 16 0 34 5 41 12 9 9 12 9 12 -1 0 -9 25 -12 98 -10 101 1 238 -16 259 -33 6 -5 37 -12 67 -15 45 -5 56 -9 56 -23 0 -22 20 -30 71 -30 66 0 48 25 -55 75 -121 59 -252 88 -383 83 -51 -2 -93 0 -93 4 0 5 94 37 163 53 15 4 30 11 33 16 3 5 13 9 22 9 36 0 1262 415 1262 427 0 26 -75 12 -264 -48 -105 -33 -204 -67 -221 -74 -16 -7 -124 -43 -240 -79 -115 -37 -237 -78 -270 -92 -33 -13 -80 -28 -105 -33 -39 -9 -102 -29 -175 -56 -16 -7 -18 -6 -7 6 6 7 12 26 12 41 0 27 2 28 54 28 63 0 86 7 86 26 0 12 10 15 108 30 59 8 72 14 72 33 0 14 10 20 41 24 23 3 45 9 48 14 7 10 78 43 91 43 6 0 10 -7 10 -15 0 -23 66 -19 90 5 12 12 33 20 55 20 34 0 35 1 35 38 l0 38 114 -4 114 -4 7 58 c9 68 29 114 50 114 10 0 15 11 15 33 0 62 9 77 46 77 29 0 46 -12 116 -80 77 -74 86 -80 126 -80 23 0 42 4 42 9 0 4 -125 129 -277 277 -153 148 -341 331 -418 407 -137 134 -139 137 -91 117 27 -11 56 -22 65 -23 9 -1 21 -5 26 -9 6 -3 35 -11 65 -16 141 -28 282 -22 288 10 3 16 -7 18 -100 16 -102 -2 -258 18 -258 34 0 4 -9 8 -20 8 -12 0 -30 9 -42 20 -13 12 -36 20 -55 20 -44 0 -92 33 -162 112 -76 86 -131 171 -131 203 0 14 -8 45 -19 68 -10 23 -22 63 -25 90 -6 37 -11 47 -26 47 -16 0 -19 -7 -18 -35 1 -20 5 -38 10 -41 4 -3 8 -17 8 -31 0 -23 17 -70 42 -116 22 -42 -7 -27 -75 40 -40 39 -78 68 -85 66 -19 -7 -66 38 -50 48 18 11 -8 38 -31 32 -9 -2 -23 3 -30 11 -10 12 -11 16 -1 16 8 0 11 9 8 25 -3 14 -1 25 5 25 6 0 7 3 4 7 -4 3 -3 11 2 17 14 18 22 48 11 41 -6 -3 -10 1 -10 9 0 9 6 16 13 16 10 0 261 740 262 774 0 6 3 16 6 21 8 13 139 412 229 700 40 127 76 238 81 247 5 10 9 25 9 33 0 8 4 23 9 33 11 21 42 115 45 136 1 9 5 19 9 22 4 4 7 17 7 29 0 11 4 25 9 30 8 9 51 132 55 158 1 7 4 17 7 22 6 10 148 445 200 614 29 92 41 185 31 237 -2 13 -17 38 -32 54 l-28 30 39 48 c72 85 159 288 159 369 0 19 -5 23 -30 23 -27 0 -30 -3 -30 -30z m-1225 -5570 c10 -16 -61 -41 -143 -52 -53 -7 -86 -16 -89 -24 -3 -8 -14 -14 -24 -14 -11 0 -22 -6 -25 -14 -3 -7 -31 -22 -62 -31 -31 -10 -73 -26 -92 -35 -19 -10 -71 -28 -115 -41 -44 -12 -82 -26 -85 -29 -3 -3 -25 -11 -50 -17 -89 -22 -165 -43 -185 -53 -42 -20 -131 -50 -148 -50 -9 0 -72 -20 -140 -44 -67 -25 -159 -55 -204 -67 -46 -13 -83 -26 -83 -31 0 -4 -12 -8 -27 -8 -16 0 -41 -7 -57 -15 -47 -25 -56 -20 -56 29 l0 45 56 7 c69 8 94 27 94 71 0 30 3 33 30 33 24 0 30 4 31 23 0 12 3 16 6 10 2 -7 20 -13 39 -13 27 0 34 4 34 20 0 14 9 21 35 26 23 4 35 12 35 23 0 28 50 39 193 43 106 4 141 8 148 19 7 11 9 11 9 -3 0 -15 9 -18 45 -18 45 0 45 0 45 35 l0 35 63 1 c34 0 83 4 110 8 26 4 47 4 47 -1 0 -4 20 -8 45 -8 44 0 45 1 45 33 0 46 8 52 68 53 41 2 57 7 72 24 11 13 20 27 20 31 0 9 208 17 273 10 20 -2 39 -7 42 -11z m-1451 -332 c6 -4 -2 -7 -19 -7 -16 0 -24 3 -17 6 6 2 12 12 13 21 0 14 2 14 6 2 3 -8 11 -18 17 -22z"></path><path id="pbB1vMpWE" d="M4795 7707 c-3 -6 -12 -46 -21 -87 -9 -41 -19 -85 -21 -98 -5 -22 -3 -23 43 -20 l48 3 63 90 63 90 -72 12 c-39 7 -78 15 -85 17 -8 3 -16 0 -18 -7z"></path><path id="p8QBqA83m" d="M8040 7645 l10 -25 -64 0 c-57 0 -180 -7 -446 -25 -41 -2 -136 -7 -210 -11 -74 -3 -137 -8 -139 -10 -5 -4 19 -933 25 -961 3 -16 12 -23 27 -23 20 0 23 4 19 36 -7 56 25 170 76 274 37 76 62 110 124 173 42 42 83 77 91 77 7 0 31 25 51 55 49 71 153 168 241 226 84 55 222 122 235 114 11 -7 13 32 4 88 -6 30 -11 37 -30 37 -21 0 -22 -3 -14 -25z"></path><path id="pzdEsJ4Lb" d="M8113 7475 c-30 -33 -8 -77 87 -179 34 -36 66 -66 72 -66 5 0 19 -9 31 -21 59 -56 233 -124 345 -135 64 -6 72 -5 66 10 -4 12 0 16 15 16 14 0 21 6 21 19 0 15 -10 20 -52 26 -183 25 -372 133 -479 274 -55 71 -81 85 -106 56z"></path><path id="pF48tNBAr" d="M770 7236 c0 -8 24 -20 58 -30 74 -20 82 -20 82 3 0 14 -12 22 -44 30 -61 15 -96 14 -96 -3z"></path><path id="pUcHchhju" d="M350 6688 c0 -7 4 -19 9 -26 6 -10 10 -7 13 12 4 18 1 26 -8 26 -8 0 -14 -6 -14 -12z"></path><path id="p12Z2gJSmU" d="M7220 6513 c0 -27 5 -55 10 -63 16 -24 30 6 30 63 0 40 -3 47 -20 47 -17 0 -20 -7 -20 -47z"></path><path id="pweEI8dl1" d="M1803 6033 c-28 -3 -43 -10 -46 -21 -4 -16 -5 -15 -6 1 -1 13 -10 17 -36 17 -34 0 -35 -1 -35 -40 0 -39 1 -40 35 -40 24 0 35 -5 35 -15 0 -10 10 -15 34 -15 26 0 35 5 41 23 8 21 8 21 12 -5 4 -25 8 -28 44 -28 32 0 39 3 39 20 0 16 7 20 35 20 34 0 35 1 35 40 0 35 -3 40 -22 40 -13 0 -45 2 -73 4 -27 2 -69 2 -92 -1z"></path><path id="p128jfkKS4" d="M880 5989 c0 -21 5 -39 10 -39 6 0 10 -12 10 -26 0 -23 3 -25 38 -22 32 3 37 7 40 31 3 21 9 27 28 27 21 0 24 5 24 34 l0 35 -75 0 -75 0 0 -40z"></path><path id="pFMaUNLZI" d="M1050 5995 c0 -35 0 -35 45 -35 45 0 45 0 45 35 0 35 0 35 -45 35 -45 0 -45 0 -45 -35z"></path><path id="p11SIDeyMb" d="M1600 5995 c0 -33 2 -35 35 -35 33 0 35 2 35 35 0 33 -2 35 -35 35 -33 0 -35 -2 -35 -35z"></path><path id="pVQNlVxVe" d="M640 5800 c0 -5 7 -10 15 -10 8 0 15 5 15 10 0 6 -7 10 -15 10 -8 0 -15 -4 -15 -10z"></path><path id="pbJVQskNI" d="M2440 5761 c0 -42 11 -51 61 -51 26 0 29 3 29 31 0 39 -20 59 -59 59 -29 0 -31 -2 -31 -39z"></path><path id="pj6Bxy1Tf" d="M3080 5764 c0 -23 7 -43 18 -53 10 -9 21 -24 25 -33 5 -13 17 -18 47 -18 39 0 40 1 40 34 0 41 -23 88 -47 98 -10 3 -33 7 -50 7 -31 1 -33 -1 -33 -35z"></path><path id="pL2n1z1Sq" d="M3083 5553 c-26 -3 -48 -11 -55 -22 -12 -16 -37 -19 -231 -25 -202 -6 -218 -5 -224 11 -10 26 -23 33 -70 33 -30 0 -43 -4 -43 -14 0 -8 -8 -12 -22 -9 -13 2 -51 0 -85 -5 -51 -7 -63 -6 -68 6 -4 12 -19 13 -78 7 -39 -3 -74 -11 -77 -15 -3 -5 -32 -10 -65 -12 l-60 -3 -3 -36 -3 -36 148 -5 c81 -3 231 -2 333 3 282 13 643 27 975 39 381 13 385 14 385 46 l0 25 -190 -3 c-156 -2 -192 0 -199 11 -8 12 -22 13 -83 4 -43 -6 -95 -7 -124 -2 -50 8 -87 8 -161 2z"></path><path id="pY8hMCpJU" d="M1280 5410 c0 -30 1 -30 53 -30 28 0 69 3 90 6 31 6 37 11 37 30 0 23 -2 24 -90 24 l-90 0 0 -30z"></path><path id="p101KgzjFW" d="M1090 5399 l0 -30 53 3 c48 3 52 5 55 31 3 27 2 27 -52 27 -56 0 -56 0 -56 -31z"></path><path id="pXctyg0eP" d="M2400 5340 c0 -5 6 -10 14 -10 7 0 28 -3 45 -6 24 -5 31 -3 31 10 0 12 -10 16 -45 16 -25 0 -45 -4 -45 -10z"></path><path id="p1BDBAScZS" d="M2180 5330 c0 -5 23 -10 50 -10 28 0 50 5 50 10 0 6 -22 10 -50 10 -27 0 -50 -4 -50 -10z"></path><path id="p2Ayt9FjQ" d="M2020 5320 c0 -5 14 -10 30 -10 17 0 30 5 30 10 0 6 -13 10 -30 10 -16 0 -30 -4 -30 -10z"></path><path id="p12WV4Pvkd" d="M1760 5310 c0 -6 28 -10 65 -10 37 0 65 4 65 10 0 6 -28 10 -65 10 -37 0 -65 -4 -65 -10z"></path><path id="p6u6Mo2LO" d="M2650 4950 c-12 -8 -11 -10 5 -10 17 0 17 -2 5 -10 -12 -8 -12 -10 5 -10 17 0 17 -2 5 -10 -12 -8 -12 -10 5 -10 17 0 17 -2 5 -10 -12 -8 -12 -10 5 -10 17 0 17 -2 5 -10 -12 -8 -12 -10 5 -10 17 0 17 -2 5 -10 -12 -8 -12 -10 5 -10 17 0 17 -2 5 -10 -12 -8 -12 -10 5 -10 17 0 17 -2 5 -10 -12 -8 -12 -10 5 -10 17 0 17 -2 5 -10 -12 -8 -12 -10 5 -10 17 0 17 -2 5 -10 -12 -8 -12 -10 5 -10 17 0 17 -2 5 -10 -12 -8 -12 -10 5 -10 17 0 17 -2 5 -10 -12 -8 -12 -10 5 -10 17 0 17 -2 5 -10 -12 -8 -12 -10 5 -10 17 0 17 -2 5 -10 -13 -8 -12 -10 3 -10 9 0 17 2 17 4 0 5 -129 268 -133 273 -1 1 -9 -2 -17 -7z"></path><path id="p9PUPdXqb" d="M9152 4910 c-40 -11 -107 -37 -150 -60 -76 -39 -172 -113 -172 -131 0 -17 68 -10 82 9 7 10 29 25 48 34 19 9 44 25 55 35 11 10 40 25 65 33 25 7 50 17 55 20 18 13 103 30 144 30 37 0 41 2 41 25 0 23 -3 25 -47 24 -27 0 -81 -9 -121 -19z"></path><path id="p19JerBRea" d="M9360 4908 c0 -28 20 -38 77 -38 17 0 34 -4 37 -9 3 -4 23 -11 45 -14 22 -3 54 -12 72 -21 18 -9 43 -16 56 -16 13 0 23 -6 23 -15 0 -21 32 -35 80 -35 56 0 49 15 -28 66 -76 50 -201 93 -294 101 -68 6 -68 6 -68 -19z"></path><path id="pzflSK6Kv" d="M8779 4670 c-79 -97 -141 -226 -154 -321 -18 -131 -15 -219 9 -219 10 0 15 28 19 103 4 88 10 115 43 197 21 52 44 101 51 108 7 7 13 19 13 27 0 7 7 15 15 19 8 3 15 11 15 17 0 7 7 17 16 23 11 8 14 24 12 51 l-3 40 -36 -45z"></path><path id="pjJcWZVAb" d="M2842 4561 c-10 -6 -6 -22 19 -74 19 -37 39 -67 46 -67 20 0 15 19 -20 87 -23 45 -36 60 -45 54z"></path><path id="pfAyAegwb" d="M9963 4543 c-7 -2 -13 -20 -13 -39 0 -32 2 -34 35 -34 39 0 42 8 20 50 -16 30 -20 33 -42 23z"></path><path id="pjybiq1Hp" d="M891 4398 c-6 -18 -16 -55 -21 -83 -15 -69 -22 -98 -68 -265 -21 -80 -40 -148 -40 -153 -1 -4 -8 -31 -16 -60 -8 -28 -17 -65 -20 -82 -2 -16 -16 -70 -30 -120 -18 -65 -22 -91 -14 -96 14 -9 -7 -87 -28 -105 -7 -5 -24 -54 -37 -107 l-25 -97 24 0 c21 0 24 5 24 36 0 37 18 64 43 64 16 0 18 9 171 611 53 206 94 385 91 398 -7 37 -29 91 -36 91 -4 0 -12 -15 -18 -32z"></path><path id="pShT9TYoU" d="M2972 4294 c-11 -12 -10 -14 5 -14 14 0 15 -2 4 -9 -11 -7 -10 -14 5 -40 17 -29 44 -42 44 -22 0 5 -10 30 -23 54 -18 37 -24 42 -35 31z"></path><path id="pGwn5et9V" d="M3050 4160 c-12 -8 -12 -10 3 -16 21 -8 35 2 21 16 -5 5 -15 6 -24 0z"></path><path id="p17yEZEBn7" d="M3082 4123 c-10 -4 -10 -8 -1 -19 13 -15 39 -19 39 -5 0 14 -24 29 -38 24z"></path><path id="p3QeAzcdl" d="M3170 4020 c-9 -6 10 -25 67 -67 94 -70 139 -91 156 -74 8 8 8 11 -1 11 -15 0 -114 63 -168 106 -26 21 -45 30 -54 24z"></path><path id="pMP2o7PEq" d="M9942 3865 c-7 -14 -12 -37 -12 -50 0 -18 -6 -25 -19 -25 -23 0 -71 -61 -71 -89 0 -15 -6 -21 -23 -21 -29 0 -67 -39 -67 -68 0 -18 -6 -22 -35 -22 -24 0 -35 -5 -35 -15 0 -8 -9 -15 -19 -15 -30 0 -51 -11 -51 -26 0 -10 -12 -14 -40 -14 -36 0 -40 -2 -40 -25 0 -14 2 -25 5 -25 20 0 145 56 192 86 107 68 221 192 277 302 l17 32 -34 0 c-26 0 -36 -6 -45 -25z"></path><path id="pxJfYjBzI" d="M3426 3851 c-6 -8 51 -51 69 -51 4 0 58 -25 120 -55 106 -52 146 -65 145 -47 -1 4 -71 41 -156 82 -186 89 -171 83 -178 71z"></path><path id="pjqZTXz5n" d="M3771 3683 c-13 -5 63 -49 100 -58 9 -2 25 -8 35 -14 30 -16 206 -99 237 -110 40 -15 36 10 -5 31 -56 29 -347 159 -351 157 -1 0 -8 -3 -16 -6z"></path><path id="pT2SvlUDi" d="M4192 3493 c-15 -6 35 -53 56 -53 7 0 -1 -14 -17 -32 -38 -41 -31 -51 9 -13 36 34 37 45 8 72 -30 26 -40 31 -56 26z"></path><path id="pZRxxc5P3" d="M4150 3315 c-7 -8 -8 -15 -2 -15 5 0 15 7 22 15 7 8 8 15 2 15 -5 0 -15 -7 -22 -15z"></path><path id="pvfwpkGss" d="M612 3193 c-6 -2 -15 -22 -18 -44 -4 -21 -12 -39 -19 -39 -7 0 -23 -43 -37 -100 l-26 -100 24 0 c20 0 25 6 30 40 5 30 11 40 26 40 11 0 23 11 28 26 15 38 12 54 -10 54 -11 0 -20 5 -20 10 0 6 11 10 23 10 19 0 26 8 35 39 20 66 11 83 -36 64z"></path><path id="puf8ObNEZ" d="M510 2810 c0 -35 3 -40 24 -40 18 0 25 7 30 31 9 47 8 49 -24 49 -28 0 -30 -2 -30 -40z"></path><path id="p10P0pnAo3" d="M9808 2687 c-20 -8 -28 -18 -28 -35 0 -25 4 -25 69 0 23 8 23 9 6 28 -10 11 -19 20 -19 19 -1 -1 -13 -6 -28 -12z"></path><path id="pHrEtL3IJ" d="M446 2658 c-12 -45 -7 -68 14 -68 17 0 20 7 20 45 0 49 -23 64 -34 23z"></path><path id="pEsAqKDyZ" d="M1200 2493 c-123 -11 -243 -52 -343 -116 -62 -40 -137 -105 -137 -118 0 -5 15 -9 33 -9 38 0 67 25 67 58 0 18 6 22 35 22 24 0 35 5 35 15 0 8 8 15 17 15 28 0 83 23 83 36 0 6 24 14 58 18 31 3 82 10 112 15 73 12 276 2 319 -15 18 -8 42 -14 52 -14 11 0 19 -4 19 -8 0 -11 46 -32 70 -32 11 0 20 -7 20 -15 0 -10 10 -15 30 -15 23 0 30 -4 30 -20 0 -16 7 -20 30 -20 25 0 30 -4 30 -25 0 -20 5 -25 25 -25 20 0 25 -5 25 -25 0 -18 5 -25 19 -25 19 0 23 -10 38 -100 8 -45 26 -62 64 -58 l31 3 -21 27 c-14 17 -18 29 -11 33 17 10 -34 92 -99 158 -95 99 -236 183 -371 220 -56 15 -197 26 -260 20z"></path><path id="pUdBvCeeV" d="M573 2275 c-9 -25 5 -88 21 -97 8 -5 22 -15 30 -23 21 -22 26 -19 26 15 0 17 5 30 10 30 24 0 6 29 -35 58 -38 26 -47 29 -52 17z"></path><path id="pV6e4f00S" d="M581 2070 l-22 -40 30 0 c29 0 31 2 31 40 0 22 -4 40 -8 40 -5 0 -18 -18 -31 -40z"></path><path id="pXHBf5jYs" d="M1975 1858 c8 -106 9 -108 41 -108 22 0 25 4 21 20 -5 19 -2 20 26 16 70 -12 195 -37 252 -50 87 -20 248 -55 335 -73 41 -8 113 -23 160 -33 47 -11 121 -26 165 -35 44 -10 121 -26 170 -36 50 -11 119 -24 155 -30 36 -6 74 -15 85 -19 26 -11 328 -70 334 -65 2 2 6 25 9 51 5 46 4 47 -19 41 -27 -7 -189 22 -189 34 0 5 -6 6 -13 3 -12 -4 -201 32 -477 91 -58 13 -235 50 -395 83 -159 34 -345 72 -412 86 -67 15 -139 26 -161 26 -38 0 -40 1 -46 40 -5 32 -11 40 -27 40 -19 0 -20 -4 -14 -82z"></path><path id="pIKEvNu68" d="M8983 1863 c-19 -7 -17 -73 2 -73 8 0 15 -9 15 -20 0 -17 7 -20 40 -20 22 0 40 3 40 7 0 6 -79 114 -83 112 -1 0 -8 -3 -14 -6z"></path><path id="p11HtSelOe" d="M7660 1636 c-10 -25 -23 -61 -29 -80 -9 -34 -8 -36 14 -36 19 0 26 9 39 47 18 53 21 113 6 113 -6 0 -19 -20 -30 -44z"></path><path id="p2KoJ1F0N" d="M1980 1615 c0 -30 3 -35 24 -35 16 0 26 7 30 23 10 40 7 47 -24 47 -28 0 -30 -3 -30 -35z"></path><path id="pZXPrPEmw" d="M514 1533 c3 -10 8 -30 12 -45 11 -46 34 -35 34 17 0 42 -2 45 -26 45 -19 0 -24 -4 -20 -17z"></path><path id="pR1flmdnC" d="M1966 1509 c-10 -53 -7 -79 9 -79 16 0 28 23 40 78 6 29 5 32 -18 32 -19 0 -26 -6 -31 -31z"></path><path id="p8KvH2ZQn" d="M1930 1385 c0 -42 21 -47 38 -10 17 37 15 45 -13 45 -22 0 -25 -4 -25 -35z"></path><path id="peHzvmaL7" d="M9140 1325 c0 -56 0 -56 28 -53 25 3 27 6 27 53 0 47 -2 50 -27 53 -28 3 -28 3 -28 -53z"></path><path id="pSKpGhOAV" d="M7614 1166 c4 -19 16 -63 27 -97 11 -34 18 -73 15 -85 -6 -21 -3 -24 19 -24 23 0 25 4 25 40 0 22 -4 40 -10 40 -5 0 -10 11 -10 25 0 14 -4 25 -10 25 -5 0 -10 11 -10 24 0 54 -12 86 -32 86 -18 0 -19 -5 -14 -34z"></path><path id="pVdMBwB5T" d="M9133 1173 c-8 -2 -13 -22 -13 -44 0 -21 -4 -39 -10 -39 -5 0 -10 -16 -10 -35 0 -28 4 -35 19 -35 21 0 46 53 57 120 6 35 4 40 -12 39 -11 0 -25 -3 -31 -6z"></path><path id="pPyJxKJaa" d="M1710 1130 c0 -5 -6 -10 -13 -10 -7 0 -24 -11 -39 -25 -15 -14 -32 -25 -38 -25 -5 0 -10 -9 -10 -20 0 -17 -7 -20 -40 -20 -22 0 -40 -4 -40 -9 0 -5 -20 -12 -45 -15 -37 -6 -45 -11 -45 -28 0 -18 5 -20 40 -15 54 7 215 89 270 137 l45 39 -42 1 c-24 0 -43 -4 -43 -10z"></path><path id="pYfM7y6iF" d="M6199 1006 c-1 -14 -2 -31 -3 -37 -1 -8 209 -89 231 -89 2 0 3 7 3 15 0 9 9 15 25 15 14 0 25 -6 25 -12 0 -13 53 -48 71 -48 5 0 18 -9 29 -20 24 -24 60 -27 60 -5 0 8 9 15 20 15 11 0 20 -6 20 -14 0 -16 30 -26 83 -26 31 0 38 3 35 17 -2 13 -70 41 -268 110 -146 51 -280 96 -297 99 -30 6 -33 4 -34 -20z"></path><path id="pjfj9ubxq" d="M1010 986 c0 -8 23 -19 60 -29 l60 -15 0 23 c0 18 -7 24 -37 29 -59 9 -83 7 -83 -8z"></path><path id="pLuKtRa0N" d="M1260 949 c0 -18 5 -20 42 -17 31 2 44 8 46 21 3 14 -4 17 -42 17 -40 0 -46 -3 -46 -21z"></path><path id="p3Nl7i820" d="M9030 910 c0 -23 -4 -30 -20 -30 -16 0 -20 -7 -20 -35 0 -19 4 -35 9 -35 11 0 59 56 84 99 l18 31 -35 0 c-33 0 -36 -2 -36 -30z"></path><path id="pbZr8154t" d="M7789 802 c5 -9 19 -26 30 -36 21 -19 21 -19 21 17 0 34 -2 37 -30 37 -26 0 -29 -3 -21 -18z"></path><path id="pLV2I2DCP" d="M6850 790 c0 -15 -7 -20 -25 -20 -37 0 -30 -25 10 -37 29 -9 35 -9 35 3 0 9 11 14 30 14 17 0 30 -5 30 -11 0 -23 36 -38 88 -39 43 0 52 3 52 18 0 13 -25 27 -102 55 -57 20 -106 37 -110 37 -5 0 -8 -9 -8 -20z"></path><path id="pQOTZzxca" d="M8902 778 c-7 -7 -12 -24 -12 -39 0 -25 -4 -28 -37 -31 -35 -3 -38 -6 -41 -36 l-3 -33 28 14 c15 8 57 42 93 76 l65 60 -40 1 c-23 0 -46 -5 -53 -12z"></path><path id="ptXidjki9" d="M7080 701 c0 -30 18 -41 72 -41 14 0 28 -6 30 -12 3 -9 40 -14 116 -16 l112 -4 0 24 c0 24 -2 24 -77 25 -53 1 -105 10 -162 27 -47 14 -86 26 -88 26 -2 0 -3 -13 -3 -29z"></path><path id="p6eImWPrW" d="M8620 591 c0 -8 -29 -14 -142 -28 -38 -4 -48 -9 -48 -24 0 -15 7 -19 38 -19 40 1 114 15 147 29 11 5 33 12 49 17 46 14 45 34 -3 34 -23 0 -41 -4 -41 -9z"></path><path id="p5z2sATq5" d="M8290 540 c0 -16 7 -20 35 -20 28 0 35 4 35 20 0 16 -7 20 -35 20 -28 0 -35 -4 -35 -20z"></path></g></g><g id="l1V046yRIpz8G2Fcx4ULddV" fill="rgb(151,46,14)" style="transform: none;"><g style="transform: none;"><path id="poRVyZPvq" d="M2253 9193 c-10 -16 -13 -16 -22 -3 -8 12 -11 12 -11 1 0 -7 -6 -11 -15 -7 -8 3 -15 1 -15 -5 0 -6 -7 -9 -15 -5 -8 3 -15 1 -15 -5 0 -6 -4 -7 -10 -4 -5 3 -10 1 -10 -5 0 -6 -4 -9 -9 -5 -5 3 -12 -4 -16 -15 -3 -11 -11 -20 -16 -20 -5 0 -11 0 -14 -1 -13 -1 -63 -59 -74 -86 -7 -18 -17 -33 -22 -33 -5 0 -9 -5 -9 -11 0 -6 -6 -16 -13 -24 -8 -7 -22 -45 -31 -84 -10 -40 -24 -84 -32 -99 -7 -15 -14 -35 -14 -46 0 -10 -11 -57 -25 -105 -61 -205 -60 -191 -14 -191 18 0 30 6 33 18 3 9 28 98 56 197 28 99 62 210 76 247 34 90 95 158 182 200 93 46 178 45 402 -6 91 -21 215 -48 275 -61 61 -14 160 -35 220 -49 168 -37 697 -150 1290 -276 50 -10 234 -51 410 -89 176 -39 417 -91 535 -116 227 -49 397 -85 620 -134 74 -16 272 -59 440 -96 168 -36 420 -91 560 -122 140 -30 347 -75 460 -98 113 -24 291 -62 396 -85 l191 -43 7 -86 c3 -47 13 -111 22 -141 9 -30 17 -65 17 -77 1 -12 5 -25 10 -29 14 -15 7 -34 -20 -49 -28 -16 -9 -16 29 0 13 5 23 -2 38 -27 24 -40 25 -48 5 -48 -24 0 -18 -38 10 -62 14 -12 25 -30 25 -40 0 -10 8 -22 17 -25 9 -4 29 -21 45 -38 15 -18 43 -43 63 -56 19 -13 35 -30 35 -36 0 -7 8 -13 19 -13 10 0 30 -11 45 -25 34 -32 59 -45 85 -45 12 0 21 -4 21 -10 0 -5 15 -10 34 -10 19 0 42 -7 50 -16 11 -10 42 -18 90 -21 70 -5 75 -5 70 13 -5 18 -1 19 36 16 46 -5 59 -19 85 -96 31 -95 47 -202 50 -351 6 -247 -8 -330 -145 -830 -85 -312 -135 -505 -159 -617 -24 -112 -83 -459 -101 -593 -14 -103 -57 -365 -66 -401 -4 -13 -2 -24 4 -24 5 0 12 19 15 42 10 86 28 139 50 148 12 5 17 9 10 9 -27 2 -26 23 11 286 9 61 18 128 21 150 7 47 10 61 24 135 6 30 13 69 15 85 12 89 47 246 75 338 12 37 21 81 21 97 0 16 5 32 10 35 6 3 10 19 10 35 0 16 5 32 10 35 6 3 10 19 10 34 0 15 4 31 8 37 9 9 37 118 63 237 7 32 16 60 21 63 4 3 8 18 8 34 0 16 4 31 9 35 6 3 13 27 17 53 3 26 10 52 14 57 6 8 20 67 25 110 1 6 4 21 8 35 14 50 19 109 24 295 6 210 -6 305 -52 434 -14 38 -25 71 -25 73 0 3 33 11 73 18 129 23 263 92 371 189 31 28 60 51 65 51 8 0 36 50 33 62 -1 4 7 12 18 18 11 6 18 15 15 20 -9 14 25 60 44 60 13 0 13 2 2 9 -16 10 -6 31 14 31 17 0 27 27 12 34 -7 2 -3 5 8 5 17 1 18 3 5 12 -11 8 -12 12 -2 16 6 2 10 9 6 14 -3 5 0 9 6 9 7 0 10 7 6 15 -3 8 -1 15 5 15 6 0 8 9 4 20 -5 14 -2 20 9 20 9 0 16 7 16 15 0 8 -6 15 -12 15 -9 0 -8 4 2 10 13 9 13 11 0 20 -13 8 -13 10 1 10 32 0 41 132 12 149 -17 10 -17 10 1 11 12 0 16 5 12 16 -3 9 -6 22 -6 30 0 8 -7 14 -15 14 -18 0 -20 17 -3 22 18 6 -2 99 -38 178 -20 45 -32 60 -48 61 -11 0 -15 3 -8 6 20 8 14 23 -28 80 -28 36 -48 53 -63 53 -18 0 -19 2 -7 10 13 9 11 14 -13 35 -15 14 -34 22 -43 18 -18 -7 -54 24 -48 42 3 7 -15 25 -43 42 -74 45 -104 56 -156 59 -54 2 -108 21 -120 41 -11 18 -35 16 -39 -4 -3 -14 -5 -15 -18 -2 -15 14 -170 22 -170 8 0 -4 -11 -9 -25 -11 -14 -3 -25 -1 -25 3 0 5 -7 9 -15 9 -8 0 -15 -6 -15 -12 0 -10 -2 -10 -8 -1 -6 9 -13 7 -25 -8 -14 -16 -25 -19 -47 -14 -23 5 -32 3 -36 -10 -8 -19 -61 -48 -74 -40 -6 3 -10 1 -10 -5 0 -6 -4 -8 -10 -5 -5 3 -10 1 -10 -5 0 -6 -4 -9 -9 -6 -5 3 -12 -1 -15 -10 -3 -8 -10 -13 -15 -10 -5 3 -12 -1 -15 -10 -3 -8 -10 -12 -16 -9 -12 8 -140 -113 -140 -132 0 -7 -7 -16 -15 -19 -8 -4 -15 -12 -15 -20 0 -8 -4 -14 -10 -14 -5 0 -10 -7 -10 -15 0 -8 -4 -15 -10 -15 -5 0 -10 -7 -10 -15 0 -8 -8 -29 -19 -47 -23 -43 -61 -148 -61 -174 0 -10 -9 -30 -20 -44 -11 -14 -20 -31 -20 -37 0 -19 -8 -18 -237 32 -114 25 -273 59 -353 75 -80 17 -278 60 -440 95 -162 36 -374 83 -470 103 -96 21 -174 42 -172 47 2 6 15 9 30 8 44 -4 -4 13 -58 21 -39 5 -42 5 -20 -5 67 -31 -38 -14 -402 65 -216 47 -469 101 -563 121 -93 19 -188 40 -210 45 -63 16 -474 105 -640 140 -82 17 -188 40 -235 50 -47 11 -278 61 -515 111 -236 50 -432 93 -435 96 -2 2 31 2 75 -2 57 -4 74 -3 58 4 -13 6 -23 16 -23 22 0 8 -4 8 -15 -1 -12 -10 -23 -9 -56 4 -22 9 -45 14 -50 11 -5 -4 -15 -3 -21 2 -14 8 -78 15 -78 8 0 -3 20 -10 45 -16 41 -10 71 -29 46 -29 -9 0 -299 62 -461 100 -307 70 -430 92 -476 86 -16 -2 -22 -1 -14 1 8 3 19 9 25 14 11 11 59 12 69 2 4 -4 28 -9 54 -10 26 -2 58 -7 72 -12 69 -24 108 -32 140 -29 28 2 16 7 -54 21 -49 10 -94 21 -100 25 -13 7 -29 10 -128 18 -43 4 -78 11 -78 15 0 16 -25 10 -37 -8z m-338 -517 c12 -12 11 -15 -5 -19 -15 -4 -20 0 -20 14 0 23 7 24 25 5z m6280 -1297 c87 -111 245 -211 390 -245 86 -20 125 -35 75 -28 -115 17 -247 71 -342 142 -53 39 -149 139 -169 175 -18 32 -2 17 46 -44z"></path><path id="pUfX6llTZ" d="M2745 9103 c10 -3 28 -11 40 -19 11 -7 34 -13 50 -13 31 0 45 -3 125 -20 25 -6 56 -10 70 -9 16 0 9 4 -18 10 -24 5 -46 16 -49 25 -4 10 -8 11 -13 3 -5 -9 -32 -6 -103 9 -83 18 -160 28 -102 14z"></path><path id="pMnYmg7hA" d="M3065 9030 c3 -5 21 -10 38 -9 27 0 29 2 12 9 -28 12 -57 12 -50 0z"></path><path id="pZESnhzpn" d="M3435 8960 c-16 -5 -9 -10 32 -24 35 -12 58 -14 69 -8 13 7 9 11 -22 17 -22 4 -43 10 -49 15 -5 4 -19 4 -30 0z"></path><path id="pcVYfu1oL" d="M3566 8931 c-7 -11 17 -21 48 -21 12 0 27 -5 33 -11 6 -6 42 -13 80 -15 l68 -3 -55 15 c-30 8 -73 17 -94 20 -22 3 -48 10 -57 15 -11 5 -20 5 -23 0z"></path><path id="p1A8qXRMGU" d="M3850 8864 c59 -16 159 -40 225 -53 22 -4 45 -9 50 -11 24 -6 45 1 45 16 0 13 -3 14 -13 5 -10 -8 -45 -4 -138 15 -68 15 -126 29 -129 33 -3 3 -25 7 -50 8 l-45 1 55 -14z"></path><path id="ptsObGuue" d="M4191 8796 c17 -15 327 -82 336 -72 4 3 -1 6 -10 6 -10 0 -17 7 -17 15 0 12 -4 13 -18 6 -13 -7 -58 -1 -152 20 -140 30 -146 31 -139 25z"></path><path id="pCddV1Nsc" d="M4574 8711 c4 -6 13 -11 20 -11 8 0 27 -7 42 -15 16 -8 52 -14 79 -14 28 1 41 3 30 6 -11 2 -27 7 -35 10 -8 4 -17 7 -20 8 -3 1 -12 4 -20 8 -8 3 -22 5 -30 5 -8 0 -28 3 -44 7 -21 6 -27 5 -22 -4z"></path><path id="pZhy2SIHq" d="M918 8653 c-10 -2 -18 -8 -18 -11 0 -4 -18 -7 -40 -7 -27 0 -44 -6 -53 -19 -8 -11 -19 -16 -25 -12 -14 8 -82 -22 -82 -36 0 -5 -4 -7 -9 -4 -15 9 -104 -55 -172 -124 -172 -174 -242 -416 -194 -667 43 -227 188 -419 394 -523 85 -43 231 -73 354 -75 20 0 37 -4 37 -8 0 -10 -77 -314 -129 -507 -21 -80 -54 -206 -74 -280 -40 -152 -93 -348 -167 -620 -98 -362 -94 -344 -74 -375 l18 -27 185 6 c102 4 224 9 271 11 47 2 164 7 260 10 204 7 814 33 945 40 128 7 269 13 425 20 74 2 194 7 265 10 72 3 249 10 395 15 408 15 711 30 756 36 130 18 149 68 254 675 29 162 65 368 81 459 32 185 144 774 214 1130 78 396 82 424 63 462 -27 58 -88 118 -112 113 -30 -6 -89 -13 -311 -35 -267 -26 -569 -57 -685 -70 -105 -12 -265 -28 -345 -35 -33 -3 -73 -8 -90 -10 -30 -4 -67 -8 -180 -20 -33 -4 -73 -8 -90 -10 -16 -2 -66 -7 -110 -11 -44 -4 -82 -8 -85 -9 -11 -2 -118 -15 -175 -20 -66 -6 -146 -15 -185 -20 -14 -2 -52 -6 -85 -10 -33 -3 -71 -8 -85 -10 -14 -2 -119 -11 -235 -20 -115 -9 -216 -19 -222 -21 -7 -2 -13 -10 -13 -19 0 -21 44 -20 82 3 23 13 32 14 35 5 6 -18 48 -16 63 2 14 17 60 21 60 5 0 -5 14 -10 30 -10 20 0 30 5 30 15 0 10 11 15 35 15 19 0 35 -4 35 -10 0 -5 11 -10 25 -10 16 0 25 6 25 15 0 9 9 15 25 15 14 0 25 -4 25 -10 0 -16 27 -12 34 5 6 17 57 20 72 5 8 -8 15 -6 24 5 14 17 50 21 50 5 0 -5 14 -10 30 -10 22 0 30 5 31 18 0 10 3 12 6 5 7 -19 63 -17 63 2 0 18 56 21 62 4 6 -17 118 -1 118 17 0 8 9 14 20 14 11 0 20 -4 20 -10 0 -16 47 -12 54 5 6 17 36 21 36 5 0 -16 47 -12 54 5 7 18 62 20 70 3 3 -10 9 -8 19 5 15 18 57 24 57 7 0 -16 47 -12 54 5 6 17 56 21 56 5 0 -5 11 -10 25 -10 16 0 25 6 25 15 0 8 7 15 15 15 8 0 15 -4 15 -10 0 -5 11 -10 25 -10 16 0 25 6 25 15 0 10 10 15 30 15 17 0 30 -4 30 -10 0 -5 7 -10 15 -10 8 0 15 7 15 15 0 9 9 15 25 15 14 0 25 -4 25 -10 0 -5 11 -10 25 -10 16 0 25 6 25 15 0 17 36 21 42 4 6 -18 138 -2 138 17 0 8 9 14 20 14 11 0 20 -4 20 -10 0 -5 14 -10 30 -10 20 0 30 5 30 15 0 8 7 15 15 15 8 0 15 -4 15 -10 0 -16 47 -12 54 5 6 17 46 21 46 5 0 -16 60 -12 66 5 7 17 34 21 34 5 0 -5 11 -10 25 -10 16 0 25 6 25 15 0 9 9 15 25 15 14 0 25 -5 25 -10 0 -7 26 -9 77 -4 44 4 74 3 70 -2 -6 -10 283 -1 325 11 35 9 37 24 2 17 -24 -4 -25 -3 -15 17 12 22 31 29 31 11 0 -16 37 -12 44 5 8 23 56 19 56 -4 0 -13 8 -21 23 -23 16 -2 22 -10 23 -28 1 -44 4 -50 19 -50 18 0 20 -26 3 -33 -10 -4 -10 -6 0 -6 14 -1 17 -31 3 -31 -5 0 -12 -8 -14 -17 -3 -10 -5 -1 -6 20 -1 30 -6 40 -26 49 -22 10 -29 9 -48 -11 -15 -16 -18 -25 -9 -28 17 -7 15 -33 -3 -33 -18 0 -20 -26 -2 -33 7 -3 5 -6 -5 -6 -21 -1 -24 -27 -5 -34 7 -3 5 -6 -5 -6 -19 -1 -26 -31 -8 -31 6 0 10 -4 10 -10 0 -5 -7 -10 -15 -10 -8 0 -15 -7 -15 -15 0 -8 5 -15 10 -15 6 0 10 -4 10 -10 0 -5 -7 -10 -15 -10 -8 0 -15 -7 -15 -15 0 -8 5 -15 10 -15 6 0 10 -4 10 -10 0 -5 -7 -10 -15 -10 -8 0 -15 -4 -15 -10 0 -5 5 -10 10 -10 6 0 10 -7 10 -15 0 -8 -7 -15 -15 -15 -18 0 -20 -26 -2 -33 7 -3 5 -6 -5 -6 -19 -1 -26 -31 -8 -31 6 0 10 -4 10 -10 0 -5 -7 -10 -15 -10 -18 0 -21 -46 -2 -53 7 -3 6 -6 -5 -6 -23 -1 -37 -89 -17 -102 11 -7 10 -9 -3 -9 -10 0 -18 -7 -18 -15 0 -8 5 -15 10 -15 6 0 10 -4 10 -10 0 -5 -8 -10 -17 -10 -13 0 -14 -3 -5 -12 17 -17 15 -38 -3 -38 -8 0 -15 -7 -15 -15 0 -8 5 -15 10 -15 6 0 10 -7 10 -15 0 -8 -7 -15 -15 -15 -8 0 -15 -7 -15 -15 0 -8 5 -15 10 -15 6 0 10 -4 10 -10 0 -5 -7 -10 -15 -10 -8 0 -15 -7 -15 -15 0 -8 5 -15 10 -15 6 0 10 -7 10 -15 0 -8 -7 -15 -15 -15 -8 0 -15 -4 -15 -10 0 -5 5 -10 10 -10 6 0 10 -7 10 -15 0 -8 -7 -15 -15 -15 -8 0 -15 -4 -15 -10 0 -5 5 -10 10 -10 6 0 10 -9 10 -20 0 -11 -7 -20 -15 -20 -18 0 -20 -26 -2 -33 7 -3 5 -6 -5 -6 -19 -1 -26 -41 -8 -41 6 0 10 -4 10 -10 0 -5 -7 -10 -15 -10 -18 0 -20 -36 -2 -43 7 -3 5 -6 -5 -6 -21 -1 -25 -37 -6 -43 9 -3 8 -9 -5 -22 -20 -21 -22 -32 -4 -39 7 -3 5 -6 -5 -6 -19 -1 -26 -31 -8 -31 6 0 10 -7 10 -15 0 -8 -7 -15 -15 -15 -8 0 -15 -4 -15 -10 0 -5 5 -10 10 -10 6 0 10 -7 10 -15 0 -8 -7 -15 -15 -15 -18 0 -20 -30 -2 -31 6 0 2 -4 -10 -9 -26 -11 -29 -24 -9 -42 11 -11 11 -15 -3 -25 -14 -11 -14 -14 -1 -23 13 -9 13 -12 -2 -21 -19 -11 -25 -39 -8 -39 6 0 10 -4 10 -10 0 -5 -7 -10 -15 -10 -8 0 -15 -4 -15 -10 0 -5 5 -10 10 -10 16 0 11 -32 -7 -47 -13 -10 -15 -16 -5 -19 17 -8 15 -24 -3 -24 -8 0 -15 -9 -15 -20 0 -11 5 -20 10 -20 6 0 10 -7 10 -15 0 -8 -7 -15 -15 -15 -8 0 -15 -4 -15 -10 0 -5 5 -10 10 -10 6 0 10 -4 10 -10 0 -5 -7 -10 -15 -10 -8 0 -15 -7 -15 -15 0 -8 5 -15 10 -15 16 0 12 -22 -7 -37 -13 -10 -15 -16 -5 -19 17 -8 15 -24 -3 -24 -8 0 -15 -7 -15 -15 0 -8 5 -15 10 -15 6 0 10 -7 10 -15 0 -8 -7 -15 -15 -15 -8 0 -15 -7 -15 -15 0 -8 5 -15 10 -15 6 0 10 -4 10 -10 0 -5 -7 -10 -15 -10 -18 0 -20 -36 -2 -43 8 -3 6 -10 -8 -21 -14 -12 -16 -19 -7 -22 17 -8 15 -24 -3 -24 -8 0 -15 -9 -15 -20 0 -11 5 -20 10 -20 6 0 10 -7 10 -15 0 -8 -7 -15 -15 -15 -8 0 -15 -7 -15 -15 0 -8 5 -15 10 -15 6 0 10 -7 10 -15 0 -8 -7 -15 -15 -15 -8 0 -15 -5 -15 -12 0 -6 -7 -20 -17 -30 -15 -17 -15 -19 7 -38 18 -16 20 -20 7 -20 -10 0 -17 -5 -17 -12 0 -6 -11 -1 -25 12 -14 13 -25 32 -25 42 0 10 -7 18 -16 18 -8 0 -22 7 -31 15 -8 9 -23 13 -33 10 -9 -3 -25 -3 -34 1 -20 8 -21 34 -2 34 9 0 12 7 9 20 -3 11 0 34 6 51 13 38 6 53 -20 39 -14 -8 -19 -7 -19 3 0 8 -13 13 -37 14 -21 0 -51 4 -66 8 -24 6 -29 4 -34 -14 -6 -22 -6 -22 -20 -2 -12 18 -23 20 -73 17 -32 -2 -63 -7 -69 -10 -6 -4 -11 -2 -11 4 0 7 -6 8 -16 2 -9 -5 -35 -5 -59 -1 -23 4 -62 6 -85 4 -24 -3 -49 0 -57 6 -10 9 -13 8 -13 -4 0 -26 -30 -29 -50 -5 l-19 23 -7 -33 c-6 -31 -30 -40 -28 -10 1 11 -15 14 -71 14 -39 1 -77 4 -84 9 -8 4 -17 2 -22 -6 -6 -10 -9 -11 -9 -1 0 20 -27 14 -33 -8 -4 -18 -8 -18 -37 -8 -23 8 -34 8 -39 0 -8 -13 -41 -10 -93 7 -38 13 -51 31 -23 31 8 0 15 5 15 10 0 6 -9 10 -20 10 -11 0 -20 -7 -20 -16 0 -8 -5 -24 -11 -35 -10 -19 -10 -19 -40 1 -16 12 -29 17 -29 11 0 -13 -32 -15 -45 -2 -6 4 -24 4 -42 0 -29 -8 -30 -11 -20 -33 7 -13 15 -22 18 -20 4 2 12 -3 19 -11 14 -17 68 -14 79 4 10 16 44 -16 37 -35 -4 -11 1 -22 14 -31 11 -8 20 -21 20 -29 0 -19 -7 -18 -38 7 -24 18 -28 19 -38 4 -7 -9 -18 -13 -28 -9 -9 3 -23 1 -31 -6 -8 -7 -26 -9 -44 -5 -16 3 -32 2 -35 -4 -4 -5 -16 -7 -29 -4 -12 2 -30 5 -39 5 -10 -1 -18 4 -18 9 0 6 -9 7 -22 3 -23 -7 -36 -8 -73 0 -11 2 -25 0 -31 -5 -11 -9 -81 1 -116 16 -11 4 -18 3 -18 -5 0 -8 -10 -9 -32 -4 -18 4 -42 7 -53 6 -19 -1 -19 0 -1 10 24 14 4 28 -41 28 -41 0 -45 25 -6 35 21 5 32 2 44 -14 22 -27 27 -26 25 2 -1 20 3 22 49 19 71 -5 80 -12 55 -45 -33 -42 -3 -32 40 13 36 38 38 42 25 66 -13 26 -16 26 -120 29 -58 1 -108 5 -112 8 -3 4 -14 2 -24 -4 -12 -6 -19 -6 -19 0 0 5 -9 7 -20 4 -32 -9 -73 6 -66 23 3 9 1 25 -5 36 -10 19 -9 20 14 14 22 -5 24 -3 20 15 -5 18 -3 20 13 12 28 -14 48 -10 52 9 2 12 -2 15 -17 11 -24 -6 -29 15 -6 23 20 8 19 30 -1 38 -23 9 -43 -11 -37 -34 6 -24 -5 -25 -32 -4 -19 14 -19 16 -2 28 19 14 23 36 7 36 -5 0 -10 -4 -10 -10 0 -5 -7 -10 -15 -10 -8 0 -15 7 -15 15 0 8 5 15 10 15 6 0 10 4 10 10 0 13 -29 1 -51 -21 -11 -11 -14 -21 -9 -24 6 -4 10 -12 10 -20 0 -11 -6 -11 -30 -2 -17 6 -30 15 -30 19 0 4 -4 8 -10 8 -5 0 -10 -7 -10 -15 0 -8 -6 -15 -14 -15 -17 0 -28 24 -20 45 4 10 0 15 -11 15 -13 0 -16 -6 -11 -25 4 -14 2 -25 -4 -25 -5 0 -10 9 -10 21 0 11 -5 17 -10 14 -6 -4 -8 -11 -5 -16 7 -11 -4 -53 -12 -45 -4 3 -11 -1 -17 -9 -12 -16 -26 -10 -41 18 -10 19 -33 20 -27 2 2 -5 5 -23 6 -40 2 -22 8 -31 24 -33 12 -2 22 1 22 7 0 16 14 13 36 -6 26 -25 64 -29 64 -8 0 9 -5 13 -10 10 -12 -8 -24 20 -15 35 8 13 35 -12 35 -33 0 -9 6 -18 13 -20 7 -3 4 -6 -6 -6 -13 -1 -17 -7 -15 -23 2 -18 -3 -23 -29 -29 -39 -8 -44 -3 -37 27 6 23 -7 27 -33 11 -8 -5 -13 -3 -13 5 0 9 -3 9 -8 2 -4 -6 -14 -14 -22 -17 -12 -4 -11 -6 3 -6 16 -1 25 -21 10 -21 -5 -1 -25 -3 -45 -6 -31 -5 -38 -2 -38 11 0 9 -7 29 -15 46 -9 16 -12 29 -8 28 30 -5 35 2 18 21 -10 11 -24 20 -32 20 -8 0 -21 6 -29 14 -12 13 -10 15 18 19 l33 3 -32 13 c-18 7 -33 19 -33 25 0 17 -56 66 -74 66 -8 0 -17 6 -19 13 -3 6 -6 0 -6 -15 -1 -16 2 -28 7 -28 4 0 13 -9 20 -21 12 -19 11 -20 -7 -14 -10 3 -22 2 -25 -4 -7 -10 -46 -3 -46 9 0 5 9 6 20 3 15 -4 20 0 20 16 0 12 -4 20 -9 17 -14 -9 -31 40 -18 53 6 6 7 14 3 18 -4 5 -13 0 -20 -10 -16 -21 -25 -21 -47 -1 -14 13 -24 14 -46 6 -17 -7 -21 -11 -10 -11 18 -1 25 -21 7 -21 -14 0 -12 -37 2 -43 9 -4 8 -6 -2 -6 -21 -1 -40 19 -40 41 0 10 -4 18 -10 18 -5 0 -10 7 -10 15 0 8 5 15 11 15 5 0 7 5 3 12 -5 8 -10 5 -17 -9 -11 -24 -44 -41 -70 -35 -10 2 -16 10 -13 17 3 8 -2 11 -14 8 -9 -3 -24 2 -31 10 -12 13 -16 13 -32 -1 -14 -12 -22 -13 -42 -4 -21 10 -25 9 -25 -3 0 -8 -7 -15 -15 -15 -29 0 -15 -15 15 -16 39 -1 44 -7 28 -33 -11 -18 -11 -23 2 -31 9 -6 10 -10 3 -10 -6 0 -19 7 -27 16 -18 17 -40 9 -32 -12 3 -9 -2 -14 -14 -14 -22 0 -27 16 -8 22 7 3 9 11 4 24 -8 18 -9 18 -15 1 -3 -10 -19 -24 -33 -31 -25 -13 -28 -13 -33 5 -4 10 -11 19 -16 19 -14 0 -39 26 -39 39 0 20 -20 11 -30 -11 -18 -46 -10 9 14 92 14 47 41 150 61 230 20 80 45 172 55 205 9 33 28 105 40 160 12 55 23 105 25 110 1 6 28 18 58 28 103 33 226 97 288 152 79 68 171 183 209 260 52 105 91 325 85 480 -4 96 -83 251 -177 346 -43 44 -62 56 -77 52 -16 -4 -20 -2 -16 9 4 10 -1 14 -17 14 -16 -1 -22 4 -20 16 2 12 -3 15 -18 11 -16 -4 -19 -2 -14 12 6 14 3 16 -13 11 -24 -8 -103 29 -103 49 0 11 -8 13 -29 9 -16 -3 -38 -1 -49 5 -11 6 -37 13 -58 15 -21 3 -40 9 -42 14 -1 5 -14 7 -27 4 -15 -2 -25 0 -25 7 0 11 -124 14 -162 4z m3612 -352 c0 -5 8 -12 18 -15 9 -2 4 -4 -12 -3 -30 2 -50 27 -22 27 9 0 16 -4 16 -9z m-210 -27 c0 -9 -7 -14 -17 -12 -25 5 -28 28 -4 28 12 0 21 -6 21 -16z m424 -103 c3 -5 -10 -85 -29 -179 -18 -94 -57 -298 -86 -454 -28 -155 -57 -314 -64 -353 -7 -38 -20 -108 -29 -155 -28 -155 -97 -523 -121 -650 -34 -177 -96 -550 -97 -584 -1 -17 6 -34 17 -42 18 -13 18 -14 -1 -14 -16 0 -22 -10 -30 -42 -8 -37 -13 -43 -34 -43 -20 0 -25 5 -24 25 2 42 130 764 199 1125 25 127 68 354 96 505 92 495 107 573 138 718 17 78 31 145 31 147 0 9 29 5 34 -4z m12 -111 c-4 -25 -2 -40 4 -40 5 0 10 -4 10 -10 0 -5 -7 -10 -15 -10 -18 0 -20 -30 -2 -30 6 0 4 -5 -6 -11 -14 -8 -16 -14 -7 -25 9 -10 8 -17 -4 -29 -19 -20 -21 -35 -3 -35 6 0 4 -5 -5 -11 -21 -12 -24 -45 -5 -52 7 -4 6 -6 -4 -6 -20 -1 -32 -72 -15 -84 7 -5 5 -11 -6 -18 -20 -11 -24 -39 -6 -39 6 0 3 -7 -8 -16 -13 -11 -15 -17 -6 -20 17 -8 15 -24 -5 -41 -13 -10 -15 -16 -5 -19 17 -8 15 -24 -3 -24 -8 0 -15 6 -15 13 0 21 51 310 60 342 5 17 14 59 20 95 7 36 14 75 16 88 8 39 17 23 10 -18z m-86 -564 c0 -3 -7 -6 -15 -6 -9 0 -15 9 -15 21 0 18 2 19 15 5 8 -8 15 -17 15 -20z m-10 -55 c0 -6 -7 -11 -15 -11 -8 0 -15 -4 -15 -10 0 -5 5 -10 10 -10 6 0 10 -7 10 -15 0 -8 -7 -15 -16 -15 -12 0 -14 9 -10 48 2 26 5 48 5 50 2 8 31 -28 31 -37z m-31 -99 c-4 -2 -6 -16 -3 -31 4 -20 1 -30 -10 -34 -12 -5 -16 0 -16 21 0 15 3 37 6 49 5 17 9 19 19 10 7 -7 9 -13 4 -15z m-9 -103 c0 -5 -7 -9 -15 -9 -8 0 -15 7 -15 15 0 9 6 12 15 9 8 -4 15 -10 15 -15z m-10 -43 c0 -8 -7 -16 -15 -20 -10 -4 -15 1 -15 14 0 11 7 20 15 20 8 0 15 -6 15 -14z m-10 -55 c0 -5 -7 -11 -15 -15 -9 -3 -15 0 -15 9 0 8 7 15 15 15 8 0 15 -4 15 -9z m-10 -62 c0 -5 -7 -9 -15 -9 -8 0 -15 7 -15 15 0 9 6 12 15 9 8 -4 15 -10 15 -15z m-10 -49 c0 -5 -4 -10 -9 -10 -5 0 -11 -9 -14 -20 -3 -11 -1 -20 4 -20 5 0 9 -7 9 -15 0 -8 -7 -15 -16 -15 -13 0 -15 7 -10 31 3 17 6 38 6 45 0 8 7 14 15 14 8 0 15 -4 15 -10z m-20 -115 c0 -8 -5 -15 -11 -15 -6 0 -8 -8 -4 -19 3 -12 0 -21 -10 -24 -14 -6 -15 5 -6 66 2 14 31 7 31 -8z m-20 -96 c0 -7 -8 -18 -17 -25 -16 -12 -16 -15 -3 -23 13 -9 12 -12 -5 -25 -17 -13 -18 -17 -5 -25 13 -9 12 -12 -5 -25 -11 -9 -14 -16 -7 -16 16 0 15 -18 -3 -36 -13 -14 -15 -13 -15 8 0 25 17 129 26 161 6 19 34 24 34 6z m-49 -229 c-3 -3 -9 -9 -13 -14 -5 -5 -8 3 -8 18 0 22 2 25 14 14 8 -7 11 -15 7 -18z m-8 -49 c-4 -3 -11 -10 -15 -15 -5 -5 -8 0 -8 12 0 15 4 20 16 15 9 -3 12 -9 7 -12z m-22 -78 c-14 -11 -14 -14 -2 -22 12 -8 11 -12 -4 -27 -14 -14 -16 -28 -12 -65 5 -36 2 -49 -9 -53 -12 -5 -12 -9 -2 -26 11 -16 10 -22 -7 -35 -14 -12 -16 -18 -7 -21 17 -8 15 -24 -5 -41 -13 -10 -15 -16 -5 -19 17 -8 15 -24 -5 -41 -13 -10 -15 -16 -5 -19 17 -8 15 -34 -3 -34 -18 0 -20 -26 -2 -33 8 -3 6 -10 -8 -21 -14 -12 -16 -19 -7 -22 17 -8 15 -24 -5 -40 -16 -12 -16 -15 -3 -24 8 -5 10 -10 4 -10 -18 0 -26 -32 -12 -42 10 -6 10 -10 -1 -17 -8 -5 -11 -16 -7 -26 3 -9 -1 -23 -9 -31 -13 -14 -15 -13 -15 10 0 13 9 69 19 123 11 54 27 145 35 203 19 121 34 200 47 251 5 20 9 48 9 62 0 41 10 58 25 44 10 -9 9 -14 -4 -24z m-2971 -100 c-1 -18 -19 -35 -29 -28 -9 5 -9 10 0 21 12 15 29 19 29 7z m-127 -95 c-5 -10 -33 2 -33 13 0 5 5 9 10 9 6 0 11 10 11 23 1 17 3 16 8 -8 4 -16 6 -33 4 -37z m-415 7 c1 -19 -3 -35 -8 -35 -6 0 -10 18 -10 41 0 49 16 44 18 -6z m52 15 c0 -4 10 -10 22 -13 12 -4 19 -9 15 -13 -10 -10 -67 17 -67 32 0 8 6 11 15 8 8 -4 15 -10 15 -14z m1052 -141 c4 -41 -2 -51 -36 -56 -13 -2 -16 1 -13 12 4 8 2 17 -3 20 -10 6 28 65 41 65 4 0 9 -18 11 -41z m70 17 c3 -16 0 -27 -10 -31 -21 -8 -25 0 -18 30 8 32 22 32 28 1z m-1233 -16 c4 0 12 5 18 11 9 9 20 8 45 -4 18 -9 27 -17 21 -17 -7 0 -13 -11 -13 -24 0 -25 -26 -43 -33 -23 -3 9 -8 9 -19 -1 -20 -16 -32 -1 -23 27 3 11 2 22 -3 25 -5 3 -12 -13 -16 -36 -4 -22 -9 -38 -12 -35 -4 3 0 30 7 59 7 29 15 45 17 36 2 -10 7 -18 11 -18z m214 16 c15 -4 25 -11 22 -17 -5 -6 -12 -6 -22 2 -12 10 -16 10 -24 -2 -5 -8 -9 -17 -9 -21 0 -11 -28 -10 -35 2 -8 12 16 49 29 45 6 -2 24 -6 39 -9z m2133 -107 c10 -17 -13 -36 -27 -22 -12 12 -4 33 11 33 5 0 12 -5 16 -11z m604 -25 c0 -14 -3 -14 -15 -4 -8 7 -15 14 -15 16 0 2 7 4 15 4 8 0 15 -7 15 -16z m-834 -50 c-3 -8 -11 -14 -19 -14 -15 0 -18 42 -3 52 14 9 29 -18 22 -38z m172 27 c5 -14 39 -15 47 -1 8 13 52 13 57 0 2 -6 13 -5 28 3 14 6 44 11 68 9 39 -3 42 -5 36 -28 -4 -14 -2 -24 5 -24 6 0 11 9 11 19 0 20 25 35 41 25 15 -9 139 -10 141 -2 2 5 18 4 37 -2 19 -5 38 -7 44 -3 13 8 117 12 135 5 10 -3 9 -8 -3 -22 -14 -15 -14 -18 0 -30 14 -11 14 -14 -2 -25 -22 -14 -61 -17 -68 -4 -4 5 -15 9 -26 9 -10 0 -19 6 -19 14 0 18 -39 27 -89 21 -29 -4 -41 -2 -41 7 0 10 -3 9 -9 -1 -7 -10 -20 -12 -50 -7 -25 4 -41 2 -41 -4 0 -5 6 -10 14 -10 20 0 31 -19 18 -32 -8 -8 -16 -7 -27 2 -11 9 -19 10 -26 3 -8 -8 -23 -6 -51 5 -29 11 -41 13 -47 4 -3 -6 -15 -11 -26 -12 -11 0 -47 -2 -80 -3 -33 -2 -65 1 -72 5 -7 6 -20 4 -32 -3 -16 -11 -26 -10 -53 3 -32 15 -32 16 -11 25 14 5 19 13 15 20 -6 9 -18 4 -42 -17 -49 -42 -81 -41 -39 1 15 15 18 24 10 33 -6 7 -8 16 -4 19 11 12 21 8 26 -10 4 -14 5 -13 6 4 1 20 5 22 58 19 31 -2 59 -8 61 -15z m714 7 c2 -6 21 -11 41 -10 20 1 37 -3 37 -8 0 -6 -9 -10 -20 -10 -13 0 -18 -5 -14 -15 4 -8 15 -15 25 -15 10 0 19 -4 19 -10 0 -5 -9 -10 -20 -10 -11 0 -20 4 -20 10 0 11 -40 34 -47 26 -3 -3 2 -13 11 -22 22 -21 5 -44 -18 -25 -8 7 -19 10 -23 8 -10 -6 -10 40 0 50 4 3 7 15 7 25 0 20 16 25 22 6z m-1682 -28 c0 -17 -15 -11 -28 11 -12 19 -11 19 8 9 11 -6 20 -15 20 -20z m1847 7 c-5 -15 -35 -33 -42 -25 -4 4 -4 15 -1 26 5 14 13 18 27 15 11 -3 18 -10 16 -16z m-385 -59 c-9 -9 -15 -9 -24 0 -9 9 -7 12 12 12 19 0 21 -3 12 -12z m498 -62 c0 -7 -7 -19 -15 -26 -13 -11 -15 -8 -15 14 0 16 5 26 15 26 8 0 15 -6 15 -14z m-40 -111 c-7 -8 -20 -15 -29 -15 -11 1 -8 5 9 15 32 18 35 18 20 0z m-965 -38 c16 -31 14 -44 -4 -32 -6 3 -11 18 -12 33 0 15 -3 21 -6 15 -3 -10 -8 -10 -19 1 -19 20 -18 25 6 19 11 -3 27 -19 35 -36z m975 -22 c0 -8 -7 -15 -15 -15 -16 0 -20 12 -8 23 11 12 23 8 23 -8z m95 -83 c59 -5 80 -13 64 -23 -7 -5 -10 -9 -6 -9 14 0 -16 -24 -59 -47 -27 -15 -57 -23 -85 -22 -24 1 -36 3 -26 6 9 2 17 12 17 21 0 13 -2 14 -9 3 -7 -10 -11 -9 -23 8 -8 11 -18 18 -21 15 -4 -4 -9 1 -13 10 -8 22 2 32 19 18 8 -7 33 -9 65 -5 l52 6 -17 28 c-10 16 -22 29 -28 30 -5 0 -1 4 10 8 16 7 21 4 25 -18 4 -20 12 -27 35 -29z m-1050 -108 c10 -14 14 -15 34 -3 15 10 24 11 29 3 4 -6 14 -11 22 -12 8 0 29 -5 45 -10 21 -6 -32 -11 -188 -16 -121 -4 -221 -5 -225 -2 -3 3 28 6 69 6 64 0 76 3 87 21 10 15 20 19 40 15 15 -3 34 -2 42 4 21 14 31 12 45 -6z m261 -12 c5 3 27 2 49 -2 31 -6 18 -8 -55 -8 -63 0 -85 3 -65 8 17 4 26 8 20 9 -5 1 -4 5 4 10 10 7 19 5 26 -6 7 -9 16 -14 21 -11z m-920 10 c6 -4 15 -18 19 -31 6 -20 12 -23 41 -18 19 3 34 2 34 -4 0 -5 -42 -9 -93 -9 -89 0 -94 1 -105 24 -10 22 -9 23 11 18 12 -2 30 -11 39 -20 22 -19 50 -9 41 15 -4 10 -11 21 -17 25 -15 10 15 10 30 0z m-268 -21 c3 -8 -1 -12 -9 -9 -7 2 -15 10 -17 17 -3 8 1 12 9 9 7 -2 15 -10 17 -17z m1461 15 c-2 -2 -44 -6 -94 -8 -50 -3 -75 -2 -55 2 36 8 157 13 149 6z m74 -3 c-13 -2 -33 -2 -45 0 -13 2 -3 4 22 4 25 0 35 -2 23 -4z m-1590 -19 c25 -9 21 -24 -8 -24 -14 0 -25 2 -25 4 0 2 -3 12 -7 22 -4 12 -2 15 8 10 8 -3 22 -9 32 -12z m173 -9 c20 -15 13 -18 -23 -9 -13 4 -23 10 -23 15 0 14 24 11 46 -6z m-236 -5 c0 -5 -7 -10 -15 -10 -8 0 -15 5 -15 10 0 6 7 10 15 10 8 0 15 -4 15 -10z m640 0 c10 -7 -5 -9 -50 -8 -63 1 -64 1 -20 8 25 4 47 8 50 8 3 1 12 -3 20 -8z m-1422 -67 c-10 -2 -26 -2 -35 0 -10 3 -2 5 17 5 19 0 27 -2 18 -5z"></path><path id="pQEN9DzFH" d="M3735 5990 c-4 -6 -3 -16 3 -22 13 -13 23 4 13 21 -7 10 -10 10 -16 1z"></path><path id="p1DbclFD8p" d="M3245 5971 c-3 -5 -1 -12 4 -15 5 -4 12 0 14 6 4 10 6 10 6 1 1 -7 9 -13 19 -13 15 1 15 2 -2 15 -23 17 -33 19 -41 6z"></path><path id="pkYyk91Od" d="M4825 8651 c3 -6 22 -11 42 -11 44 0 41 5 -10 14 -27 5 -37 4 -32 -3z"></path><path id="pOPSRKnuh" d="M4961 8631 c-10 -7 -2 -12 30 -21 24 -7 57 -16 73 -21 16 -5 35 -5 44 0 11 6 -1 12 -44 21 -32 7 -63 17 -68 22 -12 10 -17 10 -35 -1z"></path><path id="pRdFUzoPQ" d="M5425 8521 c134 -40 213 -52 200 -31 -3 6 -24 10 -45 10 -21 0 -42 5 -45 11 -4 6 -14 8 -22 5 -8 -3 -20 -3 -26 1 -7 4 -18 8 -27 8 -8 1 -33 4 -55 8 -29 4 -23 1 20 -12z"></path><path id="pD1upHBWQ" d="M5890 8420 c14 -4 34 -8 45 -8 16 0 15 2 -5 8 -14 4 -34 8 -45 8 -16 0 -15 -2 5 -8z"></path><path id="pVKTuIXm5" d="M5980 8414 l-25 -14 33 0 c22 0 32 5 32 15 0 18 -7 18 -40 -1z"></path><path id="peRKYGpNT" d="M6100 8375 c19 -7 46 -13 60 -13 15 0 5 5 -25 14 -63 17 -81 17 -35 -1z"></path><path id="pLdfTbLKx" d="M4786 8327 c41 -49 79 -70 209 -117 66 -23 188 -69 270 -101 83 -32 283 -110 445 -173 162 -63 373 -149 469 -190 96 -42 176 -76 178 -76 2 0 3 13 3 29 0 24 -8 34 -47 58 -43 26 -278 143 -288 143 -2 0 -32 13 -67 29 -167 78 -923 378 -1028 409 -19 6 -66 13 -103 16 l-68 5 27 -32z m150 -27 c13 0 25 -4 28 -9 3 -4 34 -18 68 -30 35 -13 81 -31 104 -42 22 -10 44 -19 48 -19 4 0 38 -12 74 -26 93 -36 102 -39 145 -58 21 -9 47 -16 57 -16 11 0 20 -4 20 -10 0 -5 6 -10 13 -10 7 0 30 -9 52 -20 22 -11 50 -20 62 -20 13 0 23 -4 23 -10 0 -5 9 -10 19 -10 11 0 22 -4 25 -9 3 -4 27 -16 53 -25 26 -10 55 -20 63 -23 8 -4 17 -7 20 -8 30 -8 56 -19 61 -27 3 -5 13 -10 21 -12 9 -1 22 -7 29 -13 8 -6 39 -19 69 -29 56 -18 69 -26 98 -56 9 -10 25 -18 35 -18 24 0 123 -53 108 -58 -5 -2 -45 12 -88 31 -92 41 -290 122 -493 200 -80 31 -221 86 -315 122 -93 37 -228 87 -300 112 -71 25 -150 57 -175 71 l-45 27 40 5 c22 3 44 2 50 -2 5 -4 19 -8 31 -8z"></path><path id="pmd3NSFXt" d="M6405 8310 c11 -5 27 -9 35 -9 9 0 8 4 -5 9 -11 5 -27 9 -35 9 -9 0 -8 -4 5 -9z"></path><path id="pKSyBJ8th" d="M6485 8290 c17 -4 39 -8 50 -8 16 0 15 2 -5 8 -14 4 -36 8 -50 8 -22 0 -22 -1 5 -8z"></path><path id="pMgCIDJII" d="M6719 8254 c-12 -14 -11 -16 5 -13 11 2 21 10 24 17 5 17 -13 15 -29 -4z"></path><path id="pdZtOhyyH" d="M3660 8180 c0 -5 7 -10 15 -10 8 0 15 5 15 10 0 6 -7 10 -15 10 -8 0 -15 -4 -15 -10z"></path><path id="pUVX9iH1s" d="M3540 8170 c0 -5 7 -10 15 -10 8 0 15 5 15 10 0 6 -7 10 -15 10 -8 0 -15 -4 -15 -10z"></path><path id="prG7beMmk" d="M4886 8154 c-3 -9 -6 -28 -6 -43 0 -24 7 -29 73 -53 39 -14 124 -45 187 -69 63 -23 151 -55 195 -71 158 -57 335 -130 340 -139 10 -15 -57 -10 -138 11 -42 10 -169 55 -281 100 -112 44 -208 80 -214 80 -10 0 -127 39 -165 55 -16 7 -18 3 -15 -25 2 -19 9 -35 18 -37 13 -4 13 -3 0 6 -31 22 0 20 76 -5 43 -14 88 -29 99 -34 11 -5 34 -11 50 -15 17 -4 67 -24 113 -46 45 -21 89 -39 97 -39 8 0 35 -11 61 -25 26 -14 54 -25 63 -25 9 0 33 -6 54 -13 20 -8 55 -13 77 -13 22 1 40 -2 40 -6 0 -5 18 -8 40 -8 33 0 40 3 40 19 0 11 -10 27 -22 35 -27 19 -321 133 -583 227 -197 70 -195 69 -195 89 0 31 17 33 73 8 28 -14 73 -30 100 -37 26 -8 47 -17 47 -21 0 -4 28 -15 63 -25 34 -9 80 -25 102 -35 22 -9 65 -25 95 -35 57 -18 113 -40 142 -56 10 -5 22 -9 28 -9 9 0 43 -14 146 -61 22 -11 48 -19 57 -19 9 0 32 -9 52 -20 20 -11 41 -20 48 -20 7 0 32 -11 57 -24 61 -32 224 -96 244 -96 9 0 16 -4 16 -9 0 -5 12 -12 28 -14 26 -4 -331 -13 -394 -9 -17 0 -58 17 -90 36 -127 76 -340 126 -535 126 -102 0 -126 -3 -166 -22 -25 -12 -41 -24 -34 -26 6 -2 28 4 49 14 66 32 293 24 457 -15 112 -28 155 -44 237 -92 l71 -42 265 6 c146 4 266 8 268 10 2 2 -13 9 -34 16 -20 7 -89 35 -152 62 -323 135 -1195 469 -1226 469 -7 0 -15 -7 -18 -16z"></path><path id="pTW1KP5JK" d="M7646 8040 c12 -5 43 -11 70 -14 l49 -5 -50 13 c-27 8 -59 14 -70 14 -19 1 -19 0 1 -8z"></path><path id="p9Rddbqb6" d="M7798 8007 c21 -6 36 -7 42 -1 6 6 -6 10 -33 11 l-42 1 33 -11z"></path><path id="p19lgakiTv" d="M5035 7911 c77 -26 149 -51 160 -55 13 -5 11 -2 -5 8 -25 15 -269 97 -286 95 -5 0 54 -22 131 -48z"></path><path id="pjbGRaKzj" d="M4831 7876 c-16 -66 -14 -96 7 -96 12 0 14 2 4 9 -12 7 -10 61 4 83 6 10 58 11 67 1 11 -11 189 -56 226 -57 19 -1 36 4 38 12 3 7 -5 12 -20 12 -13 0 -85 18 -160 40 -74 22 -139 40 -145 40 -5 0 -15 -20 -21 -44z"></path><path id="pA4bX5mkY" d="M4880 7770 c14 -4 36 -8 50 -8 l25 0 -25 8 c-14 4 -36 8 -50 8 l-25 0 25 -8z"></path><path id="pqit7YRGI" d="M4781 7648 c-7 -35 -15 -74 -18 -88 -4 -20 -2 -22 6 -10 6 8 11 24 11 35 0 11 5 36 10 56 8 30 16 38 40 41 19 3 31 0 35 -10 3 -9 14 -13 29 -10 19 4 23 1 18 -11 -7 -20 -40 -69 -64 -95 -10 -11 -18 -26 -18 -33 0 -16 -52 -17 -68 -1 -9 9 -12 8 -12 -6 0 -14 8 -17 48 -14 l47 3 61 90 62 90 -67 12 c-111 20 -107 22 -120 -49z"></path><path id="ps18peByX" d="M7859 7616 c-4 -3 -57 -7 -429 -27 -118 -6 -221 -13 -229 -15 -11 -4 -13 -39 -7 -207 3 -111 8 -319 12 -462 3 -143 9 -291 14 -330 4 -38 7 -91 6 -118 -1 -41 1 -45 12 -30 24 33 34 96 27 169 -9 93 12 179 73 304 37 77 61 110 123 173 43 42 84 77 92 77 7 0 31 25 52 56 56 80 180 192 282 252 124 73 128 76 43 37 -41 -19 -82 -41 -91 -49 -9 -8 -26 -17 -38 -21 -12 -3 -19 -11 -16 -16 4 -5 -1 -9 -9 -9 -8 0 -21 -6 -28 -13 -7 -7 -25 -20 -40 -30 -16 -10 -28 -24 -28 -32 0 -8 -6 -15 -14 -15 -8 0 -25 -15 -37 -32 -13 -18 -27 -34 -31 -36 -4 -2 -8 -10 -8 -18 0 -8 -4 -14 -8 -14 -5 0 -14 -11 -21 -24 -7 -13 -30 -33 -51 -45 -81 -45 -237 -256 -216 -290 4 -6 3 -11 -3 -11 -15 0 -39 -51 -48 -101 l-8 -44 -6 55 c-4 30 -10 220 -15 423 l-7 367 21 0 c13 0 22 6 22 15 0 12 13 15 60 15 33 0 60 -4 60 -10 0 -17 77 -12 84 5 6 17 86 22 86 5 0 -16 56 -12 70 5 15 18 102 20 129 4 14 -9 25 -8 52 5 26 13 48 15 101 10 70 -7 118 0 118 16 0 9 -141 15 -151 6z m-609 -971 c0 -14 -2 -25 -4 -25 -2 0 -6 11 -8 25 -3 14 -1 25 3 25 5 0 9 -11 9 -25z"></path><path id="pvvCPWnhB" d="M4732 7389 l-11 -42 40 39 c21 21 39 39 39 41 0 2 -13 3 -29 3 -25 0 -30 -5 -39 -41z"></path><path id="ptJ6cSpi5" d="M9357 7193 c-3 -43 -8 -90 -12 -105 -6 -22 -4 -28 9 -28 10 0 14 5 10 11 -3 6 0 15 7 20 10 6 11 9 2 9 -19 0 -16 27 5 39 9 6 11 11 5 11 -18 0 -16 40 2 40 9 0 15 9 15 25 0 16 -6 25 -15 25 -18 0 -20 16 -2 23 7 4 6 6 -4 6 -14 1 -18 -13 -22 -76z"></path><path id="p8OrZsv89" d="M2635 7038 c-27 -12 -56 -30 -63 -40 -7 -10 -19 -18 -26 -18 -20 0 -77 -62 -72 -77 3 -7 -1 -13 -8 -13 -7 0 -23 -22 -35 -49 -23 -55 -26 -71 -11 -71 6 0 10 -7 10 -15 0 -8 -7 -15 -15 -15 -23 0 -20 -76 3 -90 12 -8 13 -13 5 -16 -19 -8 -16 -24 5 -25 10 0 12 -3 5 -6 -20 -8 -15 -23 7 -23 22 0 27 -16 8 -22 -27 -9 37 -72 93 -93 68 -24 79 -26 79 -12 0 7 5 6 10 -3 9 -13 11 -13 20 0 9 13 11 13 19 1 8 -12 16 -13 50 -3 22 7 47 19 55 27 8 8 19 15 25 15 6 0 11 5 11 10 0 6 4 10 10 10 16 0 79 74 80 93 0 10 4 16 9 13 5 -3 19 18 31 47 17 38 23 73 24 133 1 71 -3 87 -29 139 -40 79 -100 118 -189 122 -46 3 -73 -2 -111 -19z m219 -25 c23 -16 52 -49 66 -73 21 -38 25 -58 25 -130 0 -71 -4 -94 -27 -142 -49 -104 -147 -181 -244 -193 -218 -24 -313 254 -154 454 35 45 97 91 145 109 52 20 142 8 189 -25z"></path><path id="pBJLvoFOy" d="M9325 7020 c-4 -11 -17 -31 -30 -43 -19 -17 -25 -36 -30 -87 -6 -75 -22 -120 -41 -120 -8 0 -11 -6 -7 -15 3 -9 -2 -21 -11 -28 -13 -9 -18 -30 -20 -77 -3 -75 -22 -140 -41 -140 -25 0 -36 -30 -40 -114 -4 -77 -3 -86 13 -86 15 0 15 2 2 10 -13 9 -13 12 2 24 10 7 15 16 11 19 -3 4 -1 7 6 7 7 0 11 6 8 14 -3 8 -1 17 6 20 9 3 8 7 -2 14 -11 8 -9 14 10 33 12 12 18 24 12 26 -17 6 6 83 26 84 9 0 11 3 4 5 -14 6 -6 34 15 52 9 6 11 12 5 12 -16 0 33 152 54 168 9 6 11 12 5 12 -7 0 -12 5 -12 10 0 6 7 10 16 10 10 0 14 6 10 15 -3 8 -1 15 5 15 5 0 7 11 3 25 -4 18 -1 27 11 31 9 4 14 12 11 20 -3 7 0 15 7 18 9 5 9 7 0 12 -8 3 -9 15 -2 36 10 35 5 52 -6 18z"></path><path id="pn60WswuH" d="M1205 6499 c-10 -15 1 -23 20 -15 9 3 13 10 10 16 -8 13 -22 13 -30 -1z"></path><path id="pmvjb8rqV" d="M1253 6480 c-1 -19 3 -30 11 -30 21 0 24 10 12 35 -15 33 -21 31 -23 -5z"></path><path id="p12tgHAcOz" d="M1153 6493 c-18 -7 -16 -23 2 -23 8 0 15 7 15 15 0 8 -1 15 -2 14 -2 0 -9 -3 -15 -6z"></path><path id="pLoa7B5uQ" d="M1300 6414 c0 -14 3 -14 15 -4 8 7 15 14 15 16 0 2 -7 4 -15 4 -8 0 -15 -7 -15 -16z"></path><path id="pMm1nnJGC" d="M2182 6308 c6 -18 28 -21 28 -4 0 9 -7 16 -16 16 -9 0 -14 -5 -12 -12z"></path><path id="pgslwt4zR" d="M9055 6256 c-23 -18 -29 -31 -28 -59 1 -21 -5 -41 -13 -48 -11 -9 -12 -14 -3 -19 16 -10 1 -70 -17 -70 -8 0 -14 -8 -14 -18 0 -10 -4 -22 -9 -27 -6 -6 -12 -32 -14 -60 -3 -27 -8 -69 -12 -92 -6 -36 -5 -43 9 -43 9 0 16 5 16 10 0 6 -4 10 -9 10 -5 0 -7 9 -4 20 3 11 12 20 20 20 8 0 13 6 11 12 -3 7 2 19 9 27 8 8 12 22 10 32 -3 10 0 20 7 23 7 3 6 8 -4 15 -13 9 -12 11 5 11 13 0 16 3 8 8 -15 10 -5 52 12 52 7 0 15 7 19 15 3 8 1 15 -5 15 -15 0 -2 52 17 66 10 8 11 13 4 16 -15 5 -1 38 16 38 8 0 14 7 14 15 0 8 -4 15 -9 15 -5 0 -7 9 -4 20 7 25 4 25 -32 -4z"></path><path id="pKAc5hMYn" d="M3606 6261 c-4 -5 2 -7 12 -4 26 6 46 -36 38 -81 -5 -28 -4 -36 8 -36 8 0 18 5 21 10 4 6 11 8 16 5 5 -4 9 5 9 19 0 28 -27 66 -46 66 -7 0 -14 7 -18 15 -6 17 -32 20 -40 6z"></path><path id="pwEZw7FDz" d="M1750 6256 c0 -2 6 -9 14 -15 10 -9 15 -8 20 4 4 10 -1 15 -14 15 -11 0 -20 -2 -20 -4z"></path><path id="p1BzVy9aUX" d="M2895 6241 c2 -18 26 -22 32 -5 2 6 -5 14 -16 17 -13 3 -18 0 -16 -12z"></path><path id="p66bpyLkH" d="M3279 6248 c-1 -7 -1 -16 0 -20 0 -5 -3 -8 -9 -8 -5 0 -10 -7 -10 -15 0 -10 10 -15 28 -15 26 0 28 2 24 33 l-5 32 22 -24 c11 -13 18 -28 15 -32 -3 -5 2 -9 10 -9 9 0 16 4 16 9 0 5 9 13 20 16 23 7 27 35 5 35 -8 0 -20 -6 -27 -13 -10 -12 -16 -11 -32 5 -23 21 -55 24 -57 6z"></path><path id="pIJfSePW6" d="M3836 6244 c-11 -29 -6 -34 29 -34 23 0 35 -5 35 -14 0 -18 27 -29 36 -14 11 17 13 58 4 58 -5 0 -10 -5 -12 -12 -5 -14 -51 -4 -71 17 -13 13 -16 13 -21 -1z"></path><path id="pNvXlQDlw" d="M3021 6206 c14 -30 24 -33 33 -10 8 20 8 19 -22 28 -21 7 -21 6 -11 -18z"></path><path id="pNZ9UhlXA" d="M2870 6200 c0 -24 15 -27 24 -4 9 22 8 24 -9 24 -8 0 -15 -9 -15 -20z"></path><path id="pMhrATla7" d="M2947 6214 c-15 -15 -6 -24 24 -24 20 0 29 4 27 13 -5 14 -40 21 -51 11z"></path><path id="pkyHK2Zyx" d="M3104 6205 c-7 -17 4 -37 17 -30 12 8 12 45 -1 45 -6 0 -13 -7 -16 -15z"></path><path id="p1CDyDORtS" d="M3745 6209 c-10 -16 1 -22 26 -14 17 6 19 9 8 16 -19 12 -26 11 -34 -2z"></path><path id="porcfdjb" d="M3980 6208 c1 -7 7 -24 14 -37 l13 -24 5 26 c5 25 -7 47 -24 47 -4 0 -8 -6 -8 -12z"></path><path id="pYGsAEm6o" d="M3180 6186 c0 -9 7 -16 16 -16 17 0 14 22 -4 28 -7 2 -12 -3 -12 -12z"></path><path id="pgsmo7Jky" d="M2213 6149 c-7 -9 -9 -20 -3 -29 12 -19 22 -7 18 21 -2 19 -5 20 -15 8z"></path><path id="p8XbeNIuy" d="M3975 6130 c-4 -6 -4 -10 -1 -10 2 0 11 -3 20 -6 9 -3 16 -2 16 4 0 14 -28 23 -35 12z"></path><path id="p179iNrMCf" d="M2583 6073 c-23 -8 -14 -22 27 -42 22 -10 40 -15 40 -10 0 5 12 4 26 -1 29 -11 44 -6 44 16 0 8 5 14 10 14 6 0 10 -7 10 -15 0 -8 7 -15 15 -15 18 0 18 5 5 31 -8 14 -17 18 -35 13 -15 -4 -25 -2 -25 5 0 6 -11 10 -25 9 -19 -2 -24 -7 -19 -20 4 -14 0 -18 -20 -18 -17 0 -24 4 -20 14 6 15 -14 26 -33 19z"></path><path id="pYTXdI1RN" d="M4140 6045 c-18 -22 -1 -32 45 -27 39 5 48 22 12 22 -13 0 -28 5 -33 10 -8 8 -15 6 -24 -5z"></path><path id="pcQQz3zVl" d="M4090 6036 c0 -9 7 -16 16 -16 17 0 14 22 -4 28 -7 2 -12 -3 -12 -12z"></path><path id="pj5jZkJjP" d="M2350 5970 c-12 -8 -9 -10 13 -10 15 0 27 5 27 10 0 13 -20 13 -40 0z"></path><path id="p19qW3F4oe" d="M8903 5779 c-20 -7 -39 -52 -28 -69 3 -5 1 -28 -4 -52 -12 -54 -21 -117 -14 -100 2 6 12 12 20 12 9 0 13 6 9 15 -3 8 0 15 7 15 8 0 7 4 -3 10 -13 9 -13 12 4 25 10 7 15 18 12 23 -3 6 0 13 6 15 10 4 10 6 1 6 -20 1 -15 21 5 22 10 0 12 3 5 6 -19 7 -16 23 5 24 10 0 12 3 5 6 -17 6 -16 21 1 25 11 2 11 6 2 14 -7 6 -21 8 -33 3z"></path><path id="pwRrosVBz" d="M8824 5530 c-18 -7 -23 -20 -29 -72 -11 -103 -22 -139 -50 -168 -22 -23 -27 -39 -32 -104 -5 -66 -4 -76 11 -76 19 0 22 20 4 21 -7 0 -4 4 7 9 11 5 14 9 8 9 -19 1 -16 21 3 21 10 0 14 6 11 14 -3 8 -1 17 6 20 9 3 9 5 0 5 -20 1 -15 21 5 22 10 0 12 3 5 6 -19 7 -16 23 5 24 10 0 12 3 5 6 -7 2 -13 11 -13 18 0 25 23 65 36 65 10 0 12 9 8 30 -5 22 -2 31 10 36 9 3 13 11 10 16 -4 6 0 14 7 19 10 6 11 9 2 9 -20 0 -15 20 5 21 10 0 12 3 5 6 -8 3 -11 14 -7 29 3 13 5 24 3 23 -2 0 -14 -4 -25 -9z"></path><path id="p1Bgwv1tcl" d="M8674 5033 c-3 -10 -12 -34 -20 -53 -7 -19 -16 -52 -20 -72 -5 -33 -4 -38 12 -37 11 0 14 3 7 6 -19 7 -16 23 5 23 14 0 15 2 2 10 -13 8 -12 10 4 10 12 0 16 5 13 14 -3 8 -1 17 6 19 9 3 8 8 -2 20 -12 15 -11 17 5 18 11 0 14 3 7 6 -8 3 -11 14 -7 29 7 27 -4 33 -12 7z"></path><path id="poe9zcec2" d="M9290 4919 c0 -8 -16 -10 -50 -6 -31 4 -50 2 -50 -4 0 -6 -9 -8 -20 -4 -12 4 -20 2 -20 -5 0 -7 -8 -9 -19 -5 -12 4 -21 0 -25 -11 -4 -10 -13 -14 -26 -11 -11 3 -20 1 -20 -5 0 -5 -4 -6 -10 -3 -5 3 -10 1 -10 -5 0 -6 -5 -8 -12 -4 -6 4 -17 -1 -25 -11 -7 -11 -13 -15 -13 -10 0 5 -7 -1 -16 -13 -9 -13 -22 -21 -29 -18 -7 2 -16 -2 -19 -10 -3 -9 -10 -13 -15 -10 -5 3 -16 -6 -26 -20 -9 -14 -19 -23 -23 -20 -8 9 -72 -55 -72 -71 0 -8 -7 -16 -15 -19 -8 -4 -15 -13 -15 -20 0 -8 -7 -17 -15 -20 -8 -4 -15 -12 -15 -19 0 -8 -6 -20 -13 -27 -18 -17 -83 -191 -92 -243 -20 -113 3 -337 41 -414 9 -18 17 -46 18 -61 3 -58 142 -234 234 -296 50 -33 79 -44 67 -24 -11 17 19 11 45 -10 14 -11 32 -20 41 -20 9 0 19 -3 23 -7 3 -4 12 -8 19 -9 7 -1 32 -7 57 -14 91 -26 352 -18 384 11 6 5 18 9 27 9 17 0 119 48 129 61 3 3 14 9 26 13 12 3 35 24 53 46 18 22 38 40 45 40 7 0 21 9 31 20 10 11 15 20 11 20 -4 0 5 16 20 35 14 19 32 35 38 35 15 0 38 38 31 50 -4 6 -1 10 5 10 6 0 8 5 5 10 -3 6 -1 10 5 10 6 0 8 5 5 10 -3 6 1 10 9 10 18 0 52 87 73 190 23 109 14 260 -22 368 -23 67 -31 82 -49 83 -11 0 -15 3 -8 6 19 8 15 21 -33 93 -53 80 -178 202 -199 194 -21 -8 -56 14 -50 31 6 14 -5 20 -34 16 -8 -2 -29 5 -47 13 -18 9 -48 19 -67 22 -43 8 -88 27 -88 37 0 4 -8 3 -18 -2 -20 -11 -62 -4 -62 10 0 5 -22 9 -50 9 -31 0 -50 -4 -50 -11z"></path><path id="pybRRx4Bi" d="M8570 4710 c-7 -16 -10 -35 -7 -42 2 -7 8 -1 12 14 4 15 13 28 20 30 11 2 11 5 0 15 -10 9 -15 6 -25 -17z"></path><path id="pkkiqzoij" d="M893 4358 c-6 -7 -13 -26 -17 -43 -4 -16 -11 -47 -16 -67 -6 -21 -14 -55 -19 -75 -4 -21 -19 -74 -31 -118 -12 -44 -25 -95 -27 -112 -3 -18 -8 -33 -12 -33 -4 0 -8 -14 -9 -31 -1 -17 -9 -44 -18 -60 -8 -16 -12 -34 -9 -39 3 -6 3 -16 -2 -22 -4 -7 -9 -24 -11 -38 -1 -14 -7 -38 -13 -55 -6 -16 -13 -43 -15 -59 -2 -16 -8 -34 -13 -40 -5 -6 -16 -47 -25 -91 -10 -44 -24 -102 -31 -130 -8 -27 -17 -61 -20 -75 -4 -14 -15 -58 -26 -99 -10 -40 -19 -84 -19 -98 0 -13 -7 -38 -16 -54 -8 -17 -13 -33 -10 -36 3 -3 -1 -21 -9 -41 -8 -19 -17 -44 -19 -56 -3 -11 -16 -66 -30 -121 -43 -173 -49 -211 -44 -291 6 -106 42 -187 112 -251 29 -27 60 -53 70 -58 18 -10 18 -13 -5 -55 -13 -24 -29 -50 -36 -57 -7 -8 -25 -51 -40 -96 -25 -76 -27 -94 -28 -248 0 -107 4 -171 11 -180 6 -8 14 -30 17 -50 8 -55 68 -176 121 -246 92 -122 259 -234 397 -268 113 -28 122 -29 219 -29 88 1 255 32 285 54 6 4 27 13 47 19 21 7 38 17 38 22 0 5 5 9 10 9 6 0 23 11 38 25 15 14 32 25 39 25 7 0 13 5 13 10 0 6 5 10 11 10 41 0 200 193 211 255 2 11 5 22 8 25 12 12 30 62 25 71 -4 5 -1 9 6 9 6 0 9 8 6 20 -3 11 -1 20 3 20 5 0 12 21 16 46 5 34 3 48 -7 55 -11 7 -10 9 4 9 15 0 17 10 17 79 0 64 -3 80 -16 85 -14 5 -16 16 -11 61 3 30 2 55 -3 55 -4 0 -6 9 -3 19 6 25 -55 141 -74 141 -8 0 -12 4 -8 9 3 5 -3 11 -12 14 -15 3 -14 6 7 14 21 9 22 12 8 18 -9 4 -14 13 -11 21 3 9 -1 14 -12 14 -9 0 -13 5 -10 10 3 5 2 10 -3 10 -6 0 -9 8 -8 17 0 9 -10 23 -24 30 -14 7 -21 13 -16 13 5 0 1 9 -9 20 -10 11 -23 20 -29 20 -6 0 -16 10 -21 23 -6 12 -20 23 -32 25 -13 2 -23 10 -23 18 0 8 -13 17 -30 20 -16 4 -30 13 -30 20 0 8 -9 14 -21 14 -25 0 -61 18 -72 37 -5 7 -12 11 -18 8 -10 -7 -79 15 -79 25 0 3 -37 4 -82 2 -69 -3 -84 -1 -95 14 -7 10 -13 12 -13 6 0 -7 -13 -12 -30 -12 -16 0 -30 5 -30 10 0 15 -30 12 -47 -6 -13 -13 -18 -13 -24 -2 -6 9 -11 10 -16 2 -11 -14 -105 -34 -131 -28 -13 4 -28 -2 -41 -15 -12 -12 -26 -19 -31 -16 -6 4 -10 1 -10 -5 0 -6 -4 -8 -10 -5 -5 3 -10 1 -10 -5 0 -6 -4 -9 -10 -5 -5 3 -18 -2 -28 -12 -10 -10 -25 -19 -33 -21 -8 -1 -31 -22 -51 -45 -21 -23 -38 -38 -38 -33 0 6 -15 -4 -32 -21 -27 -25 -41 -31 -73 -29 -28 1 -39 5 -37 15 2 8 -10 28 -26 45 -52 54 -66 93 -70 196 -3 79 1 113 23 200 17 68 23 106 16 108 -16 5 -13 22 3 22 9 0 21 29 36 83 12 45 24 90 26 100 3 9 1 17 -5 17 -6 0 -11 5 -11 10 0 6 6 10 14 10 19 0 32 70 14 81 -9 6 -8 9 7 9 16 0 17 2 5 10 -13 8 -13 11 2 22 10 7 27 51 39 101 19 76 21 90 8 98 -11 7 -11 9 4 9 9 0 17 5 17 10 0 6 -4 10 -10 10 -18 0 -11 20 8 21 10 0 12 3 5 6 -19 7 -16 33 5 34 10 0 12 3 5 6 -10 3 -9 9 3 21 11 11 13 17 5 20 -18 6 -13 32 7 32 13 0 14 2 3 9 -11 7 -9 13 8 30 24 24 27 47 9 54 -9 3 -7 10 7 21 11 8 15 16 8 16 -18 0 -16 20 1 20 17 0 32 53 17 58 -16 5 -13 42 3 48 21 8 44 66 28 72 -17 5 -15 22 3 22 18 0 20 30 3 31 -7 0 -4 4 7 9 11 5 14 9 7 9 -10 1 -9 5 3 17 13 14 14 19 3 25 -8 6 -9 9 -1 9 15 0 37 64 23 68 -17 6 -11 32 8 33 10 0 12 3 5 6 -17 6 -16 23 1 23 19 0 31 51 14 61 -10 6 -8 12 7 23 12 10 15 15 7 16 -10 0 -9 5 4 17 11 12 13 18 5 21 -8 3 -6 9 6 18 16 12 16 15 3 24 -13 9 -13 12 1 23 14 11 14 14 -6 35 -17 18 -24 20 -32 10z"></path><path id="p1Da6nHaCW" d="M8317 3738 c-6 -24 -10 -165 -6 -208 1 -14 5 31 9 100 4 69 6 126 4 128 -1 2 -4 -7 -7 -20z"></path><path id="pV4wkZohA" d="M7247 3703 c-16 -15 -5 -21 23 -13 18 5 30 5 30 -1 0 -5 12 -9 28 -8 15 0 38 -3 51 -7 18 -5 23 -4 19 7 -7 22 -133 40 -151 22z"></path><path id="pJXNyLWdK" d="M7195 3681 c-3 -5 -1 -12 5 -16 5 -3 10 -1 10 5 0 6 5 8 10 5 6 -3 10 -1 10 4 0 13 -27 14 -35 2z"></path><path id="pFHJKCcfq" d="M7410 3676 c0 -14 8 -16 55 -11 30 3 55 2 55 -3 0 -4 36 -6 80 -5 48 2 80 -1 80 -7 0 -14 137 -13 145 1 4 6 5 12 4 13 -2 2 -76 6 -164 10 -88 3 -182 9 -208 12 -40 6 -47 4 -47 -10z"></path><path id="p5vPnipm7" d="M7143 3664 c-38 -16 -46 -39 -10 -28 12 3 24 11 25 15 2 5 8 7 13 3 5 -3 9 2 9 10 0 9 -1 16 -2 15 -2 0 -18 -7 -35 -15z"></path><path id="pV22X8Y2u" d="M7047 3634 c-3 -4 -169 -61 -368 -128 -199 -66 -362 -125 -361 -131 1 -15 19 -17 33 -3 8 7 25 14 39 16 14 1 26 6 28 11 2 5 11 7 21 4 10 -2 24 1 32 9 8 7 25 14 39 16 13 1 27 7 31 14 4 6 12 7 18 4 6 -4 11 -3 11 3 0 6 7 8 15 5 8 -4 15 -1 15 5 0 6 7 8 15 5 8 -4 15 -1 15 6 0 6 4 9 8 6 12 -7 82 15 82 26 0 5 4 6 10 3 9 -6 159 42 170 54 3 3 16 7 30 9 14 1 26 7 28 12 2 5 10 6 18 3 8 -3 14 -1 14 3 0 5 13 10 30 11 34 3 70 19 70 33 0 11 -33 14 -43 4z"></path><path id="paJDtIsCo" d="M7840 3585 c0 -8 7 -15 15 -15 8 0 15 7 15 15 0 8 -7 15 -15 15 -8 0 -15 -7 -15 -15z"></path><path id="ptqn7do6b" d="M7830 3419 c0 -58 4 -85 15 -95 13 -14 15 -5 15 80 0 79 -3 96 -15 96 -12 0 -15 -16 -15 -81z"></path><path id="p13t50ig6X" d="M8314 3375 c3 -38 22 -137 41 -220 44 -185 46 -212 16 -253 -49 -70 -127 -76 -244 -18 -124 62 -199 161 -242 321 -11 39 -23 65 -31 65 -8 0 -14 -8 -14 -19 0 -26 20 -81 30 -81 4 0 6 -9 3 -20 -4 -15 0 -20 13 -20 16 0 17 -2 4 -10 -9 -6 -11 -10 -3 -10 7 0 10 -7 7 -15 -4 -10 0 -15 12 -15 16 0 17 -2 4 -10 -8 -5 -10 -10 -4 -10 6 0 11 -6 11 -13 0 -25 56 -97 107 -135 83 -63 208 -114 222 -90 4 5 10 5 17 -1 21 -16 80 17 111 62 38 54 37 93 -3 252 -16 66 -35 160 -41 210 -13 107 -25 129 -16 30z"></path><path id="p14SERgbp3" d="M6271 3369 c-20 -8 -22 -12 -11 -22 10 -9 13 -9 17 1 3 6 9 10 14 6 5 -3 9 2 9 10 0 9 -1 16 -2 15 -2 0 -14 -5 -27 -10z"></path><path id="p15gbjqkDM" d="M6167 3333 c-59 -22 -71 -31 -89 -67 -67 -133 -178 -275 -246 -318 l-33 -20 3 -145 3 -146 42 -12 c206 -61 353 -308 353 -595 0 -113 -14 -179 -47 -227 -14 -19 -18 -34 -12 -48 7 -18 8 -18 9 5 0 14 7 34 15 44 8 10 24 48 36 84 19 57 21 78 15 165 -8 129 -27 200 -81 312 -54 112 -132 197 -225 242 -36 18 -73 34 -82 37 -16 5 -18 20 -18 135 0 122 1 131 21 141 54 30 132 131 239 312 30 49 39 58 77 67 24 6 43 16 43 21 0 5 7 7 15 4 8 -4 15 -1 15 6 0 6 5 8 10 5 6 -3 10 1 10 9 0 9 -1 16 -2 15 -2 0 -34 -12 -71 -26z"></path><path id="pBsHPD0Nx" d="M9387 3063 c9 -14 18 -33 19 -41 2 -8 12 -23 23 -33 12 -11 21 -29 21 -39 0 -11 5 -20 10 -20 6 0 10 -16 10 -35 0 -19 -5 -35 -11 -35 -7 0 -8 -14 -4 -40 6 -33 4 -40 -9 -40 -9 0 -22 -11 -28 -25 -6 -14 -17 -25 -25 -25 -15 0 -17 -16 -3 -25 6 -3 10 -15 10 -26 0 -19 -1 -20 -17 -3 -17 16 -18 15 -26 -24 -4 -23 -11 -42 -15 -42 -15 1 -40 27 -43 45 -4 16 -7 14 -20 -13 -15 -30 -18 -32 -32 -18 -17 17 -57 22 -57 7 0 -16 -40 -19 -55 -4 -13 13 -15 13 -15 -2 0 -26 -24 -44 -43 -33 -10 5 -22 6 -27 3 -6 -3 -10 -1 -10 4 0 20 -42 12 -47 -8 -3 -11 -12 -22 -22 -24 -11 -3 -10 -5 5 -6 12 0 25 -8 28 -17 5 -13 1 -14 -24 -9 -17 4 -30 2 -30 -3 0 -5 -11 -14 -25 -20 -21 -10 -25 -9 -26 6 0 11 -4 7 -10 -9 -12 -33 -48 -45 -65 -22 -10 15 -13 13 -28 -15 -9 -18 -13 -32 -9 -32 10 0 -19 -20 -30 -20 -4 0 -12 11 -17 25 -5 14 -14 25 -20 25 -14 0 -13 -27 2 -32 6 -2 8 -10 4 -16 -5 -8 -21 -10 -47 -6 -26 4 -39 3 -39 -5 0 -6 -7 -11 -15 -11 -8 0 -15 -6 -15 -14 0 -17 -24 -28 -37 -15 -5 5 -22 4 -41 -3 -26 -10 -34 -10 -41 0 -9 16 -41 5 -41 -14 0 -8 5 -14 10 -14 15 0 12 -40 -4 -46 -8 -3 -12 -13 -9 -23 4 -14 -2 -20 -26 -23 -34 -5 -42 6 -30 40 8 20 6 22 -26 22 -27 0 -35 4 -35 18 0 14 -2 15 -10 2 -6 -9 -5 -17 1 -21 12 -7 2 -76 -12 -84 -4 -3 -16 -1 -26 4 -10 5 -40 13 -68 18 -27 4 -50 13 -50 18 0 19 -16 35 -33 35 -16 -1 -16 -2 1 -14 10 -8 15 -20 11 -30 -8 -22 -21 -20 -29 4 l-6 20 -26 -20 c-20 -16 -29 -18 -40 -9 -10 9 -19 9 -37 0 -19 -11 -27 -10 -45 1 -16 9 -24 10 -29 2 -4 -6 -23 -14 -42 -16 -19 -3 -50 -12 -68 -19 -30 -13 -35 -12 -47 4 -13 18 -13 18 -19 -1 -4 -11 -4 -27 0 -36 4 -11 0 -22 -12 -31 -15 -11 -17 -16 -6 -26 6 -7 12 -19 12 -26 0 -19 -27 -16 -34 5 -13 37 -32 57 -48 54 -19 -4 -25 -22 -8 -22 14 0 12 -27 -2 -33 -18 -6 -48 11 -48 27 0 16 -38 28 -46 14 -3 -5 3 -12 15 -15 23 -6 28 -28 9 -35 -7 -3 -43 -4 -80 -4 -38 1 -69 -2 -70 -5 -2 -4 -13 -10 -25 -13 -16 -5 -23 -3 -23 6 0 7 -4 19 -9 27 -8 12 -12 12 -26 -2 -13 -13 -21 -15 -36 -6 -15 7 -24 7 -34 -1 -8 -7 -28 -9 -49 -4 -25 4 -36 3 -36 -6 0 -6 -7 -18 -16 -27 -12 -12 -20 -13 -39 -5 -18 9 -27 8 -37 -2 -18 -17 -58 -27 -58 -13 0 6 7 19 17 29 15 17 15 18 -4 18 -10 0 -30 -10 -43 -22 l-25 -23 23 -3 c12 -2 22 -10 22 -17 0 -22 -19 -28 -36 -10 -9 9 -19 13 -22 10 -4 -3 -2 -9 3 -13 17 -12 18 -52 1 -52 -8 0 -21 -3 -30 -6 -11 -4 -16 -1 -16 10 0 9 7 19 15 22 19 8 12 19 -25 38 -24 11 -30 12 -30 2 0 -16 -60 -27 -117 -21 -24 2 -43 0 -43 -5 0 -6 7 -10 16 -10 13 0 14 -3 4 -14 -6 -8 -18 -12 -26 -9 -18 7 -18 -12 1 -41 15 -22 14 -24 -4 -29 -17 -4 -19 -9 -11 -36 7 -24 5 -31 -5 -31 -8 0 -17 9 -20 20 -8 24 -18 25 -36 3 -10 -11 -10 -14 -2 -9 8 4 17 -2 25 -18 6 -14 16 -26 22 -26 21 0 -19 -20 -41 -20 -13 0 -23 -4 -23 -10 0 -5 -9 -19 -19 -29 -17 -17 -22 -17 -39 -5 -17 12 -21 12 -26 -2 -4 -9 -1 -23 5 -30 6 -8 9 -25 7 -39 -4 -18 -1 -25 10 -25 37 0 -25 -41 -100 -66 -97 -32 -99 -41 -3 -12 39 11 77 22 85 23 8 1 29 7 45 14 17 7 50 17 75 23 25 6 59 17 77 24 17 8 40 14 50 14 10 0 23 4 29 9 5 5 45 19 89 31 44 12 135 42 202 66 68 24 131 44 140 44 17 0 106 30 148 50 11 5 45 16 75 24 105 28 135 37 155 46 11 5 61 22 110 38 50 17 123 42 163 57 74 27 106 26 65 -2 -13 -9 -23 -21 -23 -27 -1 -10 -38 -40 -117 -94 -18 -12 -33 -29 -33 -36 0 -8 -12 -24 -26 -35 -15 -11 -35 -39 -46 -61 -11 -22 -24 -40 -28 -40 -9 0 -12 -7 -52 -115 -43 -117 -58 -189 -58 -290 0 -90 24 -217 55 -290 9 -24 11 -42 6 -53 -5 -9 -25 -52 -45 -95 -42 -93 -112 -166 -183 -193 -26 -10 -50 -20 -53 -23 -9 -11 -130 -11 -130 -1 0 5 -7 7 -16 3 -9 -3 -20 0 -25 8 -4 8 -25 14 -47 15 -26 0 -46 8 -61 23 -19 19 -29 21 -61 16 -40 -7 -80 9 -80 32 0 13 -18 18 -57 14 -14 -1 -23 4 -23 12 0 14 -73 41 -115 43 -46 2 -55 5 -55 19 0 16 0 16 -77 20 -55 2 -123 31 -123 51 0 13 -46 28 -60 19 -15 -9 -60 6 -60 20 0 9 -12 13 -32 13 -18 -1 -52 2 -74 6 -39 8 -41 7 -40 -14 1 -17 14 -27 60 -46 33 -13 67 -24 76 -24 9 0 21 -5 26 -10 6 -6 62 -28 125 -49 62 -21 186 -65 274 -96 403 -144 470 -161 582 -143 129 20 216 87 289 224 l42 77 28 -44 c46 -74 163 -180 255 -232 136 -77 220 -100 369 -100 145 -1 199 3 206 15 3 4 9 6 14 3 4 -3 21 2 36 10 16 8 35 15 43 15 24 0 141 63 165 87 11 13 26 23 31 23 17 1 60 38 60 52 0 7 11 18 25 25 30 15 81 73 74 85 -3 4 1 8 8 8 16 0 41 37 33 50 -4 6 0 10 8 10 16 0 81 133 67 138 -5 2 -1 13 10 25 22 23 27 57 8 57 -8 0 -6 5 4 11 17 9 22 29 32 117 3 31 1 42 -10 42 -8 0 -14 10 -14 25 0 14 6 25 14 25 33 0 -13 221 -74 347 -32 68 -43 83 -62 83 -17 0 -19 3 -9 9 18 12 5 31 -22 31 -18 0 -19 2 -7 10 12 8 5 20 -40 66 -65 67 -129 116 -141 108 -15 -9 -48 6 -43 20 6 17 -18 27 -74 31 -24 2 -49 8 -55 13 -7 5 -27 12 -46 16 -19 3 -40 14 -47 24 -13 16 -13 16 -14 0 0 -14 -6 -16 -32 -11 -18 4 -39 13 -47 20 -10 10 -16 11 -21 3 -10 -15 -150 -26 -150 -11 0 14 -66 15 -75 1 -3 -5 -21 -10 -39 -10 -19 0 -50 -7 -69 -15 -46 -19 -53 -19 -36 2 13 15 12 16 -9 11 -12 -4 -20 -2 -17 3 4 5 16 8 28 8 48 -1 139 18 175 37 15 8 35 14 44 14 18 0 165 45 282 86 38 14 89 29 115 35 25 5 73 20 106 33 33 14 155 55 270 92 116 36 224 72 240 79 50 21 411 135 429 135 20 0 116 41 116 50 0 14 -62 64 -79 65 -11 0 -74 52 -142 115 -67 63 -138 130 -158 148 -20 19 -50 47 -67 63 -38 36 -50 37 -27 2z m143 -159 c0 -8 -9 -14 -20 -14 -22 0 -26 10 -8 28 13 13 28 7 28 -14z m-479 -363 c1 -14 2 -14 6 2 5 18 33 24 33 7 0 -10 -36 -50 -45 -50 -3 0 -5 9 -5 20 0 11 -4 20 -10 20 -5 0 -10 7 -10 15 0 20 30 7 31 -14z m-1147 -326 c-4 -8 -15 -15 -25 -15 -10 0 -19 7 -19 15 0 9 9 15 25 15 18 0 23 -4 19 -15z m131 -144 c7 -12 -12 -24 -25 -16 -11 7 -4 25 10 25 5 0 11 -4 15 -9z m-705 -16 c7 -9 10 -18 6 -22 -3 -3 -6 -1 -6 5 0 7 -9 12 -20 12 -11 0 -20 5 -20 10 0 15 26 12 40 -5z m-130 -25 c0 -5 -7 -10 -15 -10 -8 0 -15 5 -15 10 0 6 7 10 15 10 8 0 15 -4 15 -10z m-271 -97 c0 -25 -1 -25 -8 -8 -5 11 -7 23 -4 28 8 14 13 7 12 -20z m-169 -128 c0 -8 -7 -15 -15 -15 -8 0 -15 7 -15 15 0 8 7 15 15 15 8 0 15 -7 15 -15z m-120 -114 c0 -12 -23 -31 -37 -31 -16 0 -17 22 -2 37 11 11 39 7 39 -6z"></path><path id="pQg2nPoLn" d="M8071 2363 c-1 -7 -8 -13 -16 -13 -8 0 -15 -4 -15 -10 0 -12 10 -13 29 -1 7 5 11 15 8 22 -4 10 -6 10 -6 2z"></path><path id="p7xUQsyL0" d="M6150 1724 c1 -23 39 -157 39 -139 1 25 -24 134 -33 142 -3 4 -6 2 -6 -3z"></path></g></g><g id="l3qwIERDwVdj13t4ZKoGaAl" fill="rgb(249,228,188)" style="transform: none;"><g style="transform: none;"><path id="pOKarSpBL" d="M5286 7668 c-8 -13 -42 -86 -76 -163 -100 -225 -177 -343 -283 -434 -27 -22 -56 -41 -66 -41 -19 0 -41 18 -41 35 0 5 42 53 93 105 102 106 134 158 222 369 52 126 53 129 32 135 -41 11 -96 6 -111 -10 -9 -8 -53 -70 -98 -137 -51 -76 -114 -154 -167 -206 l-85 -85 -28 -175 c-15 -97 -24 -178 -20 -182 23 -20 321 -69 424 -69 142 0 259 57 374 183 102 112 176 255 214 412 27 108 26 161 -1 175 -11 7 -22 10 -23 8 -2 -2 -15 -55 -30 -118 -44 -189 -126 -366 -210 -452 -38 -39 -82 -51 -92 -24 -3 7 18 44 47 82 87 115 159 283 195 458 20 96 16 108 -38 121 -25 6 -27 4 -38 -37 -20 -80 -83 -252 -125 -344 -77 -167 -210 -334 -266 -334 -19 0 -30 6 -34 21 -6 17 2 29 37 60 57 48 139 167 189 273 49 105 119 311 119 352 0 29 -3 32 -37 38 -57 9 -61 8 -77 -16z"></path><path id="p1A02JEtSU" d="M6840 7559 c-373 -21 -773 -39 -872 -39 l-109 0 23 -31 c48 -64 58 -85 58 -126 0 -75 -82 -136 -202 -150 -47 -6 -52 -9 -77 -51 -127 -215 -264 -350 -416 -408 -69 -26 -248 -24 -409 5 -65 12 -120 20 -122 18 -2 -2 -11 -120 -19 -263 -52 -908 -49 -1502 10 -1949 28 -212 45 -244 165 -321 41 -26 117 -78 169 -117 86 -63 96 -68 130 -62 105 19 308 155 456 304 44 45 87 81 97 81 24 0 49 -40 114 -181 114 -249 218 -555 257 -755 l21 -112 91 33 c49 18 289 99 533 180 l442 147 -29 33 c-16 18 -34 50 -41 71 -16 47 -8 149 14 196 17 36 17 37 -9 76 -15 22 -29 58 -32 80 -7 50 13 145 36 173 18 22 17 24 -10 77 -45 84 -34 179 27 250 18 22 31 41 29 44 -3 3 -9 27 -14 54 -15 74 3 129 59 185 41 41 59 50 168 85 l122 39 0 50 c0 115 51 234 138 323 l52 54 -25 247 c-14 135 -25 251 -25 257 0 6 -25 28 -55 49 -86 59 -194 180 -261 291 -10 16 -21 -1 -84 -126 -40 -80 -104 -203 -143 -275 -134 -249 -148 -311 -151 -699 -2 -232 -4 -260 -19 -270 -12 -8 -22 -8 -34 0 -17 10 -18 36 -18 305 0 317 10 400 58 512 21 49 22 60 15 177 -10 167 -38 710 -38 736 0 28 -142 252 -263 413 -130 173 -131 175 -111 195 23 23 36 20 71 -16 75 -81 267 -354 338 -483 38 -69 39 -73 60 -430 8 -137 18 -284 21 -325 l6 -75 65 129 65 130 -11 110 c-11 114 -25 457 -37 909 l-6 257 -62 -1 c-33 -1 -126 -6 -206 -10z m-1937 -3021 c39 -47 7 -118 -55 -118 -44 0 -68 25 -68 71 0 71 77 101 123 47z"></path><path id="pGrFlj4CY" d="M5745 7397 c-11 -45 -21 -87 -23 -93 -5 -18 85 0 116 23 15 11 28 27 30 35 3 18 -37 69 -77 97 l-27 19 -19 -81z"></path><path id="pNC1CBcYt" d="M8012 7430 c-204 -98 -351 -238 -413 -390 -25 -64 -40 -262 -20 -274 7 -5 11 3 11 24 0 48 36 169 72 240 27 53 38 65 57 65 42 0 48 -28 19 -82 -54 -98 -63 -158 -63 -398 0 -134 5 -249 13 -295 7 -41 28 -223 46 -403 19 -180 36 -330 38 -332 2 -3 20 0 39 5 50 15 95 12 110 -6 21 -26 -2 -47 -68 -65 -158 -41 -263 -168 -263 -319 0 -49 1 -50 30 -50 36 0 71 -43 51 -63 -6 -6 -69 -25 -139 -43 -220 -54 -302 -104 -302 -183 0 -69 12 -75 126 -62 54 7 156 15 226 18 l128 6 9 -24 c6 -16 5 -28 -3 -36 -7 -8 -90 -21 -211 -33 -256 -26 -260 -27 -300 -64 -51 -49 -59 -124 -17 -175 17 -22 22 -22 311 -24 268 -2 295 -4 305 -19 8 -13 8 -23 0 -35 -10 -16 -41 -19 -290 -26 -311 -9 -316 -10 -343 -80 -18 -47 -7 -100 27 -138 27 -30 28 -30 197 -44 94 -8 232 -18 308 -21 137 -6 137 -6 144 -32 14 -58 -43 -61 -460 -31 -118 9 -150 9 -163 -2 -46 -38 -58 -128 -24 -172 65 -83 164 -101 575 -103 176 -2 326 -3 333 -3 6 -1 12 -12 12 -25 0 -32 -12 -39 -90 -51 l-65 -10 -8 -60 c-13 -109 -12 -316 2 -375 41 -161 124 -257 258 -296 40 -12 57 -13 74 -4 26 14 24 38 -19 200 -37 142 -52 260 -52 415 0 133 15 229 83 545 48 220 61 292 107 610 60 415 87 535 255 1155 106 392 126 503 133 708 6 216 -6 300 -64 458 l-25 66 -54 7 c-72 8 -200 56 -277 102 -77 47 -187 150 -228 215 -18 27 -37 49 -44 49 -7 0 -49 -18 -94 -40z"></path><path id="p1DhVA28ca" d="M7456 6950 c-49 -77 -86 -167 -99 -247 -26 -153 50 -330 207 -482 25 -25 48 -42 52 -39 3 4 -2 87 -11 185 -15 146 -22 185 -41 218 -43 77 -67 173 -68 270 -1 49 2 105 6 123 4 17 4 32 0 32 -4 0 -24 -27 -46 -60z"></path><path id="pNGGTr0fU" d="M4606 6665 c-4 -22 -14 -74 -22 -115 -18 -95 -35 -196 -84 -490 -62 -368 -95 -482 -159 -553 -66 -73 -74 -75 -506 -97 -212 -11 -390 -22 -395 -25 -4 -3 -11 -38 -14 -77 -4 -40 -12 -116 -17 -168 -6 -52 -18 -191 -28 -308 -19 -223 -22 -235 -66 -230 -19 3 -20 10 -19 109 1 97 16 318 33 498 7 64 6 71 -7 55 -27 -37 -124 -241 -155 -329 -31 -86 -34 -90 -62 -90 -25 0 -30 4 -33 28 -8 63 109 334 191 445 26 34 47 64 47 67 0 3 -10 3 -23 1 -12 -3 -176 -10 -364 -17 -220 -8 -343 -16 -343 -23 0 -5 56 -125 124 -266 68 -140 170 -352 226 -470 162 -339 215 -425 327 -530 64 -60 101 -83 253 -160 202 -102 681 -322 688 -316 2 2 -1 13 -7 24 -31 59 -81 258 -100 402 -36 263 -35 310 6 310 14 0 234 -171 299 -232 l31 -29 119 60 c66 34 135 74 154 89 l34 29 -36 46 c-44 57 -62 129 -83 322 -27 257 -35 427 -35 810 0 367 6 557 31 1015 11 214 10 295 -5 215z"></path><path id="pJPphrgAn" d="M5635 4261 c-135 -130 -257 -211 -402 -267 -21 -9 -18 -14 55 -89 326 -337 512 -631 512 -812 l0 -66 26 24 c34 32 161 219 184 273 19 41 19 47 4 132 -16 95 -56 263 -79 329 -59 178 -196 525 -214 547 -3 4 -42 -28 -86 -71z"></path><path id="pT98vBrXU" d="M4773 4168 c-83 -93 -197 -340 -228 -493 l-6 -31 119 -16 c93 -13 139 -25 215 -57 122 -52 251 -126 345 -198 85 -65 220 -207 228 -240 7 -25 -10 -53 -32 -53 -7 0 -57 44 -111 98 -208 208 -389 295 -613 294 -276 -2 -454 -145 -630 -507 -128 -264 -162 -441 -176 -917 -6 -175 -4 -231 5 -242 47 -56 257 -81 335 -40 60 31 79 73 72 164 -5 71 -17 122 -81 365 -36 137 -42 229 -18 275 27 51 89 80 176 80 120 0 267 -46 267 -83 0 -7 -6 -22 -14 -32 -14 -19 -16 -19 -99 3 -139 36 -236 28 -259 -23 -13 -29 -9 -52 66 -339 50 -195 60 -313 32 -380 -54 -131 -217 -180 -401 -122 -54 17 -77 21 -83 12 -13 -21 -5 -268 13 -351 25 -120 31 -129 88 -133 27 -2 82 4 124 12 151 32 216 23 642 -84 307 -77 377 -90 474 -90 74 0 79 2 114 33 l36 34 -11 58 c-7 32 -12 104 -12 161 0 138 18 191 89 263 90 93 121 184 121 362 0 119 7 129 86 129 l55 0 20 -48 c11 -26 27 -64 36 -84 22 -51 87 -114 140 -134 58 -22 135 -15 168 16 38 36 48 90 42 225 -7 174 -53 297 -151 403 -50 55 -105 83 -176 91 -47 5 -55 9 -61 31 -4 14 -7 155 -8 314 l-1 289 -51 95 c-163 306 -491 667 -781 861 -42 28 -78 51 -80 51 -3 0 -14 -10 -25 -22z m-134 -1063 c12 -12 13 -20 5 -32 -8 -13 -37 -21 -109 -30 -53 -6 -100 -14 -102 -17 -3 -3 -14 -1 -25 5 -28 15 -20 60 14 77 38 18 137 30 173 20 16 -4 36 -15 44 -23z m111 -203 c94 -31 160 -75 160 -107 0 -46 -38 -49 -122 -10 -125 57 -284 71 -434 38 -74 -16 -77 -16 -91 2 -20 29 -12 48 29 68 59 29 115 36 258 33 104 -2 150 -8 200 -24z m1120 -552 c11 -6 31 -30 45 -54 30 -51 33 -124 9 -185 -14 -35 -14 -42 0 -69 8 -16 34 -44 56 -62 44 -35 53 -72 21 -90 -51 -27 -100 5 -142 94 -33 69 -36 112 -13 173 20 51 14 81 -26 127 -33 37 -36 46 -18 64 15 15 43 15 68 2z m-1725 -246 c35 -38 35 -105 0 -128 -75 -49 -153 30 -111 112 26 50 74 56 111 16z m804 -21 c46 -52 6 -137 -65 -137 -46 0 -74 31 -74 83 1 84 83 116 139 54z m241 -318 c0 -29 -53 -67 -140 -98 -77 -29 -280 -31 -360 -3 -66 22 -92 43 -88 69 6 37 30 42 116 22 116 -26 250 -18 357 23 88 33 115 30 115 -13z"></path><path id="pQLzt7PGB" d="M4156 4143 c16 -115 48 -279 69 -361 25 -95 101 -288 117 -298 5 -3 25 3 45 13 36 19 36 20 69 161 33 143 86 291 130 370 23 39 22 56 -2 32 -15 -15 -134 -60 -159 -60 -24 0 -69 29 -176 116 -44 35 -84 64 -89 64 -5 0 -6 -17 -4 -37z"></path></g></g></svg>