<svg version="1.2" xmlns="http://www.w3.org/2000/svg" viewBox="0 0 1366 1366" width="1366" height="1366">
	<title>836-ai</title>
	<defs>
		<clipPath clipPathUnits="userSpaceOnUse" id="cp1">
			<path d="m683 1365.36c-377.35 0-682.36-305.01-682.36-682.36 0-377.35 305.01-682.36 682.36-682.36 377.35 0 682.36 305.01 682.36 682.36 0 377.35-305.01 682.36-682.36 682.36z"/>
		</clipPath>
	</defs>
	<style>
		.s0 { fill: #bf1922 } 
		.s1 { fill: #c4c1bb } 
		.s2 { fill: #acabab } 
		.s3 { fill: #abaaaa } 
		.s4 { fill: #010101 } 
		.s5 { fill: #4e4534 } 
		.s6 { fill: #fdcdaf } 
		.s7 { fill: #1f120c } 
		.s8 { fill: #80736a } 
		.s9 { fill: #282b27 } 
		.s10 { fill: #8b7f70 } 
		.s11 { fill: #545959 } 
		.s12 { fill: #232828 } 
	</style>
	<g id="Design">
		<path id="&lt;Path&gt;" class="s0" d="m683 1365.4c-377.3 0-682.4-305.1-682.4-682.4 0-377.3 305.1-682.4 682.4-682.4 377.3 0 682.4 305.1 682.4 682.4 0 377.3-305.1 682.4-682.4 682.4z"/>
		<g id="&lt;Clip Group&gt;" clip-path="url(#cp1)">
			<g id="&lt;Group&gt;">
				<path id="&lt;Path&gt;" class="s1" d="m930.1 1365.4q-254 0-508 0 0-1.4 1.1-2.1c3-1.6 6.2-1.2 9.3-1.2q243.6-0.1 487.2 0c3.2 0 6.4-0.4 9.3 1.1q1.2 0.8 1.1 2.2z"/>
				<path id="&lt;Path&gt;" class="s1" d="m269.2 1365.4c0-6.8-1.1-13.6 1.1-20.3 3.1 3.4 1.6 7.5 2 11.3 0.3 3 0 6.2 4.6 5.8 43.5-0.3 87-0.1 130.4-0.1 2.6 0 5.1-0.1 7.4 1.2q1.2 0.7 1.1 2.1-73.3 0-146.6 0z"/>
				<path id="&lt;Path&gt;" class="s1" d="m1096.8 1363.9q0.1 0.8 0.1 1.5-80.8 0-161.7 0-0.1-1.4 1-2.1c2.4-1.3 4.9-1.2 7.4-1.2q72.7-0.1 145.5 0c1 0 2.1 0 3.1 0.2 1.7 0.1 3.3 0.4 4.6 1.6z"/>
				<path id="&lt;Path&gt;" class="s2" d="m415.8 1365.4q0-0.5 0-1 0.2-0.4 0.4-0.7c1.5-1 3.2-1 4.8-0.5q0.8 0.4 1.1 1.2 0 0.5 0 1-3.2 0-6.3 0z"/>
				<path id="&lt;Path&gt;" class="s3" d="m935.2 1364.4q0 0.5 0 1-2.6 0-5.1 0 0-0.5 0-1 0.2-0.3 0.3-0.7c1.2-0.8 2.5-0.8 3.8-0.4q0.7 0.3 1 1.1z"/>
				<path id="&lt;Path&gt;" class="s4" d="m1096.8 1363.9q-1.8 0.1-3.6 0.1c-3.1-7.1-2.4-14.8-2.9-22.2-0.6-8.9-0.2-17.7-0.2-26.6 0.1-26.9-1.7-53.7-3.5-80.6-3.3-47.4-9.1-94.6-13.9-141.9-0.9-9.2-1-18.5-1.2-27.7-0.7-23.4-3.1-46.6-5.6-69.8-2.9-26.5-5.2-53.2-9.9-79.5-5.3-29.9-12.3-59.4-23.7-87.6-10.3-25.3-26.5-45.8-49.1-61.2-23.9-16.3-49.9-28.7-77.1-38.6-23.8-8.8-48.9-12.9-72.7-21.2-4.2-1.5-5.6 0.8-7.1 4-6.7 13.9-14 27.7-26 37.7-26.9 22.4-56.6 39.3-93.1 38.1-18.6-0.5-36.6-5.7-53.9-12.4-23-8.9-45.6-18.6-63.6-36.5-9.7-9.6-17.9-20.2-24.6-31.9-1.4-2.6-2.2-5.5-0.5-8.4 0.9-1.3 2.5-1.7 3.4-3-0.9 1-2.2 1.5-3.2 2.2-15.5 6.3-31.6 10.7-46.5 18.1-33.7 16.9-68.4 31.5-101.3 50.1-39.3 22.3-64.2 55.5-78.7 97.4-9.3 26.8-14.3 54.5-18.8 82.4-6.4 40.3-12.3 80.7-19.6 120.9-3.2 18-3.1 36.5-6 54.6-6.4 40.1-8.6 80.7-13 121-3.6 33.6-1.8 67.3-2.4 101-0.1 7.2 0 14.6-3.1 21.5-5.2 0.2-5.2 0.2-5.2-4.5 0-4.8 0.7-9.5 0.1-14.3 0.7-17 1.1-34.1 0.9-51.2-0.3-27 2-53.8 5.1-80.6 2.6-21.7 4.2-43.5 6.6-65.3 2-18.2 4.7-36.3 7-54.4 1.1-8.4 1.7-16.8 2.7-25.1 2.5-20.5 6.8-40.7 9.8-61.1 3.8-25.8 7.9-51.5 12.3-77.2 5.1-29.8 11.9-59 24.2-86.7 15.7-35.7 39.4-64.3 73.9-83.6 15.2-8.5 30.4-17 46.3-24.2 10.8-4.8 21.4-9.8 31.9-15.1 26-13.1 53.2-23.2 81.2-30.9 7.4-2.1 12-6.1 15.3-12.6 4.1-7.9 5.6-16.3 6.1-25 0.8-13.3-1.1-26.4-2.7-39.6-1.1-9.2-4.7-17.8-6.9-26.7-3.3-13.1-4.7-26.5-6.5-39.8-0.4-3.3-1.3-4.4-5-4.5-8.8-0.2-15.3-5.1-19.9-12.5-2.7-4.3-4.1-9.2-5.4-14.1-3.1-12.2-5.8-24.5-7.1-37.1-0.3-2.9-0.4-5.9-0.1-8.8 1.1-9.2 4.8-14.2 13.5-19.3q-7.1-16.1-14.1-32.3-10.4-24.2-8.5-50.5c0.5-7.2 1.9-14.2 3.9-21.1 3.6-12.7 7.7-25.3 10.9-38.1 3.9-15.5 13.4-25.4 28.3-30.3 18.8-6.2 37.4-12.9 55-21.8 11-5.5 22.4-9.6 34.1-13 13.1-3.7 25.8-3.3 38.3 1.8 5.5 2.3 11 4.3 16.3 6.8 14 6.3 28.8 9.3 43.9 11 6.4 0.7 12.9 1.5 19.1 3.6 9.6 3.3 17 9.1 21.9 18.1q3.3 6 6.7 12.1c3 5.2 6.9 9.5 12.1 12.6 18.5 11 26 27.7 26.5 48.6 0.6 20.8-4 40.4-12 59.5-4.4 10.6-9.6 20.9-16.2 30.5 11.1 5.5 14.7 15.5 15.3 26.2 1.1 20-3.8 38.8-15.8 55.3-2.7 3.7-6.1 6.9-9.9 9.6-4.5 3.3-9.4 4.5-14.9 2.3-1.5 0.7-1.5 2.3-1.9 3.7-0.4 1.6-0.6 3.3-1.2 4.9-5.6 15.7-6 32.1-6.4 48.5-0.4 16.6-1 33.2-1.4 49.8-0.3 9.1 2.1 17.6 5.7 25.7 5.2 11.7 14.5 19 26.6 22.5 18.2 5.1 36.2 10.7 54.6 15.3 39.9 10 77.9 25.3 112.5 48 27.9 18.4 47.1 43.4 58.3 74.8 10.9 30.6 18.4 62.1 22.9 94.2 5.6 40 9.9 80.2 13 120.4 1.2 16.6 1.7 33.2 3.1 49.8 1.6 20.1 4 40.2 5.8 60.3 1.7 18.7 4 37.3 5.6 55.9 3.8 46 5.7 92 5.4 138.2 0 3.8-0.1 7.5-0.2 11.3z"/>
				<path id="&lt;Path&gt;" class="s5" d="m275.4 1363.9c2.3-27.1 1.3-54.2 1.4-81.3 0.1-17.9 1.6-35.6 3.6-53.4 1.1-10.4 1.6-20.9 2.9-31.3 1.2-10.4 1.6-20.9 3.3-31.3 0.8-5.1 0.9-10.4 1.3-15.6 0.7-11.2 3.5-22 4.6-33 0.9-8.8 2.6-17.5 3.1-26.2 1-17.7 3.6-35 6.9-52.3 2.9-14.6 5.4-29.3 7.4-44.1 2.2-17.2 5.5-34.3 8.1-51.5 2.2-15.1 4.7-30.2 8.1-45.1 5.3-23.3 12.2-45.9 23.6-67 8.7-16.2 19-31.3 32.6-43.8 10.2-9.5 21.8-17.1 33.8-24.2 20.4-12.2 41.9-22.3 63.6-32.1 8.2-3.7 16.2-7.9 24.3-12 18.6-9.4 38.2-16.4 57.9-23.2 1.4-0.5 2.8-0.9 4.3-0.9q0.6 0.4 0.4 0.9-0.2 0.4-0.4 0.4c-2.2 3.1-1.1 6 0.6 8.8 4.7 7.8 9.7 15.3 15.6 22.1 15.8 18.2 35.5 30.6 57.6 39.6 16.8 6.8 33.9 12.3 51.7 15.9 19.4 4 38.1 1.9 56.2-5 16-6.1 30.7-14.7 44.5-24.9 9.9-7.4 17.5-16.9 23.9-27.4 3.9-6.4 8-12.9 10.2-20.2 0.7-2.4 1.7-2.2 3.6-1.6 8 2.6 15.9 6 24.1 7.4 20 3.7 39 10.4 57.9 17.1 28.5 10.1 55.4 23.7 79.4 42.1 20.2 15.4 34.3 35.6 43.5 59.2 9.9 25.4 16.5 51.6 21.5 78.3 3.5 18.9 5.9 38.1 7.7 57.3 1.3 13.1 3.4 26.2 4.7 39.3 1.2 11.5 1.8 23 2.8 34.5 1.6 17.1 1.9 34.4 2.7 51.5 0.5 9.9 2.2 19.6 3.3 29.4 1 9.8 1.8 19.6 2.8 29.4q1.6 15.3 3.4 30.6c0.5 5 1.1 10.1 1.4 15.1 0.8 12.7 2.3 25.4 3 38.2 0.9 15.8 1.7 31.5 2.7 47.2 0.8 12.6 0.9 25.2 0.9 37.8-0.1 15.1 0.7 30.3 1.3 45.4q-66.5 0-132.9 0.1c-8.4 0-16.8 0.2-25.1 0.3 0 0 0-0.5 0-0.5-2.8-5.3-0.6-10.8-0.2-16.1 1.2-18 0.9-36.1 0-54.2-0.8-16.3-2.4-32.6-1-49.1 1.4-16.5 1-33.2-0.3-49.8-1.7-23-0.3-46 4.7-68.5 8-36.3 11.4-73.2 16-109.9 1.1-9 0.7-18 1.1-27.1 0.8-15.1 2.1-30.2 3.1-45.3-5.1 45.3-6.6 90.9-12.9 136-2.3 16.3-6.5 32.2-9.5 48.3-2.7 13.9-4.3 27.9-4.2 42 0.2 24.7 0.7 49.3-0.1 73.9-0.8 25.1 1.6 50 2.4 75 0.4 13.8-0.9 27.7-2.6 41.5-0.1 1.3-0.7 2.4-1.6 3.3 0 0 0 0.5 0 0.5-2.5-0.1-5-0.3-7.5-0.3q-246.5 0-493 0c-2.5 0-5 0.2-7.5 0.3 0 0 0-0.5 0-0.5-1.8-2.3-1-4.8-0.6-7.3 6.2-44.8 12.8-89.6 15.8-134.8 2.1-31.9 7-63.5 9.2-95.4 1.4-20.9-0.6-41.6-2.9-62.4-3.8-34.2-8.7-68.3-13.6-102.5 5.3 37.7 9.6 75.5 13.9 113.3 3.6 31.9 1 63.4-3.9 94.9-2.9 18.6-3.4 37.3-4.7 56-1.1 17.4-3.7 34.7-6.1 52-3.7 26.1-5.5 52.3-10.1 78.3-0.5 2.9-0.5 5.9-3.3 7.8 0 0 0 0.6 0 0.6-2.5-0.1-5-0.3-7.5-0.3q-63 0-125.9 0c-2.3 0-4.7-0.1-7-0.2z"/>
				<path id="&lt;Path&gt;" class="s4" d="m415.8 1363.8c1.7-10.7 3.4-21.5 5-32.3 1.9-13 2.8-26.2 4.7-39.3 1.7-11.4 2.8-22.9 4.2-34.3 1.1-8.8 2.4-17.5 3.4-26.2 0.8-7.8 1-15.6 1.3-23.3 0.6-16 2.8-31.7 5-47.5 3.3-23.2 5.8-46.4 3.9-69.7-1.1-14.7-2.5-29.3-4.5-43.8-2.2-15.8-3.5-31.7-5.5-47.5-1.3-11.3-3.1-22.4-4.5-33.7-0.4-3.9 0-7.9 0-12.5 3.2 3.1 2.7 6.9 3.2 10.1 2.7 16.8 5.2 33.6 7.5 50.4 1.6 11.4 2.6 22.9 4.2 34.3 2.2 15 3.5 30 4.6 45.1 0.9 12.7 0.9 25.6-0.5 38.4-1.1 9.4-1.8 18.8-2.9 28.2-1.1 8.7-2.4 17.4-3.3 26.2-0.8 7-1.6 14.2-1.7 21.3-0.2 14.9-1.9 29.7-3.6 44.5-1.3 11.7-2.4 23.4-4.1 35-2.8 19.5-4.1 39.2-7.3 58.7-0.9 6-1.9 12-2.8 18-2.1 0.3-4.2 0.3-6.3-0.1z"/>
				<path id="&lt;Path&gt;" class="s4" d="m930.1 1363.9c0.8-11.9 1.6-23.8 2.3-35.8 0.2-3.3 0.3-6.7 0-10.1-1.1-15-1.5-30.2-2.6-45.2-0.6-7.6 0.2-15.1 0.2-22.6 0-26.1 0.2-52.2-0.1-78.3-0.1-17.3 2.3-34.3 5.7-51.2 2.7-13.1 5.7-26.2 7.9-39.4 1.6-9.3 2-18.8 3-28.1 1-8.8 2.2-17.5 3.2-26.3 0.7-6.2 1.8-12.5 1.7-18.7 0-11.6 1-23.1 1.7-34.6 0.6-10.5 2.3-20.9 3.9-31.2 0.3-2.2 0.5-5.1 3.4-6.4 0 5 0.5 9.7-0.1 14.3-2.2 14.8-1.9 29.7-3.4 44.6-0.4 3.9-0.2 7.9-0.2 11.9 0 11.2-1.8 22.2-3.3 33.2-1.2 8.3-2.3 16.6-2.9 25-0.9 14.9-3.9 29.5-6.8 44.1-3.4 16.8-6.6 33.6-7.6 50.9-0.7 10.7-1.3 21.5-0.6 32.1 1.2 15.6 0.6 31.1 0.9 46.7 0.1 4.6-1 9.1-1.1 13.8-0.3 14.7 1.4 29.3 2 44 0.7 17.2 1.4 34.4-0.5 51.6-0.6 5.2-1 10.5-1.6 15.7q-2.6 0-5.1 0z"/>
				<path id="&lt;Path&gt;" class="s6" d="m794.5 456.3c-0.2 24-1 48-3.3 71.9-1.6 16.6-6.6 32.5-12.1 48.2-2.8 8.1-5.8 16.2-9.6 24-13.6 28-35.3 45.4-66.2 50.9-23.3 4.2-45.2 1.1-65.9-10.5-6.8-3.8-13.4-8-19.7-12.6-17.2-12.7-27.8-29.4-31.2-50.7-4.8-29.7-10-59.3-11-89.5-0.9-29.6 2.4-58.7 10.8-87.3 5.7-19.2 17.6-30.4 37.3-33.8 21.8-3.7 43.5-7.2 65.7-7.8 12.2-0.3 24.2-3.1 36.2-5.2 9.1-1.6 18.3-2.3 27.6-1 15.2 2.2 25.7 10.1 31 24.4 4.2 11.3 6.9 23 8.3 34.9q2.6 22 2.1 44.1z"/>
				<path id="&lt;Path&gt;" class="s7" d="m797.6 478.5c-0.3-8.8 1.9-17.5 1.1-26.3-1.1-12.7-1.2-25.5-2.3-38.3-1.1-13.3-3.9-26-8.2-38.5-4.7-13.5-14.2-22.3-28-25.8-9.6-2.5-19.5-2.2-29.3-0.5-12.2 2.1-24.3 4.5-36.4 6.4-4.6 0.7-9.3 0.4-13.9 0.2-11.6-0.7-23 1.2-34.4 2.8-9.1 1.3-18.3 2.5-27.2 4.8-5.3 1.4-10.3 3.6-15.2 5.9-8.4 3.9-13.5 10.9-16.9 18.9-6.1 13.8-9.4 28.5-12 43.5-2.6 15.5-3.7 31.1-3.7 46.9 0 0.7 0.3 1.6-0.8 2.6-2.6-3.9-3.7-8.5-5.1-12.6-6.1-17.7-14.4-34.5-21.7-51.7-7.1-16.7-10.3-34.1-8.9-52.2 0.6-7.8 3-15.2 5.1-22.7 3.7-12.7 7.8-25.3 11.3-38 3.1-10.9 10.7-17.4 20.6-21.3 10.3-4.2 20.9-7.6 31.4-11.5 8.6-3.2 17.1-6.7 25.4-11 13.7-7 28.1-12.3 43.2-15 9.4-1.7 18.8-0.9 27.8 2.9 10.5 4.4 20.8 9.2 31.6 12.6 9.2 2.9 18.7 4.4 28.3 5.5 8.5 1 17.1 1.8 24.9 5.9 7 3.6 12.3 8.6 15.8 15.7 1.4 3 3.1 5.9 4.6 8.9 4.4 8.9 12.3 14.1 20 19.7 10.6 7.7 16.3 18.2 18.3 31 0.8 4.8 1.2 9.6 1.2 14.4 0.1 18.8-4.9 36.4-12.1 53.6-5 12.1-11.7 23.1-18.5 34.2-5.7 9.2-11.6 18.6-15.1 29l-0.4 0.4z"/>
				<path id="&lt;Path&gt;" class="s6" d="m596.4 613.7c16.7 20.2 37.9 33.6 63.1 40.6 22.3 6.1 44.3 3.4 65.7-4.5 14.5-5.4 26-15.2 35.6-27.3 8.4-10.7 14.1-22.9 19-35.5 3.1 0.3 1.5 2.4 1.4 3.9-0.8 18.3-1.7 36.6-2.2 54.9-0.4 11.1 1.9 21.8 7 31.7 5.1 9.7 13 16.4 23 20.6 1.2 0.5 2.4 0.9 3.6 1.3 10.7 3.8 10.6 3.7 5.3 14.1-10.1 20-24.5 35.6-44.3 46.2-11.5 6.2-22.8 12.7-35.4 16.5-18.5 5.7-36.8 4.3-55.4-0.1-20.6-4.9-40.2-12.4-59.1-21.7-22.4-11.1-39.6-28.2-52.5-49.7-2.8-4.7-2.7-4.8 2.1-7.6 15-8.6 21.7-22.1 23.5-38.8 1.5-14.2-0.2-28.1-1.7-42.1-0.4-1.3-1.2-2.8 1.3-2.5z"/>
				<path id="&lt;Path&gt;" class="s6" d="m830.4 480.6c-0.3 11.9-2.5 23.3-7.6 34.1-3.7 8-8.8 14.8-16.2 19.6-2.5 1.7-5.1 3-8.3 2.5-2.3-0.4-4-1.5-3.5-4.2 2.5-13.7 0.3-27.7 3.8-41.3 3.4-13.2 9.2-25.1 16.6-36.5 1.5-2.3 3.3-2.3 5.3-1 2.6 1.7 4.2 4.1 5.7 6.7 3.4 6.2 4.6 13 4.2 20.1z"/>
				<path id="&lt;Path&gt;" class="s6" d="m543.4 473.9c-0.1-3.6 0.4-7.2 1.4-10.6 1.1-3.3 2.8-6.1 5.6-8.2 3.7-2.8 4.6-2.6 6.3 1.6 4.8 12.3 9.6 24.7 14.3 37 0.8 2 1.1 4 1.1 6.2 0.5 11.5 1.9 23 3.6 34.4 0.5 3.7 0.2 4.2-3.5 3.8-6.1-0.7-11.1-3.6-14.9-8.4q-2.6-3.3-3.9-7.2c-5.4-15.8-8.3-32.1-10-48.6z"/>
				<path id="&lt;Path&gt;" class="s8" d="m781.2 590.9c-0.8-1.2 0.3-3.1-1.4-3.9-0.1-1.7 0.6-3.1 2.2-4.2 0.5 2.9 0.6 5.6-0.8 8.1z"/>
				<path id="&lt;Path&gt;" class="s9" d="m566.2 696.9q-0.1-0.7 0-1.3c1-1.3 2.2-2 4.5-2.2-0.9 2.4-3.1 2.5-4.5 3.5z"/>
				<path id="&lt;Path&gt;" class="s10" d="m596.4 613.7c-1.1 0.4-0.8 1.7-1.3 2.5-0.4-0.8-0.9-1.5-1-2.2-0.2-0.9-0.8-2.2 0.5-2.4 1.1-0.2 1.5 1.1 1.8 2.1z"/>
				<path id="&lt;Path&gt;" class="s11" d="m797.6 478.5q0.5 0 0.9 0c-0.1 0.6 0.6 1.6-0.6 1.8q-0.1-0.9-0.3-1.8z"/>
				<path id="&lt;Path&gt;" class="s12" d="m571.6 483.8c0 0.1 0 0.4-0.1 0.4-0.1 0.1-0.3 0.2-0.4 0.1-0.6-0.2-0.5-0.5 0-0.7 0.2 0 0.3 0.1 0.5 0.2z"/>
			</g>
		</g>
	</g>
</svg>